<svg width="242" height="247" viewBox="0 0 242 247" fill="none" xmlns="http://www.w3.org/2000/svg">
<mask id="mask0_105_63" style="mask-type:luminance" maskUnits="userSpaceOnUse" x="0" y="0" width="242" height="247">
<path d="M241.595 0H0V246.022H241.595V0Z" fill="white"/>
</mask>
<g mask="url(#mask0_105_63)">
<mask id="mask1_105_63" style="mask-type:luminance" maskUnits="userSpaceOnUse" x="1" y="1" width="239" height="244">
<path d="M1.63184 1.60132H239.759V244.421H1.63184V1.60132Z" fill="white"/>
</mask>
<g mask="url(#mask1_105_63)">
<mask id="mask2_105_63" style="mask-type:luminance" maskUnits="userSpaceOnUse" x="1" y="1" width="239" height="244">
<path d="M34.5568 52.4761C34.0694 43.8089 34.1132 42.6766 34.3792 41.0658C34.7344 39.0186 34.9558 36.4491 36.2865 34.2714C38.1055 31.3969 42.7183 29.0886 45.4682 26.0835C48.2182 23.0785 50.6584 17.4609 52.7425 16.3286C53.7189 15.8055 54.7391 15.9799 55.4041 16.1542C55.8923 16.2848 56.2467 16.5898 56.5127 16.9815C56.8679 17.4609 57.3561 18.7237 57.1339 18.8981C56.7795 19.1593 52.8317 16.7634 52.9201 16.2848C52.9647 15.9799 54.3393 15.7617 55.0051 15.8493C55.6263 15.9799 56.3797 16.3716 56.7795 16.851C57.1785 17.3303 57.5329 18.1138 57.4445 18.7667C57.3999 19.5073 56.6903 21.0321 56.1583 21.0321C55.3157 21.0751 52.5657 16.9815 52.9201 16.2848C53.1861 15.8055 54.8721 15.8055 55.5817 16.0236C56.2029 16.241 56.8233 16.851 57.0901 17.4171C57.3561 17.9832 57.4445 18.8105 57.2669 19.4205C57.0901 20.0304 56.4243 21.0751 56.0699 21.0321C55.4487 20.9015 53.9849 16.8947 54.5169 15.8055C54.8721 15.022 55.8923 15.065 57.2669 14.5864C60.771 13.2798 71.9047 10.6227 76.3844 8.96805C78.8684 8.05316 81.1747 5.8762 82.1065 6.35475C82.8161 6.70351 82.8607 9.4904 82.6385 9.57798C82.4609 9.66477 81.7075 8.79367 81.5299 8.31512C81.3077 7.87957 81.2639 7.40023 81.3969 6.92089C81.4853 6.35475 81.9735 5.57123 82.4171 5.13568C82.7715 4.83072 83.2151 4.65634 83.6587 4.52576C84.1023 4.43896 84.6343 4.48197 85.0779 4.56955C85.5215 4.70013 86.3203 5.17869 86.2757 5.26627C86.2757 5.35307 83.7033 4.78693 83.7033 4.56955C83.7479 3.87282 101.535 1.69508 104.639 2.13063C105.526 2.26121 105.925 2.43559 106.325 2.82735C106.769 3.21911 107.078 3.91583 107.123 4.48197C107.168 5.0481 106.945 5.74483 106.635 6.22417C106.28 6.65972 105.305 7.35644 105.038 7.18206C104.684 6.92089 104.905 3.56786 106.014 2.60918C107.478 1.34632 112.535 1.69508 114.752 2.04305C116.26 2.26121 118.39 3.13231 118.345 3.43727C118.3 3.74146 114.043 4.134 113.821 3.74146C113.688 3.43727 114.62 2.4786 115.196 2.21742C115.728 1.91246 116.571 1.78187 117.192 1.95625C117.813 2.08684 118.567 2.52239 118.922 3.08852C119.321 3.69845 119.72 5.31006 119.277 5.70182C118.611 6.22417 113.998 5.0051 113.865 4.26458C113.688 3.65466 115.728 2.21742 116.527 1.95625C117.014 1.82566 117.458 2.00004 117.901 2.13063C118.3 2.305 118.744 2.52239 119.055 2.91415C119.41 3.3497 119.764 4.22079 119.764 4.78693C119.809 5.26627 119.676 5.74483 119.454 6.13737C119.232 6.52913 118.922 6.87788 118.523 7.13906C118.167 7.40023 117.591 7.83578 117.236 7.61761C116.527 7.22585 115.728 2.52239 116.349 2.00004C116.704 1.69508 117.813 2.08684 118.345 2.4786C118.922 2.95794 119.543 4.09021 119.587 4.83072C119.631 5.48365 119.277 6.22417 118.877 6.70351C118.434 7.18206 117.28 7.87957 117.059 7.6614C116.66 7.31343 117.547 3.04473 118.7 2.65297C120.208 2.13063 123.491 5.9192 126.196 7.53082C129.168 9.27301 133.692 10.8408 135.954 12.7136C137.507 13.9327 139.192 16.6328 139.237 16.5898C139.281 16.5898 137.197 13.9765 137.33 13.8459C137.418 13.7583 138.217 14.1509 138.527 14.4988C138.926 14.9344 139.37 15.7187 139.458 16.3716C139.503 16.9815 139.281 17.8088 138.882 18.332C138.483 18.8105 137.729 19.2461 137.152 19.4205C136.664 19.551 135.954 19.6816 135.733 19.3767C135.289 18.7237 136.708 14.0633 137.463 13.7583C137.862 13.6277 138.35 14.1071 138.704 14.4558C139.104 14.8476 139.548 15.6311 139.591 16.2848C139.636 16.8947 139.415 17.7221 139.015 18.2444C138.66 18.7237 137.862 19.1593 137.285 19.3337C136.797 19.4642 136.132 19.5948 135.91 19.2899C135.422 18.6799 136.575 14.2377 137.285 13.9765C137.773 13.8021 138.616 14.6294 138.971 15.1956C139.325 15.7187 139.458 16.5898 139.415 17.1559C139.37 17.6345 139.148 18.07 138.882 18.4188C138.571 18.8105 138.217 19.1155 137.773 19.3337C137.24 19.551 136.043 19.856 135.733 19.5073C135.156 18.8543 136.442 14.1071 137.152 13.8021C137.507 13.6715 138.039 14.1939 138.35 14.4988C138.704 14.8038 138.971 15.1956 139.104 15.6311C139.281 16.1972 139.281 17.1121 139.059 17.6783C138.793 18.2882 138.217 18.8981 137.64 19.1593C137.064 19.4205 135.866 19.7254 135.555 19.3337C135.023 18.7237 136.354 14.2814 137.064 13.9765C137.418 13.8459 137.951 14.3682 138.305 14.6732C138.616 14.9782 138.926 15.3699 139.059 15.8055C139.237 16.3716 139.237 17.2865 138.971 17.8526C138.749 18.4626 138.128 19.0717 137.551 19.3337C136.974 19.5948 135.866 19.8998 135.511 19.5073C134.846 18.8981 136.531 14.4558 136.043 13.9765C135.821 13.8021 134.979 14.2377 134.979 14.2377C134.934 14.1939 135.777 13.7583 136.265 13.6715C136.708 13.5847 137.197 13.6277 137.64 13.7583C138.084 13.9327 138.527 14.1939 138.837 14.4988C139.148 14.8476 139.415 15.2393 139.548 15.6749C139.681 16.2848 139.591 17.1989 139.37 17.7221C139.192 18.1576 138.66 18.8543 138.527 18.8105C138.261 18.6799 138.217 15.2393 138.971 14.9782C140.301 14.4558 145.092 20.204 148.329 22.3817C151.479 24.4289 156.713 26.1711 158.177 27.6513C158.842 28.305 159.064 28.8712 159.108 29.4811C159.197 30.134 158.975 30.9183 158.576 31.4407C158.221 31.963 157.511 32.4424 156.846 32.573C156.225 32.7035 155.027 32.7035 154.806 32.268C154.451 31.5713 156.758 27.4777 157.556 27.3902C158.044 27.3471 158.664 28.4356 158.887 28.958C159.064 29.3935 159.064 29.8729 159.02 30.3084C158.975 30.744 158.798 31.2225 158.488 31.5713C158.132 32.0506 157.423 32.573 156.802 32.7035C156.137 32.8341 154.983 32.8341 154.717 32.3986C154.362 31.7019 156.713 27.4339 157.511 27.3034C157.866 27.2158 158.265 27.8695 158.531 28.2175C158.798 28.61 158.975 29.0456 159.02 29.5241C159.02 30.0903 158.842 30.9614 158.488 31.4845C158.088 31.963 157.378 32.4424 156.758 32.573C156.137 32.7035 154.894 32.7473 154.717 32.3118C154.362 31.5713 156.979 27.3902 157.644 27.2596C157.866 27.2158 158.044 27.4339 158.221 27.6513C158.531 28.0439 159.108 28.8274 159.153 29.4811C159.197 30.0903 158.975 30.9183 158.621 31.4407C158.221 31.92 157.511 32.3986 156.891 32.5292C156.27 32.7035 155.072 32.7035 154.85 32.268C154.495 31.5713 156.713 27.6083 157.467 27.4777C157.866 27.3902 158.265 28.0439 158.488 28.3918C158.754 28.7836 158.931 29.2192 158.975 29.6985C158.975 30.2646 158.798 31.1357 158.443 31.6581C158.044 32.1374 157.334 32.6168 156.713 32.7473C156.092 32.9217 155.16 32.9217 154.673 32.4862C154.052 31.92 153.52 30.0472 153.83 29.1324C154.14 28.2175 155.693 27.0852 156.536 26.9546C157.157 26.8678 157.955 27.4339 158.398 27.8257C158.754 28.1307 159.02 28.5224 159.108 28.958C159.286 29.5241 159.197 30.439 159.02 31.0051C158.842 31.4407 158.531 31.8325 158.132 32.0936C157.644 32.3986 156.58 32.9647 156.18 32.7035C155.515 32.1812 155.693 27.4777 156.358 27.0852C156.758 26.824 157.778 27.4339 158.221 27.9133C158.709 28.3488 159.02 29.1761 159.108 29.7423C159.153 30.2208 159.02 30.7002 158.842 31.0919C158.664 31.4845 158.398 31.92 157.999 32.1812C157.511 32.5292 156.314 33.0523 156.004 32.7903C155.515 32.3118 156.358 27.6513 157.423 27.3471C159.064 26.9116 167.093 35.7524 166.649 36.7971C166.471 37.2326 163.987 36.5359 163.899 36.8847C163.721 37.3202 168.068 40.3683 168.379 40.1071C168.645 39.8897 166.427 36.7103 166.604 36.5797C166.693 36.4929 167.846 37.407 168.157 37.9732C168.467 38.5393 168.512 39.4542 168.423 40.0641C168.334 40.5427 168.113 40.9352 167.713 41.2832C167.314 41.7187 166.427 42.1543 165.85 42.2411C165.362 42.3286 164.609 42.4154 164.431 42.0675C163.987 41.37 165.717 36.7103 166.56 36.4929C167.048 36.4053 167.846 37.407 168.157 37.8864C168.379 38.3219 168.467 38.8005 168.467 39.2798C168.467 39.7154 168.379 40.2377 168.113 40.6302C167.802 41.1526 167.136 41.7625 166.516 42.0237C165.895 42.2411 164.431 42.1981 164.386 41.9799C164.298 41.7187 166.782 40.0203 168.423 39.8021C170.641 39.4542 174.189 40.5865 176.584 41.5013C178.714 42.3286 180.088 43.4171 182.218 44.8106C185.189 46.7709 191.443 50.4289 192.641 52.3885C193.085 53.129 193.085 53.7827 192.907 54.3919C192.774 55.0018 192.242 55.7423 191.798 56.0911C191.399 56.3953 190.956 56.5696 190.468 56.6134C190.024 56.6572 189.537 56.6572 189.093 56.4828C188.517 56.2647 187.407 55.4812 187.496 55.1762C187.673 54.6538 192.375 54.1307 192.686 54.6538C192.863 54.9588 192.021 56.0035 191.577 56.3523C191.177 56.7002 190.778 56.8746 190.29 56.9184C189.67 56.9622 188.783 56.8308 188.25 56.4828C187.673 56.1779 187.186 55.3936 186.964 54.8712C186.831 54.3919 186.698 53.9571 186.92 53.4778C187.319 52.6505 189.27 51.0826 190.29 50.9521C191 50.8645 191.754 51.3438 192.197 51.7356C192.597 52.0405 192.819 52.4761 192.952 52.8679C193.129 53.3034 193.218 53.7827 193.085 54.2613C192.996 54.8274 192.597 55.6555 192.064 56.0473C191.577 56.439 190.379 56.9622 190.113 56.744C189.714 56.3523 190.512 52.5629 191.488 52.2149C192.641 51.8662 195.746 54.9588 197.21 56.3085C198.275 57.3539 199.339 58.3986 199.694 59.3573C200.005 60.054 199.96 60.8376 199.782 61.4475C199.649 61.883 199.339 62.2748 199.028 62.6235C198.674 62.9285 198.23 63.1897 197.787 63.3203C197.343 63.4071 196.811 63.4508 196.367 63.3641C195.924 63.2765 195.436 63.0153 195.08 62.7541C194.726 62.4492 194.371 62.1012 194.238 61.6219C194.016 60.9251 194.105 59.6623 194.415 58.9655C194.771 58.3118 195.48 57.7457 196.057 57.4407C196.5 57.2233 196.988 57.1796 197.476 57.2233C197.92 57.2664 198.408 57.3539 198.851 57.6589C199.339 58.0069 199.915 58.7474 200.093 59.3135C200.271 59.7491 200.226 60.3152 200.182 60.707C200.138 60.9689 200.182 61.2731 199.96 61.3607C199.339 61.6656 194.593 59.7929 194.46 59.0086C194.371 58.53 195.391 57.7895 195.968 57.5283C196.589 57.3101 197.476 57.2664 198.097 57.4407C198.718 57.6589 199.383 58.268 199.739 58.7474C200.005 59.1391 200.138 59.6623 200.138 60.0978C200.182 60.5334 200.226 61.3169 199.872 61.4475C199.162 61.7962 194.859 59.5747 194.681 58.7912C194.593 58.3986 195.214 57.9639 195.569 57.7019C195.924 57.4407 196.411 57.2233 196.899 57.1358C197.343 57.049 197.875 57.0928 198.319 57.2664C198.762 57.3969 199.206 57.6589 199.516 58.0069C199.827 58.3118 200.093 58.7474 200.226 59.1829C200.359 59.6185 200.359 60.2284 200.315 60.6202C200.271 60.8813 200.271 61.0119 200.093 61.2731C199.649 61.7962 197.875 63.0153 197.032 63.1029C196.5 63.1897 196.057 62.9723 195.658 62.7103C195.17 62.3624 194.548 61.7087 194.327 61.0995C194.105 60.4896 194.149 59.6185 194.415 59.0086C194.681 58.3986 195.391 57.7895 195.924 57.5283C196.367 57.3101 196.988 57.0052 197.298 57.2664C197.92 57.7457 197.875 62.5797 197.165 63.0153C196.766 63.2765 195.702 62.6235 195.214 62.188C194.771 61.7087 194.415 60.8813 194.327 60.3152C194.282 59.7929 194.371 59.3135 194.593 58.9218C194.771 58.4862 195.037 58.0944 195.436 57.7895C195.924 57.4407 196.722 57.0928 197.431 57.1358C198.275 57.1796 199.162 57.7019 200.093 58.3118C201.424 59.1829 202.799 60.4896 204.307 62.2748C206.746 65.2368 210.073 70.8544 212.468 75.0793C214.686 79.0423 217.88 84.4863 218.323 86.8384C218.501 87.7963 218.412 88.3624 218.102 88.9285C217.791 89.4947 217.17 90.1046 216.549 90.3658C215.928 90.5832 215.041 90.627 214.42 90.4096C213.754 90.1914 212.734 89.5815 212.779 89.0591C212.823 88.188 217.215 85.7061 217.968 86.0103C218.323 86.1417 218.323 86.9252 218.368 87.3607C218.368 87.8401 218.279 88.3186 218.057 88.7542C217.747 89.2773 217.081 89.9302 216.461 90.1914C215.884 90.4526 214.952 90.4526 214.331 90.2352C213.711 90.017 212.601 89.1029 212.734 88.8848C212.867 88.5368 217.392 88.9285 217.525 89.3641C217.614 89.5815 216.904 90.1046 216.461 90.279C215.884 90.5402 214.952 90.627 214.331 90.5402C213.844 90.4096 213.4 90.1484 213.045 89.8434C212.69 89.5385 212.424 89.1029 212.247 88.6674C212.069 88.2318 212.025 87.7095 212.069 87.2739C212.158 86.8384 212.202 86.1417 212.601 85.9673C213.444 85.6185 217.658 87.3169 218.057 88.2756C218.279 88.8417 217.658 89.7128 217.17 90.1914C216.727 90.627 215.839 90.9757 215.218 91.0625C214.731 91.1063 214.243 91.0187 213.799 90.8013C213.267 90.5402 212.557 89.8434 212.291 89.3203C212.025 88.8848 211.759 88.2318 212.025 87.9269C212.557 87.3169 217.614 87.2739 218.057 87.9706C218.323 88.3624 217.569 89.4509 217.17 89.8864C216.86 90.279 216.416 90.4964 215.928 90.627C215.351 90.7575 214.42 90.7575 213.799 90.4964C213.178 90.2352 212.557 89.5815 212.291 89.0153C212.025 88.5806 211.759 88.0574 212.025 87.6219C212.468 86.7946 215.884 85.14 216.993 85.4879C217.88 85.8367 217.835 87.4045 218.545 88.493C219.61 90.1046 222.005 92.4559 222.936 93.937C223.557 94.9387 223.735 95.3742 224.134 96.5065C224.843 98.6404 225.731 102.603 226.174 106.001C226.662 109.747 226.174 114.842 226.662 118.021C226.973 120.198 227.683 121.462 227.993 123.378C228.392 125.469 228.614 127.123 228.791 130.128C229.19 136.182 229.901 151.077 229.279 157.304C228.969 160.614 228.747 164.316 227.683 164.795C227.017 165.057 225.109 163.314 225.109 163.314C225.109 163.358 226.618 164.055 227.017 164.577C227.327 164.97 227.46 165.448 227.505 165.884C227.55 166.363 227.505 166.842 227.327 167.277C227.061 167.844 226.44 168.541 225.864 168.845C225.287 169.107 224.089 169.412 223.735 169.02C223.202 168.41 224.577 163.533 225.376 163.271C225.864 163.097 226.751 164.011 227.106 164.491C227.417 164.882 227.55 165.362 227.593 165.797C227.638 166.276 227.593 166.755 227.372 167.191C227.106 167.757 226.529 168.453 225.953 168.715C225.332 169.02 224.134 169.325 223.823 168.933C223.291 168.323 224.666 163.75 225.42 163.445C225.775 163.271 226.352 163.75 226.662 164.099C227.106 164.534 227.55 165.405 227.638 165.972C227.726 166.45 227.593 166.973 227.417 167.365C227.239 167.801 226.928 168.236 226.573 168.541C226.219 168.802 225.731 169.063 225.287 169.15C224.843 169.238 223.912 169.238 223.868 169.107C223.823 168.889 226.44 166.929 227.284 167.452C229.412 168.715 227.904 186.353 227.55 192.668C227.372 196.501 226.973 199.941 226.485 201.858C226.263 202.772 226.086 203.382 225.731 203.817C225.42 204.209 225.021 204.47 224.533 204.558C223.956 204.732 223.025 204.775 222.449 204.514C221.827 204.253 221.206 203.6 220.896 203.077C220.674 202.685 220.585 202.163 220.63 201.727C220.63 201.292 220.63 200.726 220.985 200.377C221.739 199.811 224.8 199.462 225.864 200.116C226.795 200.682 226.751 202.032 227.327 203.643C228.525 207.084 232.207 217.101 232.074 219.844C231.985 220.802 231.674 221.325 231.231 221.761C230.787 222.24 229.989 222.632 229.323 222.719C228.658 222.763 227.816 222.545 227.284 222.153C226.751 221.761 226.13 221.063 226.13 220.367C226.086 219.539 227.904 217.536 227.816 217.492C227.771 217.449 226.44 219.235 226.352 219.148C226.263 219.104 226.573 218.233 226.884 217.841C227.284 217.406 228.082 216.883 228.703 216.753C229.19 216.578 229.678 216.665 230.122 216.796C230.566 216.883 231.054 217.144 231.364 217.492C231.719 217.797 231.985 218.233 232.162 218.668C232.295 219.104 232.207 220.062 232.295 220.062C232.34 220.062 232.251 218.277 232.561 218.19C232.872 218.058 233.804 219.148 234.07 219.67C234.291 220.106 234.38 220.585 234.336 221.063C234.247 221.673 233.848 222.545 233.449 222.98C233.138 223.372 232.694 223.634 232.207 223.721C231.63 223.895 230.344 224.026 230.077 223.59C229.634 222.893 231.674 218.407 232.473 218.19C232.827 218.102 233.316 218.712 233.582 219.104C233.892 219.453 234.114 219.888 234.203 220.367C234.247 220.977 234.158 221.892 233.804 222.458C233.449 223.024 232.739 223.546 232.118 223.764C231.497 223.938 230.21 224.069 229.989 223.634C229.545 222.936 231.985 218.582 232.651 218.363C232.872 218.32 233.05 218.538 233.271 218.756C233.626 219.104 234.291 219.888 234.38 220.541C234.513 221.195 234.336 222.065 234.025 222.632C233.671 223.198 232.961 223.721 232.295 223.938C231.674 224.112 230.255 224.069 230.167 223.807C230.077 223.416 232.917 221.195 233.892 221.325C234.691 221.456 235.135 222.588 235.755 223.546C236.687 224.94 237.973 227.292 238.505 228.99C238.948 230.341 239.437 232.648 239.215 232.736C238.948 232.823 237.086 229.774 237.13 229.731C237.219 229.687 239.304 231.516 239.526 232.518C239.747 233.476 239.215 234.652 238.772 235.653C238.372 236.612 237.84 237.439 236.997 238.441C235.844 239.791 233.582 241.882 232.074 242.796C231.009 243.449 230.122 243.754 229.102 243.972C228.126 244.234 226.84 244.32 225.997 244.234C225.42 244.19 224.976 244.059 224.533 243.841C224.134 243.58 223.735 243.275 223.469 242.839C223.158 242.273 222.936 241.359 223.025 240.705C223.158 240.009 223.602 239.225 224.134 238.79C224.666 238.397 225.953 237.831 226.263 238.136C226.706 238.571 225.731 242.796 224.311 243.624C222.492 244.669 217.525 242.622 215.263 242.143C213.932 241.882 213.267 241.795 212.069 241.315C210.428 240.705 208.121 239.094 206.48 238.528C205.327 238.136 204.529 238.267 203.331 237.875C201.557 237.222 199.516 235.566 197.165 234.739C194.327 233.781 190.29 233.346 187.23 232.866C184.702 232.518 182.572 232.518 180.133 232.126C177.471 231.69 173.435 231.212 171.883 230.297C171.129 229.861 170.73 229.339 170.508 228.729C170.286 228.119 170.286 227.248 170.508 226.639C170.73 226.029 171.395 225.419 171.927 225.114C172.37 224.853 172.992 224.548 173.302 224.766C173.967 225.245 174.056 230.166 173.347 230.646C172.947 230.907 171.883 230.253 171.395 229.905C170.996 229.6 170.73 229.165 170.597 228.729C170.419 228.293 170.33 227.814 170.419 227.336C170.552 226.769 170.907 225.941 171.395 225.506C171.927 225.07 172.992 224.504 173.391 224.766C174.1 225.245 174.411 229.6 173.258 230.646C171.794 231.951 167.314 230.166 163.544 230.122C158.177 230.036 148.108 231.255 144.072 230.646C142.165 230.341 139.991 229.121 139.947 229.208C139.902 229.295 141.499 229.992 141.455 230.079C141.455 230.122 141.011 230.079 140.745 229.992C140.301 229.817 139.415 229.295 139.059 228.773C138.749 228.25 138.527 227.379 138.66 226.769C138.749 226.16 139.148 225.375 139.681 224.983C140.168 224.592 141.011 224.156 141.632 224.331C142.431 224.548 143.451 226.16 143.805 227.074C144.072 227.814 144.116 228.685 143.894 229.208C143.717 229.644 143.273 229.948 142.874 230.166C142.475 230.384 141.942 230.514 141.499 230.514C141.055 230.514 140.568 230.471 140.124 230.21C139.591 229.905 138.971 229.251 138.704 228.685C138.483 228.25 138.438 227.771 138.483 227.336C138.527 226.9 138.749 226.029 138.971 226.029C139.415 225.985 141.721 229.556 141.144 230.253C140.035 231.646 127.349 227.466 122.204 225.941C118.611 224.853 115.018 223.982 113.156 222.501C111.913 221.587 111.204 220.236 110.893 219.322C110.672 218.712 110.672 218.19 110.849 217.667C111.026 217.101 111.559 216.36 112.046 216.012C112.446 215.707 112.89 215.577 113.333 215.533C113.821 215.446 114.309 215.533 114.752 215.707C115.151 215.838 115.595 216.143 115.906 216.491C116.172 216.796 116.571 217.188 116.527 217.71C116.438 218.582 114.487 220.802 113.688 221.282C113.289 221.499 112.978 221.543 112.579 221.412C112.046 221.282 111.248 220.716 110.938 220.193C110.583 219.627 110.406 218.799 110.539 218.19C110.627 217.58 111.071 216.839 111.603 216.448C112.091 216.012 113.289 215.533 113.555 215.794C113.998 216.229 113.156 220.062 112.179 220.672C111.337 221.151 110.228 220.367 108.587 219.888C104.418 218.582 93.284 213.224 87.2959 211.265C83.0821 209.914 79.8002 209.566 76.296 208.521C73.0133 207.519 69.9089 206.039 66.8483 205.211C64.0092 204.47 60.9486 204.602 58.5976 203.643C56.6465 202.86 55.0497 201.509 53.5859 200.421C52.4319 199.506 51.5893 198.373 50.5254 197.764C49.6382 197.241 48.7948 197.328 47.7746 196.806C46.2224 195.978 44.2712 193.887 42.3639 192.712C40.5449 191.623 38.7705 191.449 36.6863 189.968C33.2706 187.573 28.5686 181.65 24.8877 178.601C22.0485 176.206 18.456 174.333 16.77 172.809C15.9274 172.068 15.5284 171.633 15.0402 170.849C14.419 169.935 14.0646 169.063 13.4435 167.67C12.2457 165.1 9.6733 160.004 8.78611 156.39C7.98812 153.254 8.60852 149.857 7.81052 147.287C7.14474 145.154 5.81395 143.325 4.88296 141.887C4.17337 140.799 3.19699 140.145 2.79799 139.187C2.399 138.272 2.399 137.532 2.266 136.313C2 134.135 1.77781 130.259 1.8224 127.21C1.8224 124.162 1.64481 121.201 2.399 117.934C3.24159 114.014 5.90315 109.703 7.23393 105.435C8.56471 101.167 9.18511 96.8552 10.4713 92.3254C11.8467 87.3607 13.2659 81.7862 15.3508 76.7777C17.4796 71.7255 21.0283 66.3691 23.0687 62.0574C24.6655 58.878 25.5973 56.1341 26.9281 53.4778C28.1697 51.0389 29.4112 48.7743 30.742 46.6834C31.9398 44.8106 32.8716 43.5915 34.5122 41.4138C37.3513 37.6682 44.1374 28.1745 46.533 26.4761C47.2872 25.9529 47.7746 25.8661 48.3074 25.8223C48.751 25.8223 49.15 25.9099 49.549 26.1711C49.9926 26.4323 50.5692 26.9984 50.7468 27.5645C50.9689 28.0869 50.9244 28.915 50.7468 29.3935C50.6138 29.8291 50.3478 30.3952 49.9926 30.439C49.2384 30.4828 46.1778 27.1728 46.3554 26.4323C46.4884 25.9967 47.5532 25.7785 48.1298 25.8223C48.7064 25.8223 49.4606 26.1711 49.8596 26.4761C50.2148 26.7372 50.4362 27.129 50.5692 27.5207C50.7468 27.9133 50.7914 28.3488 50.7022 28.7406C50.6138 29.2629 50.2586 30.3522 49.815 30.3952C49.0616 30.4828 46.1778 27.2596 46.4 26.5628C46.4884 26.1711 47.5532 25.9529 48.1298 25.9529C48.751 25.9529 49.4606 26.2141 49.9042 26.6066C50.3478 26.9984 50.7022 27.6951 50.7468 28.2613C50.7914 28.8274 50.4808 29.6547 50.2586 30.0472C50.1256 30.2646 50.0818 30.439 49.8596 30.5258C49.1946 30.7002 46.4446 30.0903 45.6012 29.2192C44.8478 28.4356 44.581 26.9116 44.6256 25.8661C44.6256 25.0388 44.8916 24.0371 45.3798 23.514C45.7342 23.0785 46.4 22.8173 46.932 22.7735C47.4648 22.6867 48.1298 22.7735 48.618 23.0785C49.1946 23.471 49.9042 24.4727 49.9926 25.2124C50.0372 25.9529 49.549 27.0422 48.9724 27.4777C48.3512 27.9563 47.1542 28.1745 46.4446 27.9563C45.7342 27.7389 44.8916 26.8678 44.6702 26.1711C44.448 25.4744 44.7586 24.2983 45.1576 23.7322C45.5128 23.2528 46.0894 22.9049 46.6214 22.8173C47.331 22.6867 48.5288 22.8611 49.1054 23.4272C49.8596 24.1677 50.7468 26.824 50.2586 27.3471C49.815 27.8257 46.4 26.824 46.4 26.5628C46.3554 26.3885 48.0852 25.9099 48.7948 26.0405C49.3714 26.1273 49.9926 26.6066 50.3032 27.0852C50.6584 27.5645 50.8352 28.305 50.7468 28.915C50.6584 29.4811 50.3032 30.4828 49.8596 30.5258C49.1054 30.6134 46.1778 27.1728 46.3554 26.4323C46.4884 25.9967 47.5532 25.7785 48.1298 25.8223C48.7064 25.8223 49.4606 26.0405 49.8596 26.4761C50.3478 26.9546 50.7914 28.0869 50.7022 28.7406C50.6584 29.3505 50.2586 30.3522 49.815 30.3952C49.1054 30.439 46.4 27.1728 46.533 26.4761C46.6214 26.1273 47.2426 25.9967 47.6416 25.9099C48.2182 25.8223 49.017 25.8661 49.549 26.1711C50.0372 26.4323 50.5692 26.9984 50.7468 27.5645C50.9689 28.0869 51.0128 28.7836 50.7468 29.3935C50.3478 30.3084 49.1946 30.8308 48.0852 32.2242C45.6012 35.2293 40.0129 43.2865 37.1737 47.7726C35.1334 50.9951 33.6696 53.5646 32.2058 56.3953C30.9196 58.9655 30.2984 61.0119 28.8792 63.9732C26.7943 68.3725 22.7135 74.7744 20.5848 80.0002C18.722 84.6168 17.7902 88.8417 16.504 93.5452C15.0848 98.5536 14.0646 104.694 12.5117 109.18C11.3147 112.708 9.2743 115.19 8.56471 118.369C7.81052 121.549 8.03192 124.945 8.07652 128.255C8.12112 131.652 7.94352 136.618 8.91911 138.533C9.45111 139.579 10.3829 139.535 11.0487 140.406C12.0243 141.582 13.0891 143.891 13.6656 145.372C14.02 146.416 14.1976 147.026 14.3306 148.159C14.5082 149.77 13.8424 151.904 14.286 154.038C14.8188 156.825 17.2582 160.832 18.0562 163.271C18.5444 164.752 18.1454 165.71 18.988 166.973C20.4518 169.107 24.9315 170.849 28.0813 173.462C31.9398 176.728 37.2183 183.348 40.1905 185.308C41.6535 186.223 42.5407 186.048 43.783 186.702C45.2914 187.486 47.1096 188.748 48.4404 189.75C49.549 190.578 50.2586 191.58 51.3233 192.277C52.3435 192.929 53.4521 193.017 54.6061 193.714C56.1137 194.628 57.8435 196.719 59.3518 197.59C60.4604 198.199 61.2146 198.46 62.59 198.809C64.6304 199.419 68.3121 199.55 70.7515 200.29C72.8357 200.899 74.1226 201.901 76.429 202.641C79.8002 203.817 84.4129 204.427 89.2032 205.995C95.7234 208.085 107.611 213.007 111.603 214.836C113.111 215.533 114.22 215.577 114.62 216.491C115.107 217.624 113.865 221.195 113.289 221.543C113.067 221.673 112.845 221.543 112.579 221.412C112.136 221.238 111.293 220.672 110.938 220.193C110.627 219.801 110.539 219.322 110.494 218.887C110.45 218.451 110.494 217.928 110.716 217.536C111.026 217.014 111.647 216.36 112.179 216.055C112.623 215.838 113.51 215.707 113.555 215.794C113.599 215.924 111.293 217.275 111.337 217.275C111.337 217.275 113.555 215.663 113.643 215.794C113.776 215.924 111.204 219.148 110.849 219.06C110.672 218.973 110.76 218.102 110.849 217.667C110.982 217.231 111.204 216.796 111.514 216.448C111.825 216.143 112.179 215.838 112.668 215.663C113.244 215.489 114.131 215.446 114.752 215.707C115.329 215.924 115.994 216.665 116.305 217.057C116.438 217.275 116.615 217.58 116.527 217.71C116.482 217.797 116.039 217.71 116.039 217.797C116.039 218.015 117.458 218.625 118.833 219.104C122.293 220.324 133.914 222.501 137.729 223.677C139.458 224.243 140.435 224.287 141.455 225.114C142.564 226.029 144.027 228.337 143.894 229.208C143.805 229.687 143.273 229.948 142.874 230.166C142.475 230.384 141.942 230.514 141.499 230.514C141.055 230.514 140.523 230.427 140.124 230.21C139.724 229.992 139.325 229.731 139.059 229.295C138.749 228.816 138.483 227.945 138.483 227.336C138.527 226.856 138.882 226.029 138.971 226.029C139.059 226.029 138.66 227.336 138.926 227.902C139.281 228.685 141.543 229.948 141.455 230.079C141.41 230.21 139.991 229.731 139.548 229.295C139.059 228.86 138.66 228.119 138.616 227.466C138.571 226.812 138.837 225.985 139.192 225.506C139.458 225.07 139.858 224.809 140.257 224.592C140.656 224.417 141.055 224.331 141.632 224.331C142.785 224.287 144.471 224.94 146.644 225.07C150.592 225.245 158.664 224.2 163.544 224.2C167.226 224.243 171.794 223.285 173.258 224.766C174.411 225.941 173.967 230.166 173.347 230.646C173.08 230.863 172.37 230.514 171.971 230.297C171.572 230.079 171.173 229.774 170.907 229.339C170.597 228.86 170.33 227.988 170.419 227.336C170.508 226.682 170.907 225.941 171.395 225.506C171.927 225.07 172.992 224.504 173.391 224.766C174.1 225.245 174.012 230.166 173.302 230.646C172.859 230.907 171.794 230.341 171.306 229.905C170.818 229.47 170.419 228.685 170.33 228.032C170.242 227.379 170.463 226.551 170.863 226.029C171.217 225.506 171.838 225.07 172.593 224.853C173.701 224.548 175.431 224.897 176.984 225.158C178.758 225.506 180.488 226.421 182.705 226.856C185.722 227.422 190.379 227.379 193.484 227.902C195.924 228.293 197.343 228.598 199.915 229.426C204.085 230.776 210.783 234.521 215.751 236.046C219.876 237.309 226.307 236.524 227.505 238.441C228.392 239.834 226.795 243.798 225.997 244.234C225.598 244.495 224.976 244.102 224.533 243.841C224.001 243.493 223.38 242.796 223.158 242.143C222.936 241.49 223.025 240.575 223.247 239.965C223.424 239.486 223.735 239.094 224.134 238.79C224.666 238.441 226.219 238.049 226.263 238.136C226.263 238.18 224.311 239.138 224.356 239.138C224.356 239.225 228.17 238.005 229.723 236.917C231.231 235.871 232.428 232.692 233.449 232.692C234.203 232.692 235.311 234.783 235.356 234.739C235.401 234.695 233.759 232.736 233.005 231.473C232.074 229.992 230.965 227.684 230.3 226.246C229.811 225.245 229.412 224.592 229.146 223.677C228.924 222.806 228.437 221.761 228.791 220.977C229.235 219.931 231.674 218.277 232.651 218.363C233.316 218.451 233.892 219.278 234.158 219.844C234.469 220.454 234.469 221.368 234.291 221.978C234.203 222.458 233.892 222.849 233.538 223.198C233.227 223.502 232.827 223.807 232.295 223.938C231.719 224.069 230.433 224.243 230.167 223.807C229.678 223.067 231.63 218.363 232.473 218.19C232.961 218.102 233.671 219.148 233.981 219.714C234.203 220.149 234.247 220.629 234.247 221.107C234.203 221.543 234.114 222.065 233.804 222.458C233.449 222.936 232.739 223.546 232.118 223.764C231.497 223.938 230.21 224.069 229.989 223.634C229.545 222.936 231.763 218.363 232.561 218.19C232.961 218.058 233.405 218.668 233.715 219.06C233.981 219.409 234.203 219.888 234.291 220.367C234.38 220.802 234.336 221.325 234.203 221.761C234.07 222.197 233.804 222.675 233.449 222.98C233.138 223.329 232.651 223.59 232.207 223.721C231.763 223.851 231.32 223.895 230.787 223.807C229.901 223.677 228.215 223.285 227.46 222.501C226.751 221.717 226.263 220.106 226.352 219.148C226.396 218.451 226.928 217.754 227.372 217.362C227.771 217.014 228.215 216.839 228.703 216.753C229.146 216.622 229.678 216.665 230.122 216.796C230.566 216.883 231.054 217.144 231.364 217.492C231.719 217.797 231.985 218.233 232.162 218.668C232.295 219.104 232.473 219.627 232.295 220.062C232.029 220.672 230.388 221.892 230.3 221.804C230.21 221.717 231.807 219.06 231.985 219.148C232.118 219.191 231.985 220.629 231.674 221.195C231.364 221.761 230.61 222.327 230.034 222.545C229.545 222.719 229.102 222.763 228.614 222.675C227.993 222.545 227.327 222.37 226.751 221.63C225.109 219.67 222.626 210.176 222.138 206.909C221.916 205.385 221.561 204.036 222.183 203.382C222.803 202.729 225.997 202.946 226.13 203.251C226.219 203.469 225.598 204.036 225.154 204.297C224.622 204.558 223.779 204.819 223.114 204.689C222.492 204.602 221.694 204.122 221.295 203.687C220.94 203.338 220.807 203.077 220.674 202.424C220.364 200.726 221.605 196.326 221.739 192.755C221.872 188.444 221.162 182.869 221.118 178.296C221.073 174.202 220.719 168.977 221.428 166.668C221.739 165.536 222.138 164.926 222.803 164.404C223.469 163.837 224.71 163.402 225.42 163.445C225.908 163.489 226.352 163.75 226.662 164.099C227.106 164.534 227.55 165.405 227.638 165.972C227.726 166.45 227.593 166.973 227.417 167.365C227.239 167.801 226.928 168.236 226.573 168.541C226.219 168.802 225.731 169.063 225.287 169.15C224.843 169.238 224.089 169.455 223.868 169.107C223.38 168.453 224.622 163.576 225.376 163.271C225.731 163.097 226.307 163.619 226.662 163.924C226.973 164.229 227.284 164.665 227.417 165.1C227.593 165.536 227.683 166.015 227.593 166.494C227.46 167.104 226.973 167.931 226.529 168.323C226.174 168.672 225.731 168.889 225.242 168.977C224.8 169.063 224.045 169.238 223.823 168.933C223.336 168.323 224.533 163.619 225.287 163.358C225.775 163.184 226.662 164.099 227.017 164.577C227.327 164.97 227.46 165.448 227.505 165.884C227.55 166.363 227.505 166.842 227.327 167.277C227.061 167.844 226.44 168.541 225.864 168.845C225.287 169.107 224.311 169.412 223.735 169.02C222.803 168.453 221.872 165.405 221.872 163.968C221.872 162.923 222.626 162.357 222.892 161.267C223.247 159.569 223.469 157.523 223.557 154.822C223.69 150.206 222.582 140.972 222.715 136.313C222.759 133.482 223.557 131.914 223.38 129.475C223.114 126.513 221.472 123.335 220.896 119.894C220.275 115.887 220.585 110.748 220.098 106.872C219.699 103.693 219.432 100.6 218.456 98.2925C217.702 96.4627 216.15 95.1998 215.307 93.8064C214.642 92.6741 213.444 91.4543 213.711 90.4964C214.065 89.4079 217.747 87.7095 218.057 87.9706C218.235 88.145 217.569 89.4509 217.17 89.8864C216.86 90.279 216.371 90.4964 215.928 90.627C215.484 90.7575 214.997 90.8451 214.509 90.7145C213.887 90.5832 213.089 90.1484 212.646 89.6253C212.247 89.1467 211.714 88.0137 212.025 87.6219C212.513 87.012 217.614 87.4913 218.057 88.2756C218.323 88.7112 217.658 89.7128 217.17 90.1914C216.727 90.627 215.884 91.0187 215.218 91.0625C214.553 91.1063 213.711 90.8451 213.178 90.4526C212.646 90.017 212.247 89.2335 212.069 88.6674C211.936 88.145 211.803 87.4045 212.114 87.1863C212.69 86.7946 217.436 88.7112 217.525 89.3641C217.614 89.6691 216.904 90.1046 216.461 90.279C215.884 90.5402 214.952 90.627 214.331 90.5402C213.844 90.4096 213.4 90.1914 213.045 89.8434C212.646 89.4079 212.202 88.5806 212.069 87.9706C211.981 87.4913 212.158 86.969 212.247 86.5772C212.335 86.3152 212.335 86.0979 212.601 85.9673C213.311 85.5317 217.17 85.3136 217.968 86.0103C218.456 86.4458 218.412 87.4475 218.279 88.1012C218.146 88.7112 217.658 89.4509 217.126 89.8434C216.594 90.2352 215.662 90.4096 215.041 90.4096C214.553 90.3658 214.065 90.1914 213.711 89.9302C213.311 89.6691 212.646 89.2773 212.734 88.8848C212.867 88.1012 217.259 85.7929 218.057 86.1847C218.501 86.4028 218.501 87.6219 218.323 88.2756C218.19 88.8848 217.702 89.6253 217.17 90.017C216.638 90.4096 215.795 90.627 215.13 90.5402C214.464 90.4964 213.578 89.974 213.178 89.6253C212.956 89.4509 212.734 89.1029 212.779 89.0591C212.867 88.9723 214.598 90.1484 214.731 89.9302C215.085 89.5385 211.137 85.3574 209.319 82.3961C206.968 78.5199 204.484 72.0743 202.089 68.5899C200.448 66.1947 198.408 63.7996 197.165 63.0153C196.633 62.6673 196.19 62.8409 195.791 62.6235C195.391 62.3624 195.037 62.0136 194.771 61.6219C194.548 61.2301 194.371 60.7508 194.327 60.3152C194.282 59.8359 194.371 59.3135 194.593 58.9218C194.771 58.4862 195.037 58.0944 195.436 57.7895C195.924 57.4407 197.077 56.8308 197.431 57.1358C198.097 57.6589 197.698 62.6673 197.032 63.1029C196.678 63.3203 196.057 62.9723 195.658 62.7103C195.17 62.3624 194.548 61.6656 194.327 61.0995C194.149 60.6202 194.149 60.1408 194.238 59.7053C194.282 59.2267 194.504 58.7474 194.814 58.3986C195.08 58.0507 195.48 57.7019 195.924 57.5283C196.323 57.3539 197.255 57.1796 197.298 57.2664C197.343 57.3969 194.726 58.878 194.681 58.7912C194.638 58.7474 195.569 57.6151 196.19 57.3539C196.811 57.0928 197.698 57.049 198.319 57.2664C198.94 57.4407 199.605 58.0507 199.96 58.53C200.226 58.9655 200.359 59.4441 200.359 59.8797C200.404 60.359 200.448 61.0995 200.093 61.2731C199.339 61.6656 194.681 59.6185 194.46 59.0086C194.415 58.7912 194.638 58.6168 194.859 58.3986C195.214 58.0507 196.012 57.4407 196.678 57.3539C197.298 57.2233 198.186 57.3969 198.762 57.7457C199.295 58.0944 199.827 58.7912 200.048 59.4003C200.226 60.0102 200.315 61.2301 199.872 61.4475C199.162 61.883 194.726 59.6623 194.548 58.9218C194.46 58.53 195.037 58.0944 195.436 57.7895C195.968 57.4845 196.811 57.1796 197.476 57.2233C198.141 57.2664 198.94 57.7019 199.383 58.0944C199.739 58.4424 199.96 58.878 200.093 59.3135C200.226 59.7491 200.226 60.3152 200.182 60.707C200.138 60.9689 200.005 61.3607 199.96 61.3607C199.827 61.3607 199.739 59.3573 199.694 59.3573C199.694 59.3573 199.96 60.8376 199.782 61.4475C199.649 61.883 199.339 62.2748 199.028 62.6235C198.674 62.9285 198.23 63.1897 197.787 63.3203C197.343 63.4071 196.811 63.4508 196.367 63.3641C195.924 63.2765 195.613 63.1459 195.08 62.7541C193.661 61.7524 189.581 58.3118 188.517 56.2647C187.806 54.8712 187.407 53.0422 187.851 52.1711C188.25 51.4744 189.492 50.9951 190.29 50.9521C190.956 50.9083 191.71 51.3 192.197 51.7356C192.686 52.1711 193.085 52.9116 193.129 53.5646C193.174 54.2183 192.907 55.0456 192.553 55.5249C192.287 55.9605 191.887 56.2217 191.488 56.439C191.089 56.6134 190.157 56.8308 190.113 56.744C190.024 56.5266 192.553 54.5233 192.686 54.6538C192.774 54.7406 192.021 56.0035 191.577 56.3523C191.177 56.7002 190.734 56.8308 190.29 56.9184C189.803 56.9622 189.315 56.9622 188.871 56.7878C188.294 56.5696 187.585 56.0035 187.274 55.4812C187.008 55.0894 186.875 54.6101 186.875 54.1745C186.875 53.7827 186.875 53.3472 187.23 53.086C187.94 52.4761 191.843 51.8662 192.641 52.3885C193.04 52.6067 192.996 53.2166 192.996 53.6952C192.996 54.3051 192.641 55.1324 192.287 55.6117C192.021 56.0035 191.621 56.2647 191.177 56.439C190.601 56.6134 190.024 56.744 189.093 56.4828C186.565 55.7423 179.867 49.5148 176.23 47.7288C173.923 46.5966 171.883 46.466 170.109 45.7255C168.689 45.1155 167.58 44.4188 166.471 43.7659C165.451 43.156 164.431 42.7642 163.765 41.9799C163.1 41.1526 162.213 39.8021 162.479 38.9748C162.834 37.9301 165.629 36.4929 166.56 36.4929C167.093 36.5359 167.447 36.9715 167.713 37.3202C168.024 37.6682 168.29 38.0607 168.379 38.5831C168.512 39.1492 168.423 40.0641 168.113 40.6302C167.802 41.1964 167.136 41.7625 166.516 42.0237C165.895 42.2411 164.697 42.4154 164.386 41.9799C163.943 41.327 165.762 36.7541 166.604 36.5797C167.093 36.4491 167.846 37.4508 168.157 37.9732C168.423 38.4087 168.512 38.888 168.512 39.3666C168.512 39.8021 168.423 40.2815 168.157 40.717C167.846 41.2394 167.181 41.8493 166.56 42.1105C165.939 42.3286 165.008 42.4592 164.431 42.0675C163.588 41.5443 162.524 38.3219 162.79 38.1475C163.1 37.9301 166.87 41.1088 166.693 41.5881C166.516 41.9799 164.519 41.9799 163.278 41.4138C160.927 40.3253 155.914 35.3599 155.16 32.573C154.628 30.6564 155.604 27.4777 156.358 27.0852C156.713 26.8678 157.29 27.2596 157.689 27.4777C158.088 27.6951 158.443 28.0869 158.664 28.4356C158.931 28.8274 159.108 29.2629 159.108 29.7423C159.108 30.3522 158.798 31.2225 158.488 31.7019C158.221 32.0936 157.778 32.3548 157.378 32.5292C156.979 32.7035 156.27 33.0523 156.004 32.7903C155.427 32.268 155.781 27.3902 156.536 26.9546C156.935 26.7372 157.955 27.3471 158.398 27.8257C158.842 28.2613 159.197 29.0886 159.241 29.6547C159.33 30.134 159.197 30.6134 159.02 31.0051C158.798 31.3969 158.531 31.8325 158.132 32.0936C157.644 32.3986 156.225 32.7903 156.18 32.7035C156.092 32.573 158.531 31.6581 158.798 30.8308C159.064 29.9597 157.334 27.5645 157.467 27.4777C157.6 27.3902 158.621 28.4356 158.798 29.0018C159.02 29.6117 159.02 30.439 158.798 31.0489C158.531 31.6151 157.911 32.2242 157.378 32.5292C156.935 32.7903 156.447 32.8341 156.004 32.8341C155.56 32.8341 154.806 32.8341 154.673 32.4862C154.362 31.7457 156.802 27.3471 157.644 27.2596C158.132 27.2158 158.798 28.2175 158.975 28.7836C159.197 29.3935 159.197 30.2208 158.975 30.8308C158.709 31.3969 158.088 32.0068 157.556 32.3118C157.157 32.573 156.669 32.6168 156.18 32.6168C155.738 32.6168 155.027 32.6168 154.85 32.268C154.54 31.5713 156.713 27.3902 157.511 27.3034C157.999 27.2596 158.621 28.2613 158.842 28.8274C159.064 29.4373 158.975 30.3084 158.798 30.8746C158.664 31.3101 158.355 31.7019 157.999 31.963C157.644 32.268 157.245 32.5292 156.758 32.573C156.18 32.6598 154.894 32.7473 154.717 32.3118C154.362 31.5713 156.713 27.4777 157.556 27.3902C158.044 27.3471 158.664 28.4356 158.887 28.958C159.064 29.3935 159.108 29.8291 159.02 30.3084C158.887 30.8746 158.531 31.6581 158.044 32.0936C157.556 32.4862 156.669 32.7473 156.092 32.7903C155.604 32.7903 154.894 32.7473 154.717 32.3986C154.407 31.7019 156.802 27.3471 157.644 27.2596C158.132 27.2158 158.754 28.2175 158.975 28.8274C159.197 29.3935 159.108 30.3084 158.931 30.8308C158.754 31.3101 158.488 31.6581 158.132 31.963C157.644 32.3118 157.068 32.7035 156.18 32.6168C153.963 32.4862 148.507 29.2629 145.003 26.9984C141.41 24.6463 136.087 21.2932 134.846 18.6799C134.136 17.1121 134.357 14.9782 134.979 14.2377C135.378 13.7153 136.309 13.5847 136.931 13.6277C137.596 13.6715 138.394 14.1071 138.837 14.4988C139.192 14.8476 139.415 15.2393 139.548 15.6749C139.681 16.2848 139.591 17.1989 139.37 17.7221C139.192 18.1576 138.882 18.5056 138.527 18.8105C138.084 19.1155 137.152 19.7254 136.841 19.5073C136.22 19.1155 136.487 14.2814 137.064 13.9765C137.463 13.8021 138.394 14.6732 138.749 15.1956C139.104 15.7187 139.281 16.546 139.192 17.1989C139.104 17.8088 138.66 18.5494 138.172 18.9411C137.64 19.3767 136.708 19.5948 136.176 19.6378C135.91 19.6378 135.644 19.7254 135.511 19.5073C135.112 18.9411 136.354 14.0633 137.152 13.8021C137.596 13.6715 138.483 14.5426 138.793 15.022C139.104 15.4137 139.237 15.8931 139.281 16.3286C139.325 16.7634 139.281 17.2427 139.059 17.6783C138.793 18.2006 138.217 18.8981 137.64 19.1593C137.064 19.4205 135.866 19.7254 135.555 19.3337C135.067 18.7237 136.575 14.2377 137.285 13.9765C137.684 13.8021 138.172 14.3252 138.527 14.6294C138.837 14.9344 139.148 15.3269 139.281 15.8055C139.458 16.3716 139.458 17.2427 139.192 17.8526C138.971 18.4188 138.35 19.0287 137.773 19.3337C137.197 19.5948 136.043 19.856 135.733 19.5073C135.2 18.8543 136.841 14.0633 137.463 13.7583C137.684 13.6715 137.906 13.8459 138.128 14.0203C138.527 14.3252 139.237 14.9782 139.458 15.5881C139.681 16.1972 139.636 17.0253 139.37 17.6345C139.148 18.2006 138.527 18.8105 137.951 19.1155C137.374 19.3767 136.22 19.6378 135.91 19.2899C135.378 18.6799 136.575 14.1071 137.33 13.8459C137.773 13.6715 138.66 14.4988 138.971 15.065C139.325 15.5881 139.503 16.4154 139.415 17.0253C139.325 17.6783 138.882 18.4188 138.394 18.8105C137.906 19.2023 136.931 19.4205 136.442 19.4642C136.132 19.5073 135.999 19.551 135.733 19.3767C135.2 18.9849 134.003 16.1542 133.87 16.1972C133.825 16.241 135.2 18.5494 134.89 18.8543C134.136 19.4642 126.418 14.412 123.002 12.3649C120.341 10.7533 117.014 9.66477 115.994 7.70519C115.196 6.09358 115.595 2.52239 116.349 2.00004C116.793 1.69508 117.813 2.13063 118.345 2.4786C118.877 2.82735 119.365 3.48028 119.498 4.134C119.631 4.87451 119.321 6.13737 118.877 6.70351C118.434 7.22585 117.458 7.87957 117.059 7.6614C116.349 7.26964 115.95 2.52239 116.527 1.95625C116.793 1.69508 117.458 2.00004 117.901 2.13063C118.3 2.305 118.744 2.56618 119.055 2.91415C119.365 3.21911 119.587 3.69845 119.676 4.134C119.809 4.52576 119.809 5.0481 119.676 5.48365C119.587 5.9192 119.41 6.35475 119.055 6.70351C118.656 7.09527 117.724 7.61761 117.236 7.61761C116.881 7.6614 116.305 7.44402 116.305 7.22585C116.216 6.7903 119.055 5.57123 118.922 5.0051C118.789 4.30837 114.043 4.39517 113.821 3.74146C113.688 3.30669 114.62 2.4786 115.151 2.21742C115.728 1.91246 116.571 1.78187 117.192 1.95625C117.813 2.08684 118.567 2.52239 118.922 3.04473C119.321 3.69845 119.631 4.96131 119.277 5.70182C118.789 6.57292 117.059 7.26964 115.683 7.61761C113.998 8.01015 111.47 7.7482 109.829 7.53082C108.675 7.40023 107.877 6.96468 106.857 6.87788C105.792 6.7903 104.107 7.61761 103.53 7.05148C102.865 6.35475 103.53 2.65297 103.974 2.17363C104.152 2.00004 104.373 2.08684 104.639 2.13063C105.038 2.17363 105.925 2.43559 106.325 2.82735C106.769 3.21911 107.035 3.95962 107.123 4.48197C107.212 4.87451 107.123 5.31006 106.945 5.65803C106.679 6.13737 106.369 6.65972 105.659 7.00847C103.974 7.79199 99.2721 7.61761 95.9456 8.14074C92.3968 8.66309 87.4735 10.2309 85.0341 10.1441C83.8363 10.1003 82.8607 9.88294 82.2841 9.44739C81.8405 9.18543 81.6629 8.70688 81.5299 8.31512C81.3523 7.87957 81.3077 7.35644 81.3969 6.92089C81.4407 6.48534 81.6183 6.00678 81.9289 5.65803C82.2841 5.22248 83.0375 4.70013 83.6587 4.52576C84.2799 4.39517 85.2117 4.56955 85.6991 4.83072C86.1427 5.0481 86.4979 5.31006 86.6309 5.78862C86.9415 6.74651 86.6747 9.44739 85.9213 10.6227C85.2555 11.6244 84.3683 11.8863 82.6831 12.7136C78.0258 14.8914 58.5531 23.3404 54.7829 21.4676C53.0977 20.6395 52.4765 17.0683 52.9201 16.2848C53.1861 15.8055 54.2955 15.7187 54.9159 15.8493C55.6701 16.0236 56.6903 16.7634 57.0901 17.4171C57.3999 17.9832 57.4445 18.8105 57.2669 19.4205C57.0901 20.0304 56.5573 21.0321 56.0699 21.0321C55.2711 20.9883 52.6987 17.0253 53.0093 16.2848C53.1861 15.8493 54.3393 15.7187 55.0051 15.8493C55.7593 16.0236 56.7795 16.7634 57.1785 17.4171C57.4891 17.9832 57.5775 18.8105 57.3561 19.4205C57.1339 20.0734 56.5127 20.9883 55.8031 21.1189C54.7391 21.2495 51.6339 19.551 51.3679 18.5932C51.1903 17.9394 52.0775 16.7634 52.7425 16.3286C53.4083 15.9361 54.6945 15.8931 55.4041 16.1542C56.0253 16.3716 56.6019 17.0683 56.8679 17.5477C57.0901 17.9832 57.1339 18.8981 57.1339 18.8981C57.1339 18.8981 57.0455 18.2882 57.0009 18.2882C56.7795 18.2882 56.6019 21.0321 55.7593 22.6429C54.4285 25.1256 51.1019 28.5662 48.485 31.0919C46.001 33.4441 41.9641 34.9681 40.5003 37.3202C39.3471 39.1492 39.4801 41.5013 39.2587 43.3733C39.0365 44.9419 38.9927 46.3354 39.0811 47.8156C39.1257 49.3835 39.7023 51.4744 39.5693 52.4761C39.5247 52.9984 39.3917 53.2596 39.1703 53.6084C38.8151 54.0001 38.1501 54.4357 37.6619 54.5663C37.2629 54.6968 36.8193 54.6538 36.4641 54.5663C36.0651 54.4795 35.71 54.3051 35.3994 54.0001C35.045 53.6522 34.5568 52.4761 34.5568 52.4761Z" fill="white"/>
</mask>
<g mask="url(#mask2_105_63)">
<path d="M0.0488281 0.213623H241.532V246.018H0.0488281V0.213623Z" fill="#FC5200"/>
</g>
</g>
</g>
</svg>
