<svg width="417" height="424" viewBox="0 0 417 424" fill="none" xmlns="http://www.w3.org/2000/svg">
<mask id="mask0_114_8" style="mask-type:luminance" maskUnits="userSpaceOnUse" x="0" y="0" width="417" height="424">
<path d="M416.334 0H0V423.962H416.334V0Z" fill="white"/>
</mask>
<g mask="url(#mask0_114_8)">
<mask id="mask1_114_8" style="mask-type:luminance" maskUnits="userSpaceOnUse" x="2" y="2" width="412" height="420">
<path d="M2.81104 2.75964H413.168V421.202H2.81104V2.75964Z" fill="white"/>
</mask>
<g mask="url(#mask1_114_8)">
<mask id="mask2_114_8" style="mask-type:luminance" maskUnits="userSpaceOnUse" x="3" y="2" width="410" height="420">
<path d="M59.5508 90.4296C58.7109 75.4937 58.7864 73.5425 59.2448 70.7666C59.8569 67.2388 60.2384 62.8108 62.5317 59.058C65.6663 54.1045 73.6153 50.1266 78.3542 44.9481C83.0931 39.7696 87.2982 30.089 90.8898 28.1378C92.5724 27.2363 94.3304 27.5368 95.4764 27.8373C96.3177 28.0623 96.9284 28.5878 97.3868 29.2629C97.9989 30.089 98.8401 32.2652 98.4572 32.5657C97.8465 33.0158 91.0435 28.887 91.1958 28.0623C91.2727 27.5368 93.6415 27.1608 94.7888 27.3117C95.8593 27.5368 97.1576 28.2119 97.8465 29.0379C98.5341 29.8639 99.1448 31.2142 98.9925 32.3393C98.9156 33.6154 97.6928 36.2431 96.776 36.2431C95.324 36.3172 90.5851 29.2629 91.1958 28.0623C91.6542 27.2363 94.5596 27.2363 95.7824 27.6122C96.8529 27.9868 97.922 29.0379 98.3818 30.0135C98.8401 30.9891 98.9925 32.4148 98.6864 33.4659C98.3818 34.5169 97.2344 36.3172 96.6237 36.2431C95.5532 36.0181 93.0307 29.1134 93.9475 27.2363C94.5596 25.8861 96.3177 25.9602 98.6864 25.1355C104.725 22.8838 123.911 18.3049 131.631 15.4536C135.912 13.877 139.886 10.1255 141.492 10.9501C142.715 11.5511 142.792 16.3537 142.409 16.5046C142.103 16.6542 140.804 15.1531 140.498 14.3284C140.115 13.5778 140.04 12.7518 140.269 11.9258C140.421 10.9501 141.263 9.59993 142.027 8.84937C142.638 8.32383 143.402 8.02334 144.167 7.7983C144.931 7.64872 145.848 7.72284 146.612 7.87376C147.377 8.0988 148.753 8.92348 148.676 9.0744C148.676 9.22398 144.244 8.24837 144.244 7.87376C144.32 6.67312 174.972 2.92028 180.321 3.67085C181.85 3.89588 182.538 4.19638 183.227 4.87149C183.991 5.54659 184.525 6.74723 184.602 7.72284C184.679 8.69844 184.296 9.89908 183.761 10.7251C183.15 11.4757 181.469 12.6763 181.009 12.3758C180.398 11.9258 180.78 6.14759 182.692 4.49553C185.214 2.31928 193.927 2.92028 197.75 3.51992C200.348 3.89588 204.017 5.39702 203.941 5.92255C203.864 6.44674 196.527 7.12319 196.144 6.44674C195.915 5.92255 197.52 4.27049 198.514 3.82042C199.431 3.29489 200.883 3.06985 201.953 3.37035C203.024 3.59538 204.323 4.34595 204.934 5.32156C205.622 6.37262 206.311 9.14986 205.546 9.82497C204.399 10.7251 196.45 8.62433 196.221 7.34823C195.915 6.29716 199.431 3.82042 200.807 3.37035C201.647 3.14531 202.412 3.44581 203.176 3.67085C203.864 3.97134 204.628 4.34595 205.163 5.02106C205.775 5.77163 206.386 7.27277 206.386 8.24837C206.463 9.0744 206.234 9.89908 205.852 10.5755C205.469 11.2506 204.934 11.8516 204.247 12.3017C203.634 12.7518 202.641 13.5024 202.03 13.1264C200.807 12.4513 199.431 4.34595 200.501 3.44581C201.112 2.92028 203.024 3.59538 203.941 4.27049C204.934 5.09652 206.005 7.04773 206.081 8.32383C206.157 9.44901 205.546 10.7251 204.857 11.5511C204.094 12.3758 202.106 13.5778 201.724 13.2019C201.037 12.6022 202.565 5.2461 204.553 4.57099C207.151 3.67085 212.808 10.1996 217.47 12.9768C222.592 15.9791 230.388 18.6809 234.286 21.9082C236.962 24.009 239.866 28.662 239.943 28.5878C240.018 28.5878 236.427 24.0844 236.656 23.8594C236.808 23.7085 238.185 24.3849 238.72 24.9846C239.408 25.7351 240.172 27.0867 240.324 28.2119C240.401 29.2629 240.018 30.6886 239.331 31.5901C238.643 32.4148 237.344 33.1654 236.35 33.4659C235.509 33.6909 234.286 33.9159 233.904 33.3904C233.14 32.2652 235.586 24.234 236.885 23.7085C237.573 23.4834 238.414 24.3095 239.025 24.9105C239.714 25.5856 240.478 26.9358 240.554 28.0623C240.631 29.1134 240.249 30.5391 239.56 31.4392C238.949 32.2652 237.573 33.0158 236.579 33.3163C235.738 33.5413 234.592 33.7664 234.21 33.2408C233.369 32.1898 235.356 24.5345 236.579 24.0844C237.42 23.7839 238.872 25.2096 239.485 26.1852C240.095 27.0867 240.324 28.5878 240.249 29.5634C240.172 30.3881 239.789 31.1387 239.331 31.7397C238.796 32.4148 238.185 32.9403 237.42 33.3163C236.502 33.6909 234.44 34.2164 233.904 33.6154C232.911 32.4903 235.127 24.3095 236.35 23.7839C236.962 23.5589 237.879 24.459 238.414 24.9846C239.025 25.5101 239.485 26.1852 239.714 26.9358C240.018 27.9114 240.018 29.488 239.637 30.4636C239.178 31.5147 238.185 32.5657 237.191 33.0158C236.198 33.4659 234.134 33.9914 233.598 33.3163C232.682 32.2652 234.975 24.61 236.198 24.0844C236.808 23.8594 237.726 24.7595 238.337 25.2851C238.872 25.8106 239.408 26.4857 239.637 27.2363C239.943 28.2119 239.943 29.7885 239.485 30.7641C239.102 31.8152 238.031 32.8649 237.038 33.3163C236.044 33.7664 234.134 34.2919 233.521 33.6154C232.375 32.5657 235.279 24.9105 234.44 24.0844C234.057 23.7839 232.605 24.5345 232.605 24.5345C232.528 24.459 233.98 23.7085 234.821 23.5589C235.586 23.4093 236.427 23.4834 237.191 23.7085C237.956 24.009 238.72 24.459 239.254 24.9846C239.789 25.5856 240.249 26.2607 240.478 27.0112C240.707 28.0623 240.554 29.6376 240.172 30.5391C239.866 31.2896 238.949 32.4903 238.72 32.4148C238.26 32.1898 238.185 26.2607 239.485 25.8106C241.776 24.9105 250.033 34.8161 255.612 38.5689C261.04 42.0967 270.059 45.099 272.582 47.6499C273.728 48.7764 274.11 49.752 274.186 50.8031C274.34 51.9282 273.957 53.2798 273.269 54.1799C272.657 55.0801 271.434 55.9061 270.288 56.1312C269.218 56.3562 267.154 56.3562 266.772 55.6056C266.16 54.405 270.136 47.3507 271.511 47.1998C272.352 47.1257 273.421 49.0014 273.804 49.9016C274.11 50.6521 274.11 51.4782 274.034 52.2287C273.957 52.9793 273.652 53.804 273.117 54.405C272.505 55.231 271.282 56.1312 270.211 56.3562C269.065 56.5812 267.078 56.5812 266.62 55.8307C266.008 54.63 270.059 47.2753 271.434 47.0502C272.046 46.8993 272.734 48.0258 273.192 48.6255C273.652 49.3019 273.957 50.0525 274.034 50.8772C274.034 51.8528 273.728 53.3539 273.117 54.2554C272.428 55.0801 271.205 55.9061 270.136 56.1312C269.065 56.3562 266.924 56.4317 266.62 55.6811C266.008 54.405 270.517 47.1998 271.663 46.9748C272.046 46.8993 272.352 47.2753 272.657 47.6499C273.192 48.3263 274.186 49.6765 274.263 50.8031C274.34 51.8528 273.957 53.2798 273.346 54.1799C272.657 55.006 271.434 55.8307 270.365 56.0557C269.295 56.3562 267.231 56.3562 266.849 55.6056C266.237 54.405 270.059 47.5757 271.359 47.3507C272.046 47.1998 272.734 48.3263 273.117 48.926C273.575 49.6011 273.881 50.3516 273.957 51.1777C273.957 52.1533 273.652 53.6544 273.04 54.5546C272.352 55.3806 271.13 56.2066 270.059 56.4317C268.989 56.7321 267.383 56.7321 266.543 55.9816C265.472 55.006 264.556 51.7787 265.091 50.2021C265.625 48.6255 268.301 46.6743 269.753 46.4492C270.823 46.2996 272.199 47.2753 272.963 47.9504C273.575 48.4759 274.034 49.151 274.186 49.9016C274.492 50.8772 274.34 52.4538 274.034 53.4294C273.728 54.1799 273.192 54.8551 272.505 55.3051C271.663 55.8307 269.83 56.8063 269.141 56.3562C267.995 55.456 268.301 47.3507 269.447 46.6743C270.136 46.2242 271.894 47.2753 272.657 48.1013C273.498 48.8518 274.034 50.2775 274.186 51.2531C274.263 52.0778 274.034 52.9038 273.728 53.579C273.421 54.2554 272.963 55.006 272.275 55.456C271.434 56.0557 269.371 56.9572 268.836 56.5058C267.995 55.6811 269.447 47.6499 271.282 47.1257C274.11 46.3751 287.946 61.6102 287.181 63.4105C286.875 64.161 282.595 62.9604 282.442 63.5614C282.136 64.3119 289.627 69.5646 290.162 69.1145C290.62 68.7399 286.798 63.2609 287.104 63.0358C287.257 62.8863 289.244 64.4615 289.779 65.4371C290.314 66.4127 290.391 67.9893 290.238 69.0404C290.085 69.8651 289.704 70.5415 289.015 71.1412C288.327 71.8917 286.798 72.6423 285.805 72.7919C284.963 72.9428 283.665 73.0924 283.359 72.4927C282.595 71.2908 285.576 63.2609 287.028 62.8863C287.869 62.7353 289.244 64.4615 289.779 65.2876C290.162 66.0381 290.314 66.8628 290.314 67.6888C290.314 68.4394 290.162 69.3395 289.704 70.016C289.168 70.9161 288.021 71.9672 286.952 72.4173C285.882 72.7919 283.359 72.7178 283.282 72.3418C283.13 71.8917 287.41 68.9649 290.238 68.589C294.06 67.9893 300.175 69.9405 304.302 71.5171C307.972 72.9428 310.341 74.8186 314.01 77.2198C319.131 80.5981 329.908 86.9018 331.973 90.2787C332.737 91.5548 332.737 92.6813 332.431 93.731C332.202 94.7821 331.285 96.0582 330.52 96.6592C329.833 97.1834 329.068 97.4839 328.227 97.5593C327.463 97.6348 326.623 97.6348 325.858 97.3343C324.865 96.9583 322.953 95.6081 323.107 95.0826C323.411 94.1824 331.514 93.2809 332.049 94.1824C332.355 94.708 330.903 96.5082 330.139 97.1092C329.45 97.7089 328.762 98.0094 327.921 98.0848C326.852 98.1603 325.323 97.9339 324.405 97.3343C323.411 96.8087 322.572 95.4572 322.189 94.557C321.959 93.731 321.73 92.9818 322.113 92.1558C322.801 90.7301 326.163 88.0283 327.921 87.8033C329.145 87.6523 330.444 88.4784 331.208 89.1535C331.897 89.679 332.279 90.4296 332.508 91.1047C332.814 91.8553 332.966 92.6813 332.737 93.506C332.585 94.4816 331.897 95.9086 330.979 96.5837C330.139 97.2588 328.075 98.1603 327.616 97.7843C326.928 97.1092 328.304 90.5792 329.985 89.9795C331.973 89.3785 337.324 94.708 339.846 97.0338C341.681 98.8354 343.514 100.636 344.127 102.288C344.662 103.488 344.585 104.839 344.279 105.89C344.05 106.64 343.514 107.315 342.979 107.916C342.368 108.442 341.604 108.892 340.84 109.117C340.075 109.267 339.158 109.342 338.394 109.192C337.63 109.042 336.788 108.591 336.176 108.141C335.565 107.616 334.953 107.016 334.724 106.19C334.343 104.99 334.495 102.813 335.03 101.613C335.642 100.486 336.865 99.5105 337.859 98.985C338.623 98.6104 339.463 98.5349 340.304 98.6104C341.069 98.6845 341.91 98.8354 342.675 99.3609C343.514 99.9606 344.508 101.237 344.814 102.212C345.12 102.963 345.043 103.938 344.968 104.614C344.891 105.065 344.968 105.589 344.585 105.74C343.514 106.266 335.336 103.038 335.107 101.687C334.953 100.862 336.711 99.586 337.705 99.1359C338.776 98.76 340.304 98.6845 341.375 98.985C342.445 99.3609 343.591 100.411 344.203 101.237C344.662 101.912 344.891 102.813 344.891 103.564C344.968 104.314 345.043 105.665 344.433 105.89C343.21 106.491 335.795 102.662 335.489 101.312C335.336 100.636 336.407 99.8865 337.017 99.4351C337.63 98.985 338.469 98.6104 339.311 98.4595C340.075 98.3099 340.992 98.3853 341.756 98.6845C342.521 98.9095 343.285 99.3609 343.821 99.9606C344.356 100.486 344.814 101.237 345.043 101.987C345.273 102.738 345.273 103.789 345.197 104.464C345.12 104.914 345.12 105.139 344.814 105.589C344.05 106.491 340.992 108.591 339.54 108.742C338.623 108.892 337.859 108.517 337.171 108.066C336.33 107.466 335.259 106.34 334.878 105.29C334.495 104.239 334.572 102.738 335.03 101.687C335.489 100.636 336.711 99.586 337.63 99.1359C338.394 98.76 339.463 98.2344 339.998 98.6845C341.069 99.5105 340.992 107.841 339.769 108.591C339.082 109.042 337.247 107.916 336.407 107.166C335.642 106.34 335.03 104.914 334.878 103.938C334.801 103.038 334.953 102.212 335.336 101.537C335.642 100.787 336.101 100.112 336.788 99.586C337.63 98.985 339.005 98.3853 340.228 98.4595C341.681 98.5349 343.21 99.4351 344.814 100.486C347.107 101.987 349.478 104.239 352.076 107.315C356.279 112.42 362.013 122.1 366.14 129.381C369.962 136.21 375.466 145.592 376.23 149.645C376.536 151.296 376.382 152.271 375.848 153.247C375.313 154.223 374.243 155.274 373.172 155.724C372.102 156.098 370.574 156.174 369.504 155.799C368.356 155.423 366.598 154.372 366.675 153.472C366.752 151.971 374.32 147.694 375.618 148.218C376.23 148.444 376.23 149.795 376.307 150.545C376.307 151.371 376.153 152.196 375.772 152.946C375.236 153.848 374.089 154.973 373.02 155.423C372.026 155.873 370.421 155.873 369.35 155.499C368.281 155.123 366.369 153.547 366.598 153.171C366.828 152.572 374.624 153.247 374.853 153.998C375.007 154.372 373.784 155.274 373.02 155.574C372.026 156.024 370.421 156.174 369.35 156.024C368.51 155.799 367.746 155.349 367.134 154.824C366.523 154.298 366.063 153.547 365.758 152.797C365.452 152.046 365.376 151.146 365.452 150.396C365.605 149.645 365.682 148.444 366.369 148.144C367.821 147.543 375.084 150.47 375.772 152.122C376.153 153.097 375.084 154.598 374.243 155.423C373.478 156.174 371.949 156.775 370.879 156.924C370.039 157 369.198 156.849 368.433 156.474C367.517 156.024 366.294 154.824 365.834 153.922C365.376 153.171 364.917 152.046 365.376 151.521C366.294 150.47 375.007 150.396 375.772 151.596C376.23 152.271 374.93 154.147 374.243 154.898C373.707 155.574 372.943 155.949 372.102 156.174C371.108 156.399 369.504 156.399 368.433 155.949C367.363 155.499 366.294 154.372 365.834 153.397C365.376 152.647 364.917 151.746 365.376 150.995C366.14 149.57 372.026 146.718 373.937 147.318C375.466 147.919 375.389 150.621 376.611 152.496C378.446 155.274 382.575 159.326 384.179 161.878C385.249 163.604 385.555 164.355 386.243 166.306C387.466 169.983 388.995 176.812 389.759 182.667C390.6 189.122 389.759 197.902 390.6 203.381C391.136 207.133 392.358 209.31 392.894 212.612C393.581 216.215 393.963 219.067 394.269 224.245C394.956 234.678 396.181 260.345 395.11 271.077C394.575 276.781 394.192 283.16 392.358 283.986C391.211 284.436 387.924 281.434 387.924 281.434C387.924 281.509 390.524 282.71 391.211 283.61C391.746 284.287 391.976 285.111 392.052 285.862C392.129 286.688 392.052 287.512 391.746 288.263C391.288 289.239 390.218 290.441 389.224 290.965C388.23 291.416 386.166 291.942 385.555 291.265C384.637 290.216 387.007 281.81 388.384 281.358C389.224 281.059 390.753 282.634 391.365 283.46C391.9 284.136 392.129 284.962 392.205 285.712C392.282 286.537 392.205 287.363 391.823 288.113C391.365 289.089 390.371 290.29 389.378 290.74C388.307 291.265 386.243 291.791 385.708 291.116C384.791 290.065 387.16 282.184 388.459 281.659C389.072 281.358 390.065 282.184 390.6 282.785C391.365 283.536 392.129 285.037 392.282 286.013C392.434 286.837 392.205 287.739 391.9 288.414C391.594 289.165 391.059 289.915 390.447 290.441C389.836 290.891 388.995 291.341 388.23 291.49C387.466 291.641 385.862 291.641 385.785 291.416C385.708 291.04 390.218 287.663 391.671 288.564C395.339 290.74 392.74 321.136 392.129 332.018C391.823 338.623 391.136 344.552 390.294 347.854C389.913 349.43 389.607 350.481 388.995 351.231C388.459 351.906 387.772 352.356 386.931 352.507C385.937 352.808 384.333 352.882 383.339 352.432C382.269 351.982 381.198 350.857 380.663 349.955C380.281 349.28 380.128 348.38 380.204 347.629C380.204 346.879 380.204 345.903 380.817 345.302C382.116 344.327 387.39 343.726 389.224 344.852C390.83 345.828 390.753 348.155 391.746 350.931C393.81 356.86 400.155 374.122 399.926 378.85C399.772 380.501 399.237 381.402 398.473 382.153C397.708 382.978 396.333 383.654 395.186 383.804C394.04 383.879 392.588 383.503 391.671 382.828C390.753 382.153 389.682 380.951 389.682 379.75C389.607 378.325 392.74 374.872 392.588 374.797C392.511 374.723 390.218 377.799 390.065 377.649C389.913 377.574 390.447 376.073 390.982 375.398C391.671 374.647 393.046 373.747 394.117 373.522C394.956 373.222 395.798 373.371 396.562 373.596C397.327 373.747 398.168 374.197 398.703 374.797C399.314 375.322 399.772 376.073 400.078 376.823C400.307 377.574 400.155 379.225 400.307 379.225C400.384 379.225 400.231 376.148 400.766 375.999C401.301 375.772 402.907 377.649 403.365 378.55C403.747 379.3 403.9 380.126 403.824 380.951C403.671 382.002 402.982 383.503 402.295 384.254C401.759 384.929 400.995 385.38 400.155 385.53C399.162 385.83 396.945 386.055 396.485 385.305C395.721 384.104 399.237 376.373 400.614 375.999C401.224 375.848 402.066 376.899 402.524 377.574C403.059 378.175 403.442 378.926 403.594 379.75C403.671 380.801 403.518 382.378 402.907 383.354C402.295 384.329 401.072 385.229 400.001 385.605C398.932 385.904 396.715 386.129 396.333 385.38C395.569 384.178 399.772 376.674 400.92 376.298C401.301 376.224 401.607 376.598 401.989 376.974C402.601 377.574 403.747 378.926 403.9 380.051C404.13 381.177 403.824 382.677 403.288 383.654C402.678 384.63 401.455 385.53 400.307 385.904C399.237 386.205 396.791 386.129 396.639 385.679C396.485 385.004 401.378 381.177 403.059 381.402C404.436 381.627 405.2 383.579 406.269 385.229C407.875 387.631 410.091 391.684 411.008 394.611C411.773 396.938 412.614 400.914 412.232 401.065C411.773 401.215 408.563 395.962 408.639 395.887C408.792 395.811 412.385 398.963 412.768 400.689C413.149 402.341 412.232 404.367 411.468 406.093C410.779 407.745 409.862 409.171 408.41 410.897C406.423 413.224 402.524 416.826 399.926 418.403C398.091 419.528 396.562 420.053 394.804 420.428C393.123 420.879 390.906 421.029 389.453 420.879C388.459 420.804 387.695 420.579 386.931 420.203C386.243 419.753 385.555 419.227 385.097 418.477C384.562 417.501 384.179 415.926 384.333 414.799C384.562 413.599 385.326 412.248 386.243 411.498C387.16 410.821 389.378 409.846 389.913 410.371C390.676 411.122 388.995 418.403 386.549 419.828C383.415 421.63 374.853 418.102 370.956 417.276C368.662 416.826 367.517 416.676 365.452 415.85C362.624 414.799 358.649 412.022 355.821 411.046C353.834 410.371 352.458 410.596 350.394 409.921C347.337 408.796 343.821 405.943 339.769 404.518C334.878 402.867 327.921 402.116 322.647 401.29C318.291 400.689 314.621 400.689 310.417 400.014C305.831 399.264 298.876 398.439 296.201 396.862C294.901 396.112 294.213 395.212 293.831 394.161C293.449 393.11 293.449 391.608 293.831 390.559C294.213 389.508 295.359 388.457 296.276 387.931C297.041 387.481 298.111 386.955 298.646 387.331C299.792 388.156 299.946 396.637 298.723 397.463C298.034 397.913 296.201 396.787 295.359 396.187C294.672 395.662 294.213 394.911 293.984 394.161C293.678 393.41 293.524 392.584 293.678 391.759C293.907 390.784 294.518 389.357 295.359 388.606C296.276 387.856 298.111 386.88 298.799 387.331C300.021 388.156 300.557 395.662 298.569 397.463C296.047 399.714 288.327 396.637 281.83 396.562C272.582 396.412 255.23 398.513 248.275 397.463C244.988 396.938 241.243 394.836 241.166 394.987C241.089 395.136 243.841 396.337 243.765 396.486C243.765 396.562 243.001 396.486 242.541 396.337C241.776 396.036 240.249 395.136 239.637 394.236C239.102 393.335 238.72 391.833 238.949 390.784C239.102 389.733 239.789 388.381 240.707 387.706C241.547 387.031 243.001 386.28 244.07 386.581C245.446 386.955 247.204 389.733 247.815 391.308C248.275 392.584 248.35 394.085 247.969 394.987C247.663 395.737 246.898 396.261 246.211 396.637C245.523 397.012 244.605 397.237 243.841 397.237C243.076 397.237 242.236 397.163 241.472 396.713C240.554 396.187 239.485 395.061 239.025 394.085C238.643 393.335 238.566 392.51 238.643 391.759C238.72 391.009 239.102 389.508 239.485 389.508C240.249 389.432 244.223 395.586 243.23 396.787C241.318 399.188 219.457 391.984 210.591 389.357C204.399 387.481 198.208 385.98 194.998 383.428C192.857 381.852 191.634 379.525 191.099 377.95C190.717 376.899 190.717 375.999 191.023 375.097C191.328 374.122 192.246 372.846 193.086 372.246C193.775 371.72 194.54 371.495 195.304 371.42C196.144 371.27 196.985 371.42 197.75 371.72C198.437 371.945 199.202 372.471 199.737 373.071C200.195 373.596 200.883 374.273 200.807 375.173C200.654 376.674 197.291 380.501 195.915 381.327C195.227 381.701 194.692 381.777 194.004 381.552C193.086 381.327 191.711 380.351 191.176 379.451C190.564 378.475 190.259 377.048 190.488 375.999C190.641 374.948 191.405 373.672 192.322 372.996C193.163 372.246 195.227 371.42 195.686 371.87C196.45 372.621 194.998 379.225 193.315 380.276C191.863 381.102 189.953 379.75 187.124 378.926C179.94 376.674 160.754 367.442 150.434 364.065C143.173 361.738 137.517 361.138 131.479 359.337C125.822 357.61 120.472 355.06 115.198 353.633C110.305 352.356 105.031 352.583 100.98 350.931C97.6173 349.581 94.8657 347.253 92.3432 345.378C90.3545 343.801 88.9025 341.85 87.069 340.799C85.5401 339.899 84.0868 340.048 82.3287 339.148C79.6539 337.722 76.2915 334.119 73.0046 332.094C69.87 330.217 66.8123 329.918 63.2207 327.365C57.3344 323.238 49.2317 313.03 42.8884 307.776C37.9958 303.649 31.8049 300.422 28.8995 297.795C27.4475 296.519 26.7599 295.769 25.9186 294.417C24.8481 292.842 24.2374 291.341 23.1669 288.94C21.1028 284.512 16.6699 275.73 15.1411 269.502C13.7659 264.097 14.835 258.243 13.4599 253.815C12.3126 250.138 10.0193 246.986 8.41491 244.509C7.1921 242.633 5.50952 241.507 4.82195 239.856C4.13437 238.279 4.13437 237.003 3.90518 234.903C3.4468 231.15 3.06389 224.47 3.14075 219.216C3.14075 213.963 2.8347 208.86 4.13437 203.23C5.58638 196.477 10.173 189.046 12.4663 181.692C14.7596 174.337 15.8287 166.907 18.0451 159.101C20.4153 150.545 22.8609 140.939 26.4538 132.308C30.1223 123.601 36.2377 114.371 39.7539 106.941C42.5055 101.462 44.1113 96.7333 46.4045 92.1558C48.5441 87.9528 50.6837 84.0504 52.977 80.4472C55.0411 77.2198 56.6468 75.1191 59.474 71.3662C64.3666 64.9116 76.0609 48.5514 80.1891 45.6245C81.4888 44.723 82.3287 44.5735 83.2468 44.498C84.0113 44.498 84.6989 44.6489 85.3864 45.099C86.1509 45.5491 87.1445 46.5247 87.4505 47.5003C87.8334 48.4004 87.7566 49.8275 87.4505 50.6521C87.2213 51.4027 86.763 52.3783 86.1509 52.4538C84.8512 52.5292 79.577 46.8252 79.8831 45.5491C80.1123 44.7985 81.9472 44.4226 82.9408 44.498C83.9344 44.498 85.2341 45.099 85.9217 45.6245C86.5338 46.0746 86.9153 46.7497 87.1445 47.4248C87.4505 48.1013 87.5274 48.8518 87.3737 49.527C87.2213 50.4271 86.6092 52.3042 85.8448 52.3783C84.5465 52.5292 79.577 46.9748 79.9599 45.7741C80.1123 45.099 81.9472 44.723 82.9408 44.723C84.0113 44.723 85.2341 45.1731 85.9985 45.8496C86.763 46.5247 87.3737 47.7253 87.4505 48.7009C87.5274 49.6765 86.9921 51.1022 86.6092 51.7787C86.3801 52.1533 86.3046 52.4538 85.9217 52.6033C84.7757 52.9038 80.0368 51.8528 78.5834 50.3516C77.2851 49.0014 76.8253 46.3751 76.9022 44.5735C76.9022 43.1478 77.3606 41.4216 78.2019 40.5201C78.8126 39.7696 79.9599 39.3195 80.8767 39.244C81.7948 39.0945 82.9408 39.244 83.7821 39.7696C84.7757 40.446 85.9985 42.1722 86.1509 43.4469C86.2277 44.723 85.3864 46.6001 84.3928 47.3507C83.3223 48.1754 81.2596 48.5514 80.0368 48.1754C78.8126 47.8008 77.3606 46.2996 76.9791 45.099C76.5962 43.8984 77.1314 41.8717 77.819 40.8961C78.4311 40.0701 79.4247 39.4704 80.3415 39.3195C81.5643 39.0945 83.6284 39.395 84.622 40.3706C85.9217 41.6467 87.4505 46.2242 86.6092 47.1257C85.8448 47.9504 79.9599 46.2242 79.9599 45.7741C79.8831 45.4736 82.8639 44.6489 84.0868 44.874C85.0804 45.0235 86.1509 45.8496 86.6861 46.6743C87.2982 47.5003 87.6029 48.7764 87.4505 49.8275C87.2982 50.8031 86.6861 52.5292 85.9217 52.6033C84.622 52.7543 79.577 46.8252 79.8831 45.5491C80.1123 44.7985 81.9472 44.4226 82.9408 44.498C83.9344 44.498 85.2341 44.874 85.9217 45.6245C86.763 46.4492 87.5274 48.4004 87.3737 49.527C87.2982 50.578 86.6092 52.3042 85.8448 52.3783C84.622 52.4538 79.9599 46.8252 80.1891 45.6245C80.3415 45.0235 81.4119 44.7985 82.0995 44.6489C83.0931 44.498 84.4697 44.5735 85.3864 45.099C86.2277 45.5491 87.1445 46.5247 87.4505 47.5003C87.8334 48.4004 87.9089 49.6011 87.4505 50.6521C86.763 52.2287 84.7757 53.1289 82.8639 55.5302C78.5834 60.7087 68.9532 74.5935 64.0606 82.3243C60.5445 87.8774 58.022 92.3053 55.4995 97.1834C53.2831 101.613 52.2126 105.139 49.7669 110.242C46.174 117.823 39.1418 128.855 35.4733 137.861C32.2633 145.817 30.6575 153.097 28.4411 161.203C25.9955 169.834 24.2374 180.416 21.5612 188.146C19.4985 194.225 15.9824 198.502 14.7596 203.981C13.4599 209.46 13.8414 215.314 13.9183 221.018C13.9951 226.871 13.6891 235.428 15.3703 238.73C16.287 240.531 17.8928 240.456 19.0401 241.957C20.7213 243.984 22.5562 247.961 23.5498 250.514C24.1606 252.314 24.4666 253.365 24.6958 255.316C25.0018 258.093 23.8545 261.771 24.6189 265.448C25.5371 270.251 29.7408 277.155 31.1159 281.358C31.9572 283.911 31.2696 285.561 32.7216 287.739C35.2441 291.416 42.9639 294.417 48.3918 298.921C55.0411 304.549 64.1374 315.957 69.2593 319.334C71.7804 320.911 73.3092 320.61 75.4502 321.737C78.0495 323.087 81.1827 325.263 83.476 326.989C85.3864 328.416 86.6092 330.143 88.4442 331.343C90.2022 332.468 92.1126 332.619 94.1012 333.82C96.6992 335.395 99.6801 338.999 102.279 340.5C104.19 341.549 105.489 341.999 107.86 342.6C111.376 343.652 117.72 343.877 121.924 345.153C125.516 346.202 127.733 347.929 131.708 349.205C137.517 351.231 145.466 352.282 153.721 354.984C164.957 358.586 185.443 367.067 192.322 370.219C194.921 371.42 196.831 371.495 197.52 373.071C198.36 375.023 196.221 381.177 195.227 381.777C194.844 382.002 194.463 381.777 194.004 381.552C193.24 381.251 191.788 380.276 191.176 379.451C190.641 378.775 190.488 377.95 190.411 377.199C190.334 376.449 190.411 375.547 190.793 374.872C191.328 373.972 192.399 372.846 193.315 372.32C194.08 371.945 195.609 371.72 195.686 371.87C195.762 372.095 191.788 374.422 191.863 374.422C191.863 374.422 195.686 371.645 195.838 371.87C196.067 372.095 191.634 377.649 191.023 377.499C190.717 377.349 190.87 375.848 191.023 375.097C191.253 374.347 191.634 373.596 192.169 372.996C192.705 372.471 193.315 371.945 194.157 371.645C195.15 371.344 196.679 371.27 197.75 371.72C198.743 372.095 199.889 373.371 200.424 374.046C200.654 374.422 200.96 374.948 200.807 375.173C200.73 375.322 199.966 375.173 199.966 375.322C199.966 375.698 202.412 376.749 204.782 377.574C210.744 379.676 230.77 383.428 237.344 385.454C240.324 386.43 242.007 386.505 243.765 387.931C245.675 389.508 248.198 393.486 247.969 394.987C247.815 395.811 246.898 396.261 246.211 396.637C245.523 397.012 244.605 397.237 243.841 397.237C243.076 397.237 242.159 397.087 241.472 396.713C240.783 396.337 240.095 395.887 239.637 395.136C239.102 394.31 238.643 392.809 238.643 391.759C238.72 390.933 239.331 389.508 239.485 389.508C239.637 389.508 238.949 391.759 239.408 392.735C240.018 394.085 243.917 396.261 243.765 396.486C243.688 396.713 241.243 395.887 240.478 395.136C239.637 394.386 238.949 393.11 238.872 391.984C238.796 390.858 239.254 389.432 239.866 388.606C240.324 387.856 241.013 387.405 241.701 387.031C242.389 386.73 243.076 386.581 244.07 386.581C246.057 386.505 248.962 387.631 252.708 387.856C259.511 388.156 273.421 386.356 281.83 386.356C288.175 386.43 296.047 384.779 298.569 387.331C300.557 389.357 299.792 396.637 298.723 397.463C298.263 397.838 297.041 397.237 296.353 396.862C295.665 396.486 294.978 395.962 294.518 395.212C293.984 394.386 293.524 392.885 293.678 391.759C293.831 390.633 294.518 389.357 295.359 388.606C296.276 387.856 298.111 386.88 298.799 387.331C300.021 388.156 299.869 396.637 298.646 397.463C297.882 397.913 296.047 396.938 295.207 396.187C294.366 395.437 293.678 394.085 293.524 392.96C293.372 391.833 293.754 390.408 294.443 389.508C295.053 388.606 296.124 387.856 297.424 387.481C299.334 386.955 302.315 387.556 304.991 388.006C308.049 388.606 311.03 390.183 314.85 390.933C320.049 391.909 328.075 391.833 333.425 392.735C337.63 393.41 340.075 393.936 344.508 395.361C351.694 397.688 363.236 404.142 371.797 406.769C378.905 408.946 389.988 407.594 392.052 410.897C393.581 413.298 390.83 420.129 389.453 420.879C388.766 421.329 387.695 420.653 386.931 420.203C386.014 419.603 384.943 418.403 384.562 417.276C384.179 416.151 384.333 414.574 384.714 413.523C385.02 412.698 385.555 412.022 386.243 411.498C387.16 410.897 389.836 410.222 389.913 410.371C389.913 410.447 386.549 412.097 386.626 412.097C386.626 412.248 393.198 410.146 395.875 408.271C398.473 406.469 400.537 400.99 402.295 400.99C403.594 400.99 405.505 404.593 405.582 404.518C405.658 404.442 402.83 401.065 401.53 398.889C399.926 396.337 398.014 392.359 396.868 389.882C396.027 388.156 395.339 387.031 394.881 385.454C394.498 383.953 393.658 382.153 394.269 380.801C395.033 379 399.237 376.148 400.92 376.298C402.066 376.449 403.059 377.874 403.518 378.85C404.053 379.901 404.053 381.476 403.747 382.527C403.594 383.354 403.059 384.029 402.448 384.63C401.913 385.154 401.224 385.679 400.307 385.904C399.314 386.129 397.097 386.43 396.639 385.679C395.798 384.403 399.162 376.298 400.614 375.999C401.455 375.848 402.678 377.649 403.213 378.625C403.594 379.376 403.671 380.202 403.671 381.026C403.594 381.777 403.442 382.677 402.907 383.354C402.295 384.178 401.072 385.229 400.001 385.605C398.932 385.904 396.715 386.129 396.333 385.38C395.569 384.178 399.391 376.298 400.766 375.999C401.455 375.772 402.219 376.823 402.753 377.499C403.213 378.1 403.594 378.926 403.747 379.75C403.9 380.501 403.824 381.402 403.594 382.153C403.365 382.903 402.907 383.728 402.295 384.254C401.759 384.855 400.92 385.305 400.155 385.53C399.391 385.755 398.626 385.83 397.708 385.679C396.181 385.454 393.275 384.779 391.976 383.428C390.753 382.077 389.913 379.3 390.065 377.649C390.142 376.449 391.059 375.248 391.823 374.572C392.511 373.972 393.275 373.672 394.117 373.522C394.881 373.297 395.798 373.371 396.562 373.596C397.327 373.747 398.168 374.197 398.703 374.797C399.314 375.322 399.772 376.073 400.078 376.823C400.307 377.574 400.614 378.475 400.307 379.225C399.849 380.276 397.021 382.378 396.868 382.227C396.715 382.077 399.466 377.499 399.772 377.649C400.001 377.725 399.772 380.202 399.237 381.177C398.703 382.153 397.403 383.128 396.41 383.503C395.569 383.804 394.804 383.879 393.963 383.728C392.894 383.503 391.746 383.203 390.753 381.928C387.924 378.55 383.645 362.189 382.804 356.559C382.421 353.933 381.81 351.607 382.881 350.481C383.95 349.356 389.453 349.73 389.682 350.256C389.836 350.63 388.766 351.607 388.001 352.057C387.084 352.507 385.632 352.957 384.485 352.732C383.415 352.583 382.039 351.757 381.352 351.006C380.74 350.405 380.51 349.955 380.281 348.83C379.746 345.903 381.886 338.322 382.116 332.168C382.345 324.739 381.121 315.131 381.046 307.251C380.969 300.197 380.358 291.191 381.581 287.213C382.116 285.262 382.804 284.211 383.95 283.311C385.097 282.334 387.237 281.585 388.459 281.659C389.301 281.734 390.065 282.184 390.6 282.785C391.365 283.536 392.129 285.037 392.282 286.013C392.434 286.837 392.205 287.739 391.9 288.414C391.594 289.165 391.059 289.915 390.447 290.441C389.836 290.891 388.995 291.341 388.23 291.49C387.466 291.641 386.166 292.016 385.785 291.416C384.943 290.29 387.084 281.884 388.384 281.358C388.995 281.059 389.988 281.959 390.6 282.485C391.136 283.01 391.671 283.761 391.9 284.512C392.205 285.262 392.358 286.087 392.205 286.913C391.976 287.964 391.136 289.39 390.371 290.065C389.759 290.666 388.995 291.04 388.153 291.191C387.39 291.341 386.091 291.641 385.708 291.116C384.868 290.065 386.931 281.959 388.23 281.509C389.072 281.209 390.6 282.785 391.211 283.61C391.746 284.287 391.976 285.111 392.052 285.862C392.129 286.688 392.052 287.512 391.746 288.263C391.288 289.239 390.218 290.441 389.224 290.965C388.23 291.416 386.549 291.942 385.555 291.265C383.95 290.29 382.345 285.037 382.345 282.56C382.345 280.759 383.645 279.783 384.103 277.906C384.714 274.979 385.097 271.453 385.249 266.798C385.479 258.844 383.568 242.932 383.797 234.903C383.874 230.025 385.249 227.323 384.943 223.12C384.485 218.015 381.656 212.538 380.663 206.609C379.594 199.704 380.128 190.848 379.288 184.168C378.6 178.689 378.14 173.36 376.459 169.383C375.159 166.23 372.485 164.054 371.033 161.653C369.885 159.702 367.821 157.599 368.281 155.949C368.892 154.073 375.236 151.146 375.772 151.596C376.078 151.897 374.93 154.147 374.243 154.898C373.707 155.574 372.866 155.949 372.102 156.174C371.337 156.399 370.497 156.55 369.656 156.325C368.586 156.098 367.21 155.349 366.446 154.448C365.758 153.623 364.84 151.67 365.376 150.995C366.217 149.944 375.007 150.77 375.772 152.122C376.23 152.872 375.084 154.598 374.243 155.423C373.478 156.174 372.026 156.849 370.879 156.924C369.733 157 368.281 156.55 367.363 155.873C366.446 155.123 365.758 153.772 365.452 152.797C365.223 151.897 364.994 150.621 365.529 150.245C366.523 149.57 374.701 152.872 374.853 153.998C375.007 154.523 373.784 155.274 373.02 155.574C372.026 156.024 370.421 156.174 369.35 156.024C368.51 155.799 367.746 155.423 367.134 154.824C366.446 154.073 365.682 152.647 365.452 151.596C365.3 150.77 365.605 149.87 365.758 149.195C365.911 148.744 365.911 148.369 366.369 148.144C367.592 147.393 374.243 147.017 375.618 148.218C376.459 148.969 376.382 150.695 376.153 151.821C375.924 152.872 375.084 154.147 374.166 154.824C373.249 155.499 371.643 155.799 370.574 155.799C369.733 155.724 368.892 155.423 368.281 154.973C367.592 154.523 366.446 153.848 366.598 153.171C366.828 151.821 374.395 147.843 375.772 148.518C376.536 148.894 376.536 150.995 376.23 152.122C376.001 153.171 375.159 154.448 374.243 155.123C373.326 155.799 371.873 156.174 370.727 156.024C369.579 155.949 368.052 155.049 367.363 154.448C366.981 154.147 366.598 153.547 366.675 153.472C366.828 153.322 369.81 155.349 370.039 154.973C370.65 154.298 363.847 147.093 360.713 141.99C356.662 135.31 352.382 124.202 348.253 118.198C345.426 114.07 341.91 109.943 339.769 108.591C338.852 107.992 338.088 108.291 337.4 107.916C336.711 107.466 336.101 106.865 335.642 106.19C335.259 105.515 334.953 104.689 334.878 103.938C334.801 103.112 334.953 102.212 335.336 101.537C335.642 100.787 336.101 100.112 336.788 99.586C337.63 98.985 339.617 97.9339 340.228 98.4595C341.375 99.3609 340.687 107.992 339.54 108.742C338.929 109.117 337.859 108.517 337.171 108.066C336.33 107.466 335.259 106.266 334.878 105.29C334.572 104.464 334.572 103.638 334.724 102.887C334.801 102.063 335.183 101.237 335.718 100.636C336.176 100.036 336.865 99.4351 337.63 99.1359C338.317 98.8354 339.923 98.5349 339.998 98.6845C340.075 98.9095 335.565 101.462 335.489 101.312C335.413 101.237 337.017 99.2855 338.088 98.8354C339.158 98.3853 340.687 98.3099 341.756 98.6845C342.827 98.985 343.973 100.036 344.585 100.862C345.043 101.613 345.273 102.437 345.273 103.188C345.349 104.014 345.426 105.29 344.814 105.589C343.514 106.266 335.489 102.738 335.107 101.687C335.03 101.312 335.413 101.012 335.795 100.636C336.407 100.036 337.782 98.985 338.929 98.8354C339.998 98.6104 341.527 98.9095 342.521 99.5105C343.439 100.112 344.356 101.312 344.737 102.362C345.043 103.413 345.197 105.515 344.433 105.89C343.21 106.64 335.565 102.813 335.259 101.537C335.107 100.862 336.101 100.112 336.788 99.586C337.705 99.0605 339.158 98.5349 340.304 98.6104C341.45 98.6845 342.827 99.4351 343.591 100.112C344.203 100.711 344.585 101.462 344.814 102.212C345.043 102.963 345.043 103.938 344.968 104.614C344.891 105.065 344.662 105.74 344.585 105.74C344.356 105.74 344.203 102.288 344.127 102.288C344.127 102.288 344.585 104.839 344.279 105.89C344.05 106.64 343.514 107.315 342.979 107.916C342.368 108.442 341.604 108.892 340.84 109.117C340.075 109.267 339.158 109.342 338.394 109.192C337.63 109.042 337.094 108.816 336.176 108.141C333.731 106.415 326.698 100.486 324.865 96.9583C323.641 94.557 322.953 91.4052 323.717 89.9041C324.405 88.7034 326.546 87.8774 327.921 87.8033C329.068 87.7278 330.368 88.4029 331.208 89.1535C332.049 89.9041 332.737 91.1802 332.814 92.3053C332.891 93.4319 332.431 94.8575 331.82 95.6836C331.362 96.4341 330.673 96.8842 329.985 97.2588C329.298 97.5593 327.692 97.9339 327.616 97.7843C327.463 97.4097 331.82 93.9574 332.049 94.1824C332.202 94.332 330.903 96.5082 330.139 97.1092C329.45 97.7089 328.686 97.9339 327.921 98.0848C327.081 98.1603 326.24 98.1603 325.476 97.8598C324.482 97.4839 323.259 96.5082 322.724 95.6081C322.265 94.933 322.036 94.107 322.036 93.3564C322.036 92.6813 322.036 91.9307 322.647 91.4806C323.871 90.4296 330.597 89.3785 331.973 90.2787C332.66 90.6546 332.585 91.7057 332.585 92.5304C332.585 93.5814 331.973 95.0071 331.362 95.8331C330.903 96.5082 330.214 96.9583 329.45 97.2588C328.456 97.5593 327.463 97.7843 325.858 97.3343C321.501 96.0582 309.959 85.3265 303.691 82.2488C299.717 80.2976 296.201 80.0725 293.143 78.7964C290.697 77.7454 288.786 76.5447 286.875 75.4196C285.117 74.3685 283.359 73.6934 282.212 72.3418C281.066 70.9161 279.537 68.589 279.995 67.1633C280.607 65.363 285.423 62.8863 287.028 62.8863C287.946 62.9604 288.556 63.711 289.015 64.3119C289.55 64.9116 290.008 65.5881 290.162 66.4882C290.391 67.4638 290.238 69.0404 289.704 70.016C289.168 70.9916 288.021 71.9672 286.952 72.4173C285.882 72.7919 283.817 73.0924 283.282 72.3418C282.518 71.2166 285.652 63.3363 287.104 63.0358C287.946 62.8108 289.244 64.537 289.779 65.4371C290.238 66.1877 290.391 67.0137 290.391 67.8384C290.391 68.589 290.238 69.415 289.779 70.1656C289.244 71.0657 288.098 72.1168 287.028 72.5669C285.957 72.9428 284.353 73.1679 283.359 72.4927C281.907 71.5913 280.072 66.0381 280.531 65.7376C281.066 65.363 287.563 70.8407 287.257 71.6667C286.952 72.3418 283.511 72.3418 281.372 71.3662C277.32 69.4905 268.683 60.9337 267.383 56.1312C266.466 52.8284 268.147 47.3507 269.447 46.6743C270.059 46.2996 271.053 46.9748 271.74 47.3507C272.428 47.7253 273.04 48.4004 273.421 49.0014C273.881 49.6765 274.186 50.4271 274.186 51.2531C274.186 52.3042 273.652 53.804 273.117 54.63C272.657 55.3051 271.894 55.7552 271.205 56.0557C270.517 56.3562 269.295 56.9572 268.836 56.5058C267.843 55.6056 268.453 47.1998 269.753 46.4492C270.441 46.0746 272.199 47.1257 272.963 47.9504C273.728 48.7009 274.34 50.1266 274.415 51.1022C274.569 51.9282 274.34 52.7543 274.034 53.4294C273.652 54.1045 273.192 54.8551 272.505 55.3051C271.663 55.8307 269.218 56.5058 269.141 56.3562C268.989 56.1312 273.192 54.5546 273.652 53.1289C274.11 51.6277 271.13 47.5003 271.359 47.3507C271.588 47.1998 273.346 49.0014 273.652 49.977C274.034 51.0281 274.034 52.4538 273.652 53.5048C273.192 54.4804 272.123 55.5302 271.205 56.0557C270.441 56.5058 269.601 56.5812 268.836 56.5812C268.072 56.5812 266.772 56.5812 266.543 55.9816C266.008 54.7055 270.211 47.1257 271.663 46.9748C272.505 46.8993 273.652 48.6255 273.957 49.6011C274.34 50.6521 274.34 52.0778 273.957 53.1289C273.498 54.1045 272.428 55.1555 271.511 55.6811C270.823 56.1312 269.982 56.2066 269.141 56.2066C268.378 56.2066 267.154 56.2066 266.849 55.6056C266.314 54.405 270.059 47.1998 271.434 47.0502C272.275 46.9748 273.346 48.7009 273.728 49.6765C274.11 50.7276 273.957 52.2287 273.652 53.2043C273.421 53.9549 272.888 54.63 272.275 55.0801C271.663 55.6056 270.976 56.0557 270.136 56.1312C269.141 56.2807 266.924 56.4317 266.62 55.6811C266.008 54.405 270.059 47.3507 271.511 47.1998C272.352 47.1257 273.421 49.0014 273.804 49.9016C274.11 50.6521 274.186 51.4027 274.034 52.2287C273.804 53.2043 273.192 54.5546 272.352 55.3051C271.511 55.9816 269.982 56.4317 268.989 56.5058C268.147 56.5058 266.924 56.4317 266.62 55.8307C266.085 54.63 270.211 47.1257 271.663 46.9748C272.505 46.8993 273.575 48.6255 273.957 49.6765C274.34 50.6521 274.186 52.2287 273.881 53.1289C273.575 53.9549 273.117 54.5546 272.505 55.0801C271.663 55.6811 270.67 56.3562 269.141 56.2066C265.32 55.9816 255.918 50.4271 249.879 46.5247C243.688 42.4713 234.515 36.6932 232.375 32.1898C231.153 29.488 231.534 25.8106 232.605 24.5345C233.292 23.6344 234.898 23.4093 235.968 23.4834C237.114 23.5589 238.491 24.3095 239.254 24.9846C239.866 25.5856 240.249 26.2607 240.478 27.0112C240.707 28.0623 240.554 29.6376 240.172 30.5391C239.866 31.2896 239.331 31.8893 238.72 32.4148C237.956 32.9403 236.35 33.9914 235.815 33.6154C234.744 32.9403 235.204 24.61 236.198 24.0844C236.885 23.7839 238.491 25.2851 239.102 26.1852C239.714 27.0867 240.018 28.5124 239.866 29.6376C239.714 30.6886 238.949 31.9647 238.108 32.6398C237.191 33.3904 235.586 33.7664 234.669 33.8405C234.21 33.8405 233.751 33.9914 233.521 33.6154C232.834 32.6398 234.975 24.234 236.35 23.7839C237.114 23.5589 238.643 25.06 239.178 25.8861C239.714 26.5612 239.943 27.3872 240.018 28.1378C240.095 28.887 240.018 29.713 239.637 30.4636C239.178 31.3637 238.185 32.5657 237.191 33.0158C236.198 33.4659 234.134 33.9914 233.598 33.3163C232.757 32.2652 235.356 24.5345 236.579 24.0844C237.267 23.7839 238.108 24.6854 238.72 25.2096C239.254 25.7351 239.789 26.4116 240.018 27.2363C240.324 28.2119 240.324 29.713 239.866 30.7641C239.485 31.7397 238.414 32.7908 237.42 33.3163C236.427 33.7664 234.44 34.2164 233.904 33.6154C232.986 32.4903 235.815 24.234 236.885 23.7085C237.267 23.5589 237.65 23.8594 238.031 24.1599C238.72 24.6854 239.943 25.8106 240.324 26.8617C240.707 27.9114 240.631 29.3384 240.172 30.3881C239.789 31.3637 238.72 32.4148 237.726 32.9403C236.733 33.3904 234.744 33.8405 234.21 33.2408C233.292 32.1898 235.356 24.3095 236.656 23.8594C237.42 23.5589 238.949 24.9846 239.485 25.9602C240.095 26.8617 240.401 28.2873 240.249 29.3384C240.095 30.4636 239.331 31.7397 238.491 32.4148C237.65 33.0899 235.968 33.4659 235.127 33.5413C234.592 33.6154 234.363 33.6909 233.904 33.3904C232.986 32.7153 230.923 27.8373 230.694 27.9114C230.617 27.9868 232.986 31.9647 232.452 32.4903C231.153 33.5413 217.853 24.835 211.966 21.3072C207.38 18.5299 201.647 16.6542 199.889 13.2773C198.514 10.5001 199.202 4.34595 200.501 3.44581C201.266 2.92028 203.024 3.67085 203.941 4.27049C204.857 4.87149 205.699 5.99666 205.928 7.12319C206.157 8.39929 205.622 10.5755 204.857 11.5511C204.094 12.4513 202.412 13.5778 201.724 13.2019C200.501 12.5267 199.814 4.34595 200.807 3.37035C201.266 2.92028 202.412 3.44581 203.176 3.67085C203.864 3.97134 204.628 4.42141 205.163 5.02106C205.699 5.54659 206.081 6.37262 206.234 7.12319C206.463 7.7983 206.463 8.69844 206.234 9.44901C206.081 10.1996 205.775 10.9501 205.163 11.5511C204.476 12.2263 202.87 13.1264 202.03 13.1264C201.418 13.2019 200.424 12.8272 200.424 12.4513C200.272 11.7007 205.163 9.59993 204.934 8.62433C204.705 7.42369 196.527 7.57326 196.144 6.44674C195.915 5.69752 197.52 4.27049 198.437 3.82042C199.431 3.29489 200.883 3.06985 201.953 3.37035C203.024 3.59538 204.323 4.34595 204.934 5.2461C205.622 6.37262 206.157 8.54887 205.546 9.82497C204.705 11.3261 201.724 12.5267 199.354 13.1264C196.45 13.8028 192.093 13.3514 189.265 12.9768C187.277 12.7518 185.902 12.0012 184.144 11.8516C182.309 11.7007 179.405 13.1264 178.411 12.1508C177.264 10.9501 178.411 4.57099 179.175 3.74496C179.481 3.44581 179.863 3.59538 180.321 3.67085C181.009 3.74496 182.538 4.19638 183.227 4.87149C183.991 5.54659 184.45 6.82269 184.602 7.72284C184.756 8.39929 184.602 9.14986 184.296 9.74951C183.838 10.5755 183.302 11.4757 182.079 12.0767C179.175 13.4269 171.073 13.1264 165.34 14.0279C159.225 14.928 150.741 17.6298 146.537 17.4802C144.473 17.4048 142.792 17.0302 141.798 16.2796C141.033 15.8282 140.727 15.0035 140.498 14.3284C140.192 13.5778 140.115 12.6763 140.269 11.9258C140.345 11.1752 140.651 10.3505 141.186 9.74951C141.798 8.99894 143.096 8.0988 144.167 7.7983C145.237 7.57326 146.843 7.87376 147.683 8.32383C148.447 8.69844 149.059 9.14986 149.289 9.97454C149.824 11.6253 149.364 16.2796 148.066 18.3049C146.918 20.0311 145.389 20.4825 142.485 21.9082C134.46 25.661 100.903 40.221 94.4059 36.9937C91.5019 35.5666 90.4314 29.4125 91.1958 28.0623C91.6542 27.2363 93.566 27.0867 94.6351 27.3117C95.9348 27.6122 97.6928 28.887 98.3818 30.0135C98.9156 30.9891 98.9925 32.4148 98.6864 33.4659C98.3818 34.5169 97.4636 36.2431 96.6237 36.2431C95.2472 36.1676 90.8143 29.3384 91.3495 28.0623C91.6542 27.3117 93.6415 27.0867 94.7888 27.3117C96.0885 27.6122 97.8465 28.887 98.5341 30.0135C99.0693 30.9891 99.2217 32.4148 98.8401 33.4659C98.4572 34.591 97.3868 36.1676 96.164 36.3927C94.3304 36.6177 88.9794 33.6909 88.521 32.0402C88.215 30.9137 89.7438 28.887 90.8898 28.1378C92.0371 27.4613 94.2536 27.3872 95.4764 27.8373C96.5469 28.2119 97.5405 29.4125 97.9989 30.2386C98.3818 30.9891 98.4572 32.5657 98.4572 32.5657C98.4572 32.5657 98.3049 31.5147 98.2281 31.5147C97.8465 31.5147 97.5405 36.2431 96.0885 39.019C93.7952 43.2974 88.0626 49.2265 83.5529 53.579C79.2723 57.6323 72.3156 60.2586 69.7931 64.3119C67.8059 67.4638 68.0351 71.5171 67.6535 74.7431C67.2706 77.4462 67.1952 79.8475 67.3475 82.3984C67.4243 85.1001 68.418 88.7034 68.1888 90.4296C68.1119 91.3297 67.8827 91.7798 67.5012 92.3808C66.8891 93.0559 65.7431 93.8065 64.9019 94.0315C64.2143 94.2565 63.4499 94.1824 62.8378 94.0315C62.1502 93.8819 61.5381 93.5814 61.0029 93.0559C60.3921 92.4563 59.5508 90.4296 59.5508 90.4296Z" fill="white"/>
</mask>
<g mask="url(#mask2_114_8)">
<path d="M0.0825195 0.367798H416.223V423.955H0.0825195V0.367798Z" fill="#555454"/>
</g>
</g>
</g>
</svg>
