<svg width="417" height="424" viewBox="0 0 417 424" fill="none" xmlns="http://www.w3.org/2000/svg">
<mask id="mask0_15_48" style="mask-type:luminance" maskUnits="userSpaceOnUse" x="93" y="117" width="267" height="185">
<path d="M93.7705 117.076H359.381V301.844H93.7705V117.076Z" fill="white"/>
</mask>
<g mask="url(#mask0_15_48)">
<path d="M214.471 117.684C208.601 119.136 206.883 121.338 206.883 127.331C206.883 130.796 207.074 131.685 208.314 134.12C209.89 137.257 210.129 140.161 208.887 141.987C207.933 143.44 200.821 146.108 196.764 146.482C195.141 146.67 193.661 146.904 193.565 146.997C193.422 147.139 191.227 149.199 188.649 151.587C186.072 154.022 182.922 156.971 181.585 158.19C180.297 159.406 177.91 161.936 176.335 163.855C173.805 166.851 173.472 167.508 173.518 169.193C173.615 172.143 176.288 177.809 180.584 184.131C182.826 187.455 184.831 191.014 185.309 192.559C186.216 195.369 188.029 197.102 190.082 197.102C191.323 197.102 194.711 194.245 194.711 193.216C194.711 192.747 194.902 191.952 195.189 191.483C196 189.984 193.948 187.689 191.132 186.987C188.458 186.285 187.266 185.114 185.5 181.415C184.354 179.073 181.824 170.972 181.824 169.708C181.824 169.334 182.731 168.584 183.876 168.022C184.974 167.46 186.359 166.618 186.931 166.056C187.79 165.307 188.22 165.213 189.079 165.587C189.986 166.009 190.464 165.822 191.8 164.698C192.659 163.949 193.565 163.48 193.757 163.714C195.761 165.775 197.146 190.031 195.809 198.226C194.616 205.203 194.998 207.451 198.435 214.099C200.057 217.284 201.393 220.281 201.393 220.797C201.393 221.264 200.821 223.419 200.153 225.479L198.864 229.318L200.392 230.677L201.966 231.988L201.203 235.032C200.201 238.871 199.055 241.446 198.244 241.775C197.909 241.915 195.761 242.43 193.519 242.945C188.316 244.163 187.266 244.725 183.113 248.471C179.486 251.748 174.807 255.026 174.378 254.605C174.044 254.277 175.381 248.845 176.288 246.645C177.194 244.584 177.242 242.383 176.479 240.978C176.192 240.417 174.426 237.934 172.517 235.499C170.656 233.064 168.173 229.74 167.028 228.102L164.975 225.15L165.023 215.692C165.118 203.939 165.596 195.276 166.169 194.947C166.407 194.807 166.884 194.901 167.219 195.182C167.553 195.463 168.937 195.884 170.321 196.165C171.657 196.4 173.424 197.102 174.187 197.664C176.001 198.975 177.003 198.506 177.91 195.931C178.627 193.778 178.34 192.747 176.764 191.717C175.762 191.061 175.333 191.061 173.948 191.53C172.517 192.045 172.183 191.997 171.324 191.248C170.369 190.406 170.321 190.031 170.608 186.566C170.798 184.412 171.228 182.492 171.609 182.07C172.183 181.461 172.23 180.337 171.896 176.029C171.419 170.13 171.037 169.474 167.601 168.537C164.975 167.882 163.687 166.806 163.687 165.353C163.687 163.621 164.355 162.778 166.121 162.216C167.458 161.748 167.743 161.374 168.221 159.359C168.508 158.095 168.985 156.644 169.271 156.129C169.7 155.426 169.652 154.911 169.08 153.882C168.699 153.132 168.46 152.149 168.602 151.68C168.699 151.259 168.651 149.901 168.46 148.73C168.269 147.513 168.317 146.529 168.556 146.529C168.747 146.529 168.937 146.202 168.937 145.827C168.937 144.422 167.791 142.876 166.025 141.894C162.398 139.879 154.666 140.957 153.234 143.673C152.899 144.235 152.422 144.656 152.088 144.656C151.229 144.656 150.37 146.202 150.035 148.402C149.844 149.666 149.892 150.276 150.274 150.276C150.561 150.276 150.8 150.79 150.8 151.399C150.8 152.758 153.329 157.58 154.904 159.219C156.145 160.483 156.432 162.498 155.477 163.247C155.143 163.527 153.138 164.089 151.038 164.558C144.356 165.962 143.592 166.524 138.724 173.22C137.148 175.422 134.715 178.419 133.33 179.87C131.945 181.368 130.753 183.007 130.657 183.616C130.514 184.552 130.275 184.645 126.696 184.645C122.543 184.693 120.014 185.676 119.011 187.642C118.725 188.204 118.105 189.095 117.579 189.657C116.338 190.968 116.433 194.385 117.77 196.867C118.82 198.881 120.729 200.988 122.782 202.487C123.641 203.096 124.167 203.892 124.213 204.734C124.309 205.952 123.975 206.233 120.253 208.153C118.009 209.324 115.67 210.728 115.002 211.337C114.333 211.946 112.806 213.07 111.613 213.865C110.419 214.661 108.654 216.16 107.651 217.237C106.029 219.017 105.838 219.391 106.124 221.03C106.649 224.167 107.89 227.164 110.563 231.753C113.38 236.529 113.713 236.904 115.383 236.904C116.863 236.904 119.297 232.175 118.39 231.097C118.009 230.677 117.246 230.348 116.672 230.348C116.052 230.348 115.192 230.208 114.763 230.02C113.522 229.599 111.184 224.354 111.184 222.013C111.184 219.906 111.422 219.766 113.235 220.562C114.191 220.983 114.668 220.937 115.622 220.281C117.818 218.876 118.82 219.484 120.395 223.09C121.588 225.9 121.732 226.789 121.493 229.271C121.35 230.864 121.016 232.55 120.777 233.017C119.584 235.172 118.82 238.777 118.82 242.242C118.82 246.738 119.393 249.033 120.968 250.858C121.732 251.748 122.162 252.872 122.256 254.51C122.4 256.571 122.304 256.805 121.445 256.712C120.921 256.618 118.344 256.383 115.67 256.196C110.467 255.776 109.943 255.541 105.264 251.513C103.498 250.015 102.687 249.595 101.924 249.828C100.397 250.297 99.4413 251.28 98.5342 253.434C97.1988 256.665 96.912 257.227 95.6713 258.818C94.3826 260.598 93.6663 264.719 94.3346 266.732C95.051 268.84 96.7693 268.7 99.5374 266.265C103.117 263.173 105.026 262.002 106.362 262.097C107.031 262.144 108.081 261.957 108.606 261.675C109.465 261.253 110.802 261.441 115.527 262.612C118.773 263.455 121.636 264.297 121.827 264.485C122.017 264.672 120.968 265.328 119.44 265.843C117.818 266.452 115.383 267.903 113.474 269.449C109.513 272.679 107.27 273.522 103.546 273.101C101.589 272.913 100.491 273.008 99.967 273.428C99.1078 274.132 99.0118 277.69 99.7762 279.189C100.11 279.704 100.397 282.279 100.445 284.901C100.539 291.035 101.589 293.189 104.835 293.844C106.744 294.219 107.222 293.47 107.46 289.443C107.651 286.727 108.081 285.37 109.275 283.122C110.134 281.529 111.184 279.563 111.565 278.72C112.424 276.987 116.959 274.739 124.404 272.399C129.464 270.806 131.23 269.307 131.23 266.685C131.23 265.843 131.899 263.876 132.662 262.377C133.76 260.271 134.189 258.585 134.523 255.354C135 250.951 136.241 246.036 137.006 245.567C137.244 245.379 137.435 244.49 137.435 243.459C137.435 242.477 137.722 240.135 138.103 238.262C138.485 236.342 138.963 233.814 139.105 232.55C139.249 231.332 139.487 230.348 139.631 230.348C139.774 230.348 140.394 230.677 141.014 231.097C142.59 232.128 144.451 231.613 145.454 229.88C145.978 228.944 146.647 228.475 147.411 228.475C148.365 228.475 148.509 228.662 148.222 229.74C148.079 230.489 147.602 233.157 147.172 235.734C145.501 246.036 143.879 250.671 140.394 255.259C137.722 258.725 137.148 260.036 134.332 268.371C131.325 277.174 129.512 280.64 127.746 280.827C126.552 280.967 122.162 285.088 122.162 286.072C122.162 286.352 123.115 287.617 124.309 288.834C125.502 290.052 126.457 291.316 126.457 291.644C126.457 291.926 126.744 292.159 127.126 292.159C127.985 292.159 129.942 294.781 129.56 295.437C129.416 295.717 126.887 295.952 123.928 295.999L118.581 296.092L124.787 296.374C128.414 296.514 130.992 296.795 130.992 297.076C130.992 297.357 128.127 297.638 123.832 297.778L116.672 298.059L123.975 298.152C130.275 298.247 131.516 298.387 132.567 299.136C133.712 299.885 135.191 300.025 144.356 300.307C150.131 300.447 163.353 300.822 173.711 301.103C194.187 301.711 294.802 301.806 303.249 301.291C306.066 301.103 308.167 300.775 307.832 300.587C306.591 299.838 316.949 299.464 337.425 299.558C349.118 299.605 358.951 299.464 359.285 299.23C359.905 298.856 345.157 298.247 335.563 298.247C332.843 298.247 330.743 298.107 330.934 297.872C331.124 297.685 334.035 297.31 337.329 297.076L343.391 296.561L336.231 296.234C332.317 296.046 324.585 295.765 319.145 295.624C313.703 295.484 309.311 295.203 309.454 295.063C309.598 294.968 316.09 294.688 323.917 294.501L338.14 294.173L322.198 294.126C308.023 294.126 306.21 294.032 305.827 293.377C305.588 292.955 303.918 291.878 302.152 290.989C300.148 290.052 298.143 288.554 296.997 287.289C295.947 286.072 294.802 285.135 294.515 285.135C294.181 285.135 294.086 284.901 294.229 284.666C294.373 284.386 294.086 284.199 293.56 284.199C291.222 284.199 292.272 279.796 297.093 269.167C299.957 262.986 300.768 260.739 302.344 254.932C303.775 249.687 304.014 249.266 305.827 248.845C307.784 248.424 309.263 247.112 309.884 245.239C310.696 242.992 310.122 236.858 308.787 232.55C307.832 229.506 307.832 229.318 308.595 225.76C309.169 223.23 309.454 219.297 309.55 212.554C309.837 192.138 310.409 184.458 311.602 184.458C311.794 184.458 312.176 185.536 312.414 186.893C312.653 188.204 313.177 189.515 313.607 189.75C314.896 190.546 320.624 188.486 324.824 185.769C328.356 183.429 328.595 183.194 328.738 181.415C328.834 180.432 328.786 178.886 328.595 178.044C328.356 176.733 328.021 176.451 326.399 176.029C322.772 175.047 322.437 175.327 322.152 179.261C321.913 182.585 321.865 182.772 320.576 183.194C318.141 183.943 317.808 183.054 317.521 175.655C317.33 170.832 317.378 168.866 317.808 168.35C318.523 167.555 317.33 160.577 316.184 158.892C315.803 158.33 314.371 157.486 312.987 157.066C309.932 156.082 307.736 155.005 307.26 154.302C306.83 153.694 306.782 150.93 307.164 149.432C307.402 148.683 308.071 148.215 309.646 147.746C311.65 147.184 311.889 146.951 312.224 145.406C312.414 144.469 313.035 142.83 313.559 141.752C314.275 140.254 314.371 139.646 313.942 138.897C313.655 138.335 313.464 136.695 313.512 135.197C313.751 128.033 310.505 125.036 302.964 125.598C299.002 125.832 297.045 127.003 295.375 129.999C294.181 132.107 293.99 132.247 291.651 132.575C290.314 132.809 288.357 133.371 287.356 133.886C284.445 135.291 281.867 135.571 280.292 134.589C279.575 134.12 278.574 133.278 278.096 132.762L277.237 131.779L277.57 132.949C278 134.589 279.146 135.759 281.008 136.555C282.726 137.257 282.964 137.632 281.675 137.632C281.199 137.632 279.385 136.79 277.618 135.759C275.28 134.355 273.991 133.886 272.654 133.933L270.841 134.027L272.75 134.307C274.946 134.682 276.807 135.571 276.807 136.228C276.807 136.508 276.52 136.695 276.235 136.742C275.423 136.742 277.476 137.586 280.149 138.335L282.297 138.897L280.387 139.225C277.428 139.739 276.426 140.301 275.661 141.752C274.85 143.298 272.512 143.907 269.075 143.438C267.309 143.251 267.166 143.251 267.977 143.767C268.503 144.094 270.077 144.609 271.462 144.844L273.991 145.358L272.56 147.231C270.745 149.573 270.651 150.556 272.416 148.59C273.704 147.139 276.617 145.124 277.524 145.124C277.762 145.124 277.094 145.968 276.091 146.997C274.659 148.402 274.421 148.87 275.089 148.87C275.661 148.87 275.852 149.105 275.615 149.761C275.423 150.323 275.948 150.088 277.189 148.917C279.003 147.279 285.876 143.86 285.876 144.656C285.876 144.844 284.826 145.686 283.49 146.529C280.864 148.215 280.483 148.59 282.297 147.934C284.826 146.997 286.639 145.873 288.454 144.235L290.314 142.549L289.981 144.187C289.217 147.793 289.122 149.245 289.646 150.088C290.076 150.885 290.172 150.837 290.172 149.573C290.268 147.419 291.842 143.485 292.606 143.485C293.036 143.485 293.418 142.643 293.704 141.003C294.181 138.428 294.658 137.961 295.184 139.505C295.327 140.021 296.328 141.519 297.38 142.83C299.098 144.937 299.289 145.406 299.002 146.951C298.333 150.837 296.521 152.383 290.076 154.443C286.496 155.613 283.393 158.002 281.008 161.467C280.196 162.638 278.335 164.885 276.855 166.431C272.893 170.552 270.697 173.314 269.934 175.187C269.218 176.826 269.266 176.92 270.555 178.652C271.939 180.572 274.659 182.585 280.673 186.331C283.108 187.83 284.969 189.422 286.21 191.061L288.12 193.59L286.448 197.102C283.632 203.096 283.393 204.079 283.441 208.34C283.586 215.363 285.589 220.421 291.27 227.913C292.462 229.411 293.512 231.566 294.038 233.532C295.469 238.496 295.423 238.589 292.033 238.964C290.459 239.105 287.261 239.855 285.017 240.65C280.053 242.335 278.812 242.383 277.38 240.931C276.807 240.275 275.328 239.386 274.087 238.964C272.178 238.215 271.795 238.215 270.697 238.824C268.168 240.229 267.5 241.774 267.452 246.41C267.405 248.798 267.214 251.748 267.022 252.966C266.355 257.367 269.075 262.659 272.034 262.659C272.75 262.659 273.562 262.377 273.848 262.05C274.134 261.769 274.659 259.568 275.089 257.274C275.615 254.23 276.091 252.825 276.759 252.31C277.285 251.888 277.857 250.999 278.048 250.297C278.668 247.862 279.957 247.487 287.213 247.814C290.792 248.002 293.895 248.329 294.134 248.564C294.325 248.751 293.56 250.999 292.416 253.621C289.742 259.38 289.409 260.691 288.74 267.014C287.737 276.941 286.163 282.513 284.206 283.262C283.393 283.543 282.964 284.292 282.534 286.165C282.201 287.523 281.675 289.116 281.294 289.678C280.34 291.222 280.483 292.159 281.914 293.657L283.203 294.968H248.647V293.704C248.647 292.955 248.121 291.878 247.358 291.129C246.26 290.005 245.973 289.209 245.735 286.165C245.449 283.028 245.544 282.326 246.403 280.78C247.549 278.767 247.74 278.72 248.932 280.031C250.221 281.482 252.561 282.326 255.09 282.326C258.336 282.326 258.431 281.436 255.807 277.409C255.281 276.612 254.803 274.834 254.661 273.335C254.47 270.9 254.565 270.478 255.949 268.652C256.761 267.529 259.434 264.719 261.867 262.331C265.161 259.193 266.307 257.742 266.307 256.899C266.307 256.243 265.543 254.277 264.637 252.544L262.919 249.36L263.682 244.63C264.063 242.055 264.922 238.589 265.639 236.951C266.307 235.312 267.118 232.737 267.452 231.239C268.12 228.007 268.407 227.633 269.409 228.662C271.223 230.442 273.371 228.662 274.421 224.496C274.707 223.465 275.28 221.873 275.661 220.983C276.52 218.969 275.996 217.144 274.373 216.254C273.419 215.785 273.18 215.88 272.369 216.816C271.701 217.658 271.556 218.36 271.749 219.719C272.273 222.903 271.462 222.575 270.268 219.064C268.836 214.896 267.738 213.35 265.733 212.508C262.965 211.43 262.726 210.353 265.161 210.119C266.737 209.979 266.975 209.791 267.834 207.638C268.455 206.045 268.836 203.705 268.979 200.379L269.218 195.463L267.548 193.778C265.543 191.717 262.106 190.733 259.004 191.248C257.906 191.436 256.522 191.623 255.949 191.623C255.329 191.67 254.851 191.857 254.851 192.045C254.851 192.232 254.183 192.981 253.324 193.778C251.939 195.042 251.797 195.416 251.797 198.131C251.748 201.41 252.991 204.079 255.759 206.654C256.57 207.451 257.238 208.433 257.238 208.855C257.238 209.979 255.09 211.524 252.99 211.899C252.035 212.039 250.699 212.601 249.984 213.07C249.267 213.585 247.978 214.099 247.167 214.287C244.972 214.709 240.58 217.191 239.721 218.455C238.767 219.906 239.148 221.357 242.203 227.633C244.875 233.157 246.069 233.954 248.217 231.706C248.98 230.91 249.601 230.068 249.601 229.88C249.601 229.646 248.695 228.804 247.644 227.96C245.544 226.321 243.922 223.465 243.874 221.311C243.874 219.953 244.685 219.626 245.735 220.608C246.069 220.937 247.214 221.217 248.312 221.217H250.317L250.46 226.134C250.556 230.068 250.413 231.613 249.649 233.861C246.499 243.272 246.451 246.41 249.458 249.595C250.556 250.764 250.651 251.186 250.651 255.821C250.651 260.458 250.747 260.786 251.606 260.786C252.417 260.786 252.513 261.02 252.274 262.002C251.797 263.735 249.124 268.278 248.551 268.278C248.265 268.278 246.977 269.402 245.687 270.713C243.731 272.82 243.444 273.382 243.683 274.506C244.064 276.192 241.248 280.593 239.959 280.313C239.482 280.171 238.384 280.874 237.191 282.091C235.521 283.777 235.234 284.339 235.473 285.323C235.664 286.025 236.332 287.056 237.001 287.617C238.002 288.413 240.102 291.831 241.391 294.594C241.487 294.828 238.767 294.968 235.33 294.968C231.894 294.968 229.078 294.875 229.078 294.735C229.078 294.641 229.602 294.032 230.27 293.377C230.939 292.721 231.464 291.784 231.464 291.316C231.464 290.24 229.746 287.945 228.934 287.945C227.884 287.945 223.54 285.744 222.251 284.573C221.297 283.684 221.107 283.309 221.536 282.888C221.966 282.466 221.966 282.326 221.392 282.326C221.059 282.326 220.248 281.624 219.674 280.78C218.72 279.422 218.576 278.627 218.576 274.552C218.576 272.024 218.911 267.996 219.292 265.703C219.674 263.361 220.438 258.865 220.916 255.634C221.727 250.577 222.205 249.126 224.256 244.865C225.593 242.148 226.691 239.293 226.691 238.449C226.691 237.607 226.071 235.359 225.258 233.392C223.636 229.318 223.54 228.616 224.59 227.492C225.306 226.743 225.212 226.462 223.779 223.746L222.205 220.842L223.493 214.943C225.688 205.062 225.879 203.423 225.306 197.991C225.019 195.276 224.925 192.326 225.019 191.436C225.164 190.546 225.497 188.018 225.784 185.723C226.071 183.476 226.452 181.65 226.643 181.65C226.834 181.65 227.263 182.165 227.55 182.82C228.026 183.803 228.409 183.991 230.128 183.991C233.229 183.991 235.33 183.241 238.147 181.181C239.53 180.151 240.961 179.308 241.248 179.308C241.583 179.308 242.394 178.886 243.111 178.324C244.112 177.575 244.351 177.013 244.303 175.422C244.303 174.345 244.016 172.612 243.731 171.628C243.157 169.85 243.014 169.755 240.341 169.146C238.528 168.726 237.334 168.679 237.049 168.959C236.762 169.241 236.571 170.926 236.523 172.705C236.523 175.515 236.38 176.031 235.712 176.031C234.566 176.031 234.184 174.625 234.088 169.943C233.946 165.073 231.368 152.898 230.128 151.212C229.602 150.557 228.313 149.761 227.121 149.433C223.301 148.31 220.82 147.231 220.342 146.436C220.009 145.92 219.961 145.078 220.294 143.86C220.677 142.316 220.963 141.987 222.777 141.472C224.59 140.863 224.782 140.676 224.782 139.272C224.782 138.428 225.164 136.462 225.688 134.917C226.261 132.996 226.404 131.872 226.117 131.311C225.832 130.89 225.736 129.859 225.832 129.11C225.975 128.314 225.688 126.441 225.212 124.989C224.734 123.491 224.447 121.571 224.543 120.728C224.877 118.106 223.875 117.31 220.103 117.17C218.337 117.123 215.808 117.31 214.471 117.684ZM278.716 140.255C278.716 140.63 276.665 142.269 276.139 142.316C275.9 142.316 276.187 141.8 276.807 141.145C277.857 140.021 278.716 139.646 278.716 140.255ZM288.644 171.159C290.935 181.181 291.127 184.6 289.361 185.254C287.642 185.911 280.579 180.806 277.666 176.826L276.617 175.422L281.629 170.832C284.349 168.304 286.783 166.289 287.069 166.384C287.308 166.431 288.024 168.584 288.644 171.159ZM145.215 181.603C145.645 183.522 146.647 194.76 146.456 194.947C146.361 194.994 145.215 194.994 143.975 194.854C142.16 194.714 141.349 194.339 140.155 193.168C138.055 191.108 135.335 185.536 135.86 184.412C136.05 183.943 137.626 182.398 139.344 181.041L142.447 178.511L143.688 179.448C144.404 179.917 145.071 180.899 145.215 181.603ZM139.916 199.397C141.54 201.737 142.733 201.832 145.025 199.911C147.887 197.524 148.174 199.022 146.074 204.781C145.31 206.889 144.356 209.557 144.021 210.728C143.688 211.946 143.21 212.976 142.971 213.023C142.781 213.07 141.921 212.086 141.062 210.868C139.822 208.995 139.105 208.527 136.624 207.638C131.993 205.998 130.992 204.734 133.473 203.563C135.478 202.627 135.908 199.49 134.81 194.527C134.476 193.168 134.523 193.168 136.576 195.276C137.722 196.493 139.201 198.319 139.916 199.397ZM141.444 223.605C141.588 224.027 141.301 224.87 140.776 225.525L139.822 226.743V224.776C139.822 222.81 140.824 222.061 141.444 223.605ZM163.638 240.978C167.505 244.677 167.982 245.848 166.836 249.313C166.407 250.624 165.93 253.341 165.786 255.307C165.596 257.32 165.31 258.913 165.118 258.913C164.927 258.913 163.877 258.585 162.779 258.211C160.25 257.367 158.628 257.882 158.245 259.755C158.054 260.458 157.959 263.595 158.054 266.685C158.15 270.385 157.959 273.053 157.53 274.646C156.575 278.065 157.386 282.044 159.391 283.824C160.202 284.573 161.157 285.135 161.587 285.135C162.398 285.135 163.4 282.981 164.736 278.392C165.214 276.612 165.977 274.552 166.407 273.757C167.314 271.977 167.743 272.586 168.125 276.238C168.412 278.392 168.269 279.189 167.266 281.155C166.599 282.419 165.548 284.199 164.927 285.041C163.925 286.352 163.829 286.821 164.212 287.898C164.498 288.647 165.118 289.631 165.644 290.098C166.121 290.52 166.551 291.176 166.551 291.551C166.551 291.878 167.075 292.159 167.887 292.206C169.176 292.206 171.754 294.641 170.941 295.156C170.75 295.25 163.973 295.437 155.906 295.484C141.731 295.624 141.253 295.624 139.964 294.688C139.201 294.126 138.581 293.377 138.485 292.955C138.342 292.253 139.631 292.159 151.849 292.018L165.357 291.926L151.42 291.784L137.53 291.691L136.957 290.052C136.671 289.162 136.528 287.758 136.719 287.008C136.909 286.212 136.767 284.573 136.433 283.309L135.86 281.062L138.533 275.723C143.831 265.187 148.795 256.478 150.418 254.792C151.324 253.855 152.375 252.31 152.709 251.42C153.949 248.189 159.391 237.84 159.868 237.84C160.107 237.84 161.826 239.246 163.638 240.978ZM213.517 242.897C213.327 243.601 212.562 246.363 211.799 249.078C210.127 255.072 209.937 259.334 211.179 268.278C212.181 275.817 211.99 283.028 210.796 284.854C210.32 285.51 209.985 286.681 209.985 287.476C209.985 288.272 209.555 289.771 208.983 290.847C208.363 292.018 208.124 293.142 208.266 293.844L208.553 294.968H196.143C184.306 294.968 183.733 294.922 183.733 294.079C183.733 293.611 182.635 292.206 181.347 290.942C178.96 288.694 175.81 283.402 176.192 282.279C176.288 281.951 175.714 280.967 174.855 280.078C173.805 278.954 173.233 277.783 173.042 276.332C172.613 273.148 172.707 265.656 173.185 264.344C173.711 263.126 177.814 260.646 182.635 258.678C194.139 254.043 201.823 251.28 204.019 250.999C207.265 250.577 208.218 249.735 210.32 245.567C211.273 243.741 212.229 242.008 212.467 241.728C213.23 240.791 213.851 241.493 213.517 242.897ZM148.652 296.841C149.844 297.123 149.606 297.216 147.363 297.263C145.788 297.263 144.595 297.123 144.595 296.841C144.595 296.327 146.504 296.327 148.652 296.841Z" fill="#373535"/>
</g>
<mask id="mask1_15_48" style="mask-type:luminance" maskUnits="userSpaceOnUse" x="0" y="0" width="417" height="424">
<path d="M417 0H0.66626V423.962H417V0Z" fill="white"/>
</mask>
<g mask="url(#mask1_15_48)">
<mask id="mask2_15_48" style="mask-type:luminance" maskUnits="userSpaceOnUse" x="3" y="2" width="411" height="420">
<path d="M3.47705 2.7596H413.834V421.202H3.47705V2.7596Z" fill="white"/>
</mask>
<g mask="url(#mask2_15_48)">
<mask id="mask3_15_48" style="mask-type:luminance" maskUnits="userSpaceOnUse" x="3" y="2" width="411" height="420">
<path d="M60.2171 90.4296C59.3772 75.4936 59.4527 73.5424 59.9111 70.7665C60.5232 67.2387 60.9047 62.8108 63.198 59.0579C66.3326 54.1045 74.2815 50.1266 79.0205 44.9481C83.7594 39.7695 87.9645 30.0889 91.556 28.1377C93.2386 27.2362 94.9967 27.5367 96.1426 27.8372C96.9839 28.0623 97.5946 28.5878 98.053 29.2629C98.6651 30.0889 99.5064 32.2652 99.1235 32.5657C98.5128 33.0158 91.7098 28.887 91.8621 28.0623C91.9389 27.5367 94.3077 27.1608 95.4551 27.3117C96.5255 27.5367 97.8238 28.2119 98.5128 29.0379C99.2004 29.8639 99.8111 31.2141 99.6587 32.3393C99.5819 33.6154 98.3591 36.2431 97.4423 36.2431C95.9903 36.3172 91.2514 29.2629 91.8621 28.0623C92.3205 27.2362 95.2259 27.2362 96.4487 27.6122C97.5192 27.9868 98.5883 29.0379 99.048 30.0135C99.5064 30.9891 99.6587 32.4148 99.3527 33.4658C99.048 34.5169 97.9007 36.3172 97.29 36.2431C96.2195 36.018 93.697 29.1133 94.6138 27.2362C95.2259 25.886 96.9839 25.9601 99.3527 25.1355C105.391 22.8838 124.578 18.3049 132.297 15.4535C136.578 13.8769 140.552 10.1254 142.158 10.9501C143.381 11.5511 143.458 16.3537 143.075 16.5046C142.769 16.6542 141.471 15.153 141.164 14.3284C140.782 13.5778 140.706 12.7518 140.935 11.9257C141.088 10.9501 141.929 9.5999 142.693 8.84933C143.304 8.3238 144.068 8.0233 144.833 7.79827C145.597 7.64869 146.514 7.72281 147.279 7.87373C148.043 8.09877 149.42 8.92345 149.343 9.07437C149.343 9.22395 144.91 8.24834 144.91 7.87373C144.987 6.67309 175.638 2.92025 180.988 3.67081C182.517 3.89585 183.204 4.19635 183.893 4.87146C184.657 5.54656 185.191 6.7472 185.268 7.72281C185.345 8.69841 184.962 9.89905 184.427 10.7251C183.816 11.4757 182.135 12.6763 181.675 12.3758C181.065 11.9257 181.446 6.14756 183.358 4.4955C185.88 2.31925 194.594 2.92025 198.416 3.51989C201.014 3.89585 204.684 5.39699 204.607 5.92252C204.53 6.44671 197.193 7.12316 196.81 6.44671C196.581 5.92252 198.187 4.27046 199.18 3.82039C200.097 3.29486 201.549 3.06982 202.62 3.37032C203.69 3.59535 204.99 4.34592 205.6 5.32153C206.288 6.37259 206.977 9.14983 206.213 9.82494C205.065 10.7251 197.116 8.6243 196.887 7.3482C196.581 6.29713 200.097 3.82039 201.474 3.37032C202.314 3.14528 203.078 3.44578 203.842 3.67081C204.53 3.97131 205.294 4.34592 205.83 5.02103C206.442 5.7716 207.052 7.27274 207.052 8.24834C207.129 9.07437 206.9 9.89905 206.519 10.5755C206.136 11.2506 205.6 11.8516 204.913 12.3017C204.301 12.7518 203.307 13.5023 202.696 13.1264C201.474 12.4513 200.097 4.34592 201.168 3.44578C201.778 2.92025 203.69 3.59535 204.607 4.27046C205.6 5.09649 206.671 7.0477 206.748 8.3238C206.823 9.44898 206.213 10.7251 205.524 11.5511C204.761 12.3758 202.772 13.5778 202.39 13.2018C201.703 12.6022 203.232 5.24607 205.219 4.57096C207.817 3.67081 213.474 10.1995 218.136 12.9768C223.258 15.9791 231.054 18.6808 234.952 21.9082C237.628 24.0089 240.532 28.6619 240.609 28.5878C240.685 28.5878 237.093 24.0844 237.322 23.8594C237.475 23.7084 238.851 24.3849 239.386 24.9845C240.074 25.7351 240.838 27.0867 240.991 28.2119C241.068 29.2629 240.685 30.6886 239.997 31.5901C239.31 32.4148 238.01 33.1653 237.016 33.4658C236.175 33.6909 234.952 33.9159 234.571 33.3904C233.806 32.2652 236.252 24.234 237.551 23.7084C238.239 23.4834 239.08 24.3094 239.691 24.9104C240.38 25.5855 241.144 26.9358 241.22 28.0623C241.297 29.1133 240.915 30.539 240.226 31.4392C239.616 32.2652 238.239 33.0158 237.245 33.3163C236.404 33.5413 235.258 33.7663 234.877 33.2408C234.035 32.1897 236.023 24.5345 237.245 24.0844C238.087 23.7839 239.539 25.2096 240.151 26.1852C240.762 27.0867 240.991 28.5878 240.915 29.5634C240.838 30.3881 240.455 31.1387 239.997 31.7397C239.462 32.4148 238.851 32.9403 238.087 33.3163C237.169 33.6909 235.106 34.2164 234.571 33.6154C233.577 32.4902 235.793 24.3094 237.016 23.7839C237.628 23.5589 238.545 24.459 239.08 24.9845C239.691 25.5101 240.151 26.1852 240.38 26.9358C240.685 27.9114 240.685 29.488 240.303 30.4636C239.845 31.5146 238.851 32.5657 237.858 33.0158C236.864 33.4658 234.8 33.9914 234.265 33.3163C233.348 32.2652 235.641 24.6099 236.864 24.0844C237.475 23.8594 238.393 24.7595 239.003 25.285C239.539 25.8106 240.074 26.4857 240.303 27.2362C240.609 28.2119 240.609 29.7885 240.151 30.7641C239.768 31.8151 238.697 32.8648 237.704 33.3163C236.71 33.7663 234.8 34.2919 234.188 33.6154C233.042 32.5657 235.946 24.9104 235.106 24.0844C234.723 23.7839 233.271 24.5345 233.271 24.5345C233.194 24.459 234.646 23.7084 235.487 23.5589C236.252 23.4093 237.093 23.4834 237.858 23.7084C238.622 24.0089 239.386 24.459 239.92 24.9845C240.455 25.5855 240.915 26.2606 241.144 27.0112C241.374 28.0623 241.22 29.6375 240.838 30.539C240.532 31.2896 239.616 32.4902 239.386 32.4148C238.927 32.1897 238.851 26.2606 240.151 25.8106C242.443 24.9104 250.699 34.816 256.278 38.5689C261.706 42.0967 270.725 45.099 273.248 47.6498C274.394 48.7764 274.777 49.752 274.852 50.803C275.006 51.9282 274.623 53.2798 273.935 54.1799C273.323 55.0801 272.1 55.9061 270.954 56.1311C269.884 56.3562 267.82 56.3562 267.438 55.6056C266.826 54.4049 270.802 47.3507 272.177 47.1998C273.019 47.1256 274.088 49.0014 274.471 49.9015C274.777 50.6521 274.777 51.4781 274.7 52.2287C274.623 52.9793 274.318 53.804 273.783 54.4049C273.171 55.231 271.948 56.1311 270.878 56.3562C269.732 56.5812 267.744 56.5812 267.286 55.8306C266.674 54.63 270.725 47.2752 272.1 47.0502C272.713 46.8993 273.4 48.0258 273.859 48.6254C274.318 49.3019 274.623 50.0525 274.7 50.8771C274.7 51.8527 274.394 53.3539 273.783 54.2554C273.094 55.0801 271.871 55.9061 270.802 56.1311C269.732 56.3562 267.591 56.4316 267.286 55.6811C266.674 54.4049 271.184 47.1998 272.33 46.9747C272.713 46.8993 273.019 47.2752 273.323 47.6498C273.859 48.3263 274.852 49.6765 274.929 50.803C275.006 51.8527 274.623 53.2798 274.012 54.1799C273.323 55.0059 272.1 55.8306 271.031 56.0557C269.961 56.3562 267.897 56.3562 267.515 55.6056C266.903 54.4049 270.725 47.5757 272.025 47.3507C272.713 47.1998 273.4 48.3263 273.783 48.9259C274.241 49.601 274.547 50.3516 274.623 51.1776C274.623 52.1532 274.318 53.6544 273.706 54.5545C273.019 55.3806 271.796 56.2066 270.725 56.4316C269.655 56.7321 268.049 56.7321 267.209 55.9815C266.139 55.0059 265.222 51.7786 265.757 50.202C266.291 48.6254 268.967 46.6742 270.419 46.4492C271.49 46.2996 272.865 47.2752 273.629 47.9503C274.241 48.4759 274.7 49.151 274.852 49.9015C275.158 50.8771 275.006 52.4537 274.7 53.4293C274.394 54.1799 273.859 54.855 273.171 55.3051C272.33 55.8306 270.496 56.8062 269.807 56.3562C268.661 55.456 268.967 47.3507 270.113 46.6742C270.802 46.2242 272.56 47.2752 273.323 48.1012C274.165 48.8518 274.7 50.2775 274.852 51.2531C274.929 52.0778 274.7 52.9038 274.394 53.5789C274.088 54.2554 273.629 55.0059 272.942 55.456C272.1 56.0557 270.038 56.9572 269.503 56.5057C268.661 55.6811 270.113 47.6498 271.948 47.1256C274.777 46.3751 288.612 61.6101 287.847 63.4104C287.541 64.161 283.261 62.9604 283.109 63.5613C282.802 64.3119 290.293 69.5646 290.828 69.1145C291.287 68.7399 287.465 63.2609 287.771 63.0358C287.923 62.8862 289.91 64.4615 290.445 65.4371C290.981 66.4127 291.058 67.9893 290.904 69.0404C290.751 69.8651 290.37 70.5415 289.681 71.1412C288.993 71.8917 287.465 72.6423 286.471 72.7919C285.63 72.9428 284.331 73.0924 284.025 72.4927C283.261 71.2907 286.242 63.2609 287.694 62.8862C288.535 62.7353 289.91 64.4615 290.445 65.2875C290.828 66.0381 290.981 66.8628 290.981 67.6888C290.981 68.4394 290.828 69.3395 290.37 70.016C289.835 70.9161 288.687 71.9672 287.618 72.4173C286.548 72.7919 284.025 72.7178 283.948 72.3418C283.796 71.8917 288.077 68.9649 290.904 68.5889C294.726 67.9893 300.841 69.9405 304.968 71.5171C308.638 72.9428 311.007 74.8185 314.677 77.2198C319.797 80.598 330.575 86.9017 332.639 90.2786C333.403 91.5547 333.403 92.6813 333.097 93.731C332.868 94.782 331.951 96.0581 331.187 96.6591C330.499 97.1833 329.735 97.4838 328.893 97.5593C328.129 97.6347 327.289 97.6347 326.525 97.3342C325.531 96.9583 323.619 95.6081 323.773 95.0825C324.078 94.1824 332.18 93.2809 332.716 94.1824C333.022 94.7079 331.57 96.5082 330.805 97.1092C330.116 97.7089 329.429 98.0094 328.587 98.0848C327.518 98.1603 325.989 97.9339 325.071 97.3342C324.078 96.8087 323.238 95.4572 322.855 94.557C322.626 93.731 322.396 92.9818 322.779 92.1557C323.467 90.73 326.829 88.0283 328.587 87.8032C329.812 87.6523 331.11 88.4783 331.874 89.1535C332.563 89.679 332.945 90.4296 333.174 91.1047C333.48 91.8552 333.632 92.6813 333.403 93.5059C333.251 94.4815 332.563 95.9086 331.645 96.5837C330.805 97.2588 328.741 98.1603 328.283 97.7843C327.594 97.1092 328.97 90.5791 330.652 89.9795C332.639 89.3785 337.99 94.7079 340.512 97.0338C342.347 98.8354 344.181 100.636 344.793 102.288C345.328 103.488 345.251 104.839 344.945 105.89C344.716 106.64 344.181 107.315 343.645 107.916C343.035 108.442 342.27 108.892 341.506 109.117C340.741 109.267 339.825 109.342 339.06 109.192C338.296 109.042 337.455 108.591 336.842 108.141C336.232 107.616 335.62 107.016 335.39 106.19C335.009 104.99 335.161 102.813 335.697 101.613C336.309 100.486 337.531 99.5105 338.525 98.985C339.289 98.6104 340.129 98.5349 340.971 98.6104C341.735 98.6845 342.576 98.8354 343.341 99.3609C344.181 99.9606 345.174 101.237 345.48 102.212C345.786 102.963 345.71 103.938 345.634 104.614C345.557 105.065 345.634 105.589 345.251 105.74C344.181 106.266 336.003 103.038 335.773 101.687C335.62 100.862 337.378 99.586 338.371 99.1359C339.442 98.7599 340.971 98.6845 342.041 98.985C343.112 99.3609 344.258 100.411 344.87 101.237C345.328 101.912 345.557 102.813 345.557 103.564C345.634 104.314 345.71 105.665 345.099 105.89C343.876 106.491 336.461 102.662 336.155 101.312C336.003 100.636 337.073 99.8865 337.684 99.435C338.296 98.985 339.136 98.6104 339.977 98.4594C340.741 98.3099 341.658 98.3853 342.423 98.6845C343.187 98.9095 343.952 99.3609 344.487 99.9606C345.022 100.486 345.48 101.237 345.71 101.987C345.939 102.738 345.939 103.789 345.863 104.464C345.786 104.914 345.786 105.139 345.48 105.589C344.716 106.491 341.658 108.591 340.206 108.742C339.289 108.892 338.525 108.517 337.837 108.066C336.996 107.466 335.926 106.34 335.544 105.29C335.161 104.239 335.238 102.738 335.697 101.687C336.155 100.636 337.378 99.586 338.296 99.1359C339.06 98.7599 340.129 98.2344 340.665 98.6845C341.735 99.5105 341.658 107.841 340.435 108.591C339.748 109.042 337.913 107.916 337.073 107.166C336.309 106.34 335.697 104.914 335.544 103.938C335.467 103.038 335.62 102.212 336.003 101.537C336.309 100.787 336.767 100.111 337.455 99.586C338.296 98.985 339.671 98.3853 340.894 98.4594C342.347 98.5349 343.876 99.435 345.48 100.486C347.774 101.987 350.144 104.239 352.742 107.315C356.945 112.42 362.679 122.1 366.806 129.381C370.628 136.21 376.132 145.592 376.896 149.645C377.202 151.296 377.049 152.271 376.515 153.247C375.979 154.223 374.909 155.274 373.838 155.724C372.768 156.098 371.241 156.174 370.17 155.799C369.023 155.423 367.265 154.372 367.341 153.472C367.418 151.971 374.986 147.694 376.284 148.218C376.896 148.444 376.896 149.795 376.973 150.545C376.973 151.371 376.819 152.196 376.438 152.946C375.903 153.848 374.755 154.973 373.686 155.423C372.693 155.873 371.087 155.873 370.016 155.499C368.947 155.123 367.035 153.547 367.265 153.171C367.494 152.572 375.29 153.247 375.52 153.997C375.673 154.372 374.451 155.274 373.686 155.574C372.693 156.024 371.087 156.174 370.016 156.024C369.176 155.799 368.412 155.349 367.8 154.824C367.189 154.298 366.729 153.547 366.425 152.797C366.119 152.046 366.042 151.146 366.119 150.396C366.271 149.645 366.348 148.444 367.035 148.144C368.487 147.543 375.75 150.47 376.438 152.122C376.819 153.097 375.75 154.598 374.909 155.423C374.145 156.174 372.616 156.775 371.545 156.924C370.705 157 369.864 156.849 369.1 156.474C368.183 156.024 366.96 154.824 366.5 153.922C366.042 153.171 365.583 152.046 366.042 151.521C366.96 150.47 375.673 150.396 376.438 151.596C376.896 152.271 375.597 154.147 374.909 154.898C374.374 155.574 373.609 155.949 372.768 156.174C371.774 156.399 370.17 156.399 369.1 155.949C368.029 155.499 366.96 154.372 366.5 153.396C366.042 152.647 365.583 151.746 366.042 150.995C366.806 149.57 372.693 146.718 374.603 147.318C376.132 147.919 376.055 150.621 377.278 152.496C379.113 155.274 383.241 159.326 384.845 161.878C385.916 163.604 386.222 164.355 386.909 166.306C388.132 169.983 389.661 176.812 390.425 182.667C391.267 189.122 390.425 197.902 391.267 203.381C391.802 207.133 393.025 209.31 393.56 212.612C394.248 216.215 394.629 219.067 394.935 224.245C395.623 234.678 396.847 260.345 395.776 271.077C395.241 276.781 394.858 283.16 393.025 283.986C391.877 284.436 388.59 281.434 388.59 281.434C388.59 281.509 391.19 282.71 391.877 283.61C392.413 284.286 392.642 285.111 392.719 285.862C392.796 286.688 392.719 287.512 392.413 288.263C391.954 289.239 390.884 290.441 389.89 290.965C388.897 291.416 386.832 291.942 386.222 291.265C385.304 290.216 387.674 281.81 389.05 281.358C389.89 281.059 391.419 282.634 392.031 283.46C392.566 284.136 392.796 284.962 392.871 285.712C392.948 286.537 392.871 287.363 392.49 288.113C392.031 289.089 391.038 290.29 390.044 290.74C388.973 291.265 386.909 291.791 386.374 291.116C385.457 290.065 387.826 282.184 389.126 281.659C389.738 281.358 390.731 282.184 391.267 282.785C392.031 283.536 392.796 285.037 392.948 286.013C393.1 286.837 392.871 287.739 392.566 288.414C392.26 289.165 391.725 289.915 391.113 290.441C390.502 290.891 389.661 291.341 388.897 291.49C388.132 291.641 386.528 291.641 386.451 291.416C386.374 291.04 390.884 287.663 392.337 288.564C396.006 290.74 393.406 321.136 392.796 332.018C392.49 338.623 391.802 344.552 390.961 347.854C390.579 349.43 390.273 350.481 389.661 351.231C389.126 351.906 388.438 352.356 387.597 352.507C386.603 352.808 384.999 352.882 384.005 352.432C382.935 351.982 381.864 350.857 381.329 349.955C380.948 349.28 380.794 348.38 380.871 347.629C380.871 346.879 380.871 345.903 381.483 345.302C382.782 344.327 388.057 343.726 389.89 344.852C391.496 345.828 391.419 348.155 392.413 350.931C394.477 356.86 400.821 374.122 400.592 378.85C400.439 380.501 399.903 381.402 399.139 382.153C398.374 382.978 396.999 383.654 395.852 383.804C394.706 383.879 393.254 383.503 392.337 382.828C391.419 382.153 390.349 380.951 390.349 379.75C390.273 378.325 393.406 374.872 393.254 374.797C393.177 374.723 390.884 377.799 390.731 377.649C390.579 377.574 391.113 376.073 391.648 375.398C392.337 374.647 393.712 373.747 394.783 373.522C395.623 373.221 396.464 373.371 397.228 373.596C397.993 373.747 398.834 374.197 399.369 374.797C399.98 375.322 400.439 376.073 400.745 376.823C400.974 377.574 400.821 379.225 400.974 379.225C401.051 379.225 400.897 376.148 401.432 375.999C401.967 375.772 403.573 377.649 404.031 378.55C404.413 379.3 404.567 380.126 404.49 380.951C404.338 382.002 403.649 383.503 402.961 384.254C402.426 384.929 401.661 385.38 400.821 385.53C399.828 385.83 397.611 386.055 397.152 385.305C396.387 384.104 399.903 376.373 401.28 375.999C401.891 375.848 402.732 376.899 403.19 377.574C403.725 378.175 404.108 378.926 404.261 379.75C404.338 380.801 404.184 382.378 403.573 383.353C402.961 384.329 401.738 385.229 400.668 385.605C399.599 385.904 397.381 386.129 396.999 385.38C396.235 384.178 400.439 376.674 401.586 376.298C401.967 376.224 402.273 376.598 402.655 376.974C403.267 377.574 404.413 378.926 404.567 380.051C404.796 381.177 404.49 382.677 403.955 383.654C403.344 384.63 402.121 385.53 400.974 385.904C399.903 386.205 397.458 386.129 397.305 385.679C397.152 385.004 402.044 381.177 403.725 381.402C405.102 381.627 405.866 383.579 406.935 385.229C408.541 387.63 410.758 391.684 411.674 394.611C412.439 396.938 413.28 400.914 412.899 401.065C412.439 401.215 409.229 395.962 409.306 395.887C409.458 395.811 413.051 398.963 413.434 400.689C413.815 402.341 412.899 404.367 412.134 406.093C411.445 407.745 410.528 409.171 409.076 410.897C407.089 413.224 403.19 416.826 400.592 418.402C398.757 419.528 397.228 420.053 395.47 420.428C393.789 420.879 391.573 421.029 390.119 420.879C389.126 420.804 388.361 420.579 387.597 420.203C386.909 419.753 386.222 419.227 385.763 418.477C385.228 417.501 384.845 415.926 384.999 414.799C385.228 413.599 385.993 412.248 386.909 411.498C387.826 410.821 390.044 409.846 390.579 410.371C391.342 411.122 389.661 418.402 387.215 419.828C384.081 421.63 375.52 418.102 371.622 417.276C369.329 416.826 368.183 416.676 366.119 415.85C363.29 414.799 359.316 412.022 356.487 411.046C354.5 410.371 353.125 410.596 351.061 409.921C348.003 408.796 344.487 405.943 340.435 404.518C335.544 402.867 328.587 402.116 323.313 401.29C318.957 400.689 315.287 400.689 311.084 400.014C306.497 399.264 299.542 398.439 296.867 396.862C295.567 396.112 294.88 395.212 294.497 394.161C294.115 393.11 294.115 391.608 294.497 390.559C294.88 389.508 296.026 388.457 296.942 387.931C297.707 387.481 298.777 386.955 299.313 387.331C300.459 388.156 300.612 396.637 299.389 397.463C298.7 397.913 296.867 396.787 296.026 396.187C295.338 395.662 294.88 394.911 294.651 394.161C294.344 393.41 294.191 392.584 294.344 391.759C294.574 390.784 295.184 389.357 296.026 388.606C296.942 387.856 298.777 386.88 299.465 387.331C300.688 388.156 301.223 395.662 299.236 397.463C296.713 399.714 288.993 396.637 282.496 396.562C273.248 396.412 255.896 398.513 248.941 397.463C245.654 396.938 241.909 394.836 241.832 394.987C241.755 395.136 244.507 396.337 244.431 396.486C244.431 396.562 243.667 396.486 243.207 396.337C242.443 396.036 240.915 395.136 240.303 394.236C239.768 393.335 239.386 391.833 239.616 390.784C239.768 389.733 240.455 388.381 241.374 387.706C242.214 387.031 243.667 386.28 244.736 386.581C246.113 386.955 247.871 389.733 248.481 391.308C248.941 392.584 249.017 394.085 248.635 394.987C248.329 395.737 247.565 396.261 246.877 396.637C246.189 397.012 245.271 397.237 244.507 397.237C243.742 397.237 242.902 397.163 242.138 396.713C241.22 396.187 240.151 395.061 239.691 394.085C239.31 393.335 239.233 392.51 239.31 391.759C239.386 391.009 239.768 389.508 240.151 389.508C240.915 389.432 244.89 395.586 243.896 396.787C241.984 399.188 220.123 391.984 211.257 389.357C205.065 387.481 198.874 385.98 195.664 383.428C193.523 381.852 192.3 379.525 191.765 377.95C191.384 376.899 191.384 375.999 191.69 375.097C191.994 374.122 192.913 372.846 193.752 372.246C194.441 371.72 195.206 371.495 195.97 371.42C196.81 371.27 197.651 371.42 198.416 371.72C199.103 371.945 199.868 372.471 200.403 373.071C200.861 373.596 201.549 374.273 201.474 375.173C201.32 376.674 197.957 380.501 196.581 381.327C195.893 381.701 195.358 381.777 194.671 381.552C193.752 381.327 192.377 380.351 191.842 379.451C191.23 378.475 190.925 377.048 191.154 375.999C191.307 374.948 192.071 373.672 192.988 372.996C193.829 372.246 195.893 371.42 196.352 371.87C197.116 372.62 195.664 379.225 193.982 380.276C192.53 381.102 190.619 379.75 187.791 378.926C180.606 376.674 161.42 367.442 151.101 364.065C143.839 361.738 138.184 361.138 132.145 359.337C126.488 357.61 121.138 355.06 115.864 353.633C110.972 352.356 105.697 352.583 101.646 350.931C98.2836 349.581 95.5319 347.253 93.0094 345.378C91.0208 343.801 89.5688 341.85 87.7353 340.799C86.2064 339.899 84.753 340.048 82.995 339.148C80.3201 337.722 76.9577 334.119 73.6708 332.094C70.5362 330.217 67.4785 329.918 63.8869 327.365C58.0007 323.238 49.898 313.03 43.5547 307.776C38.6621 303.649 32.4711 300.422 29.5657 297.795C28.1137 296.519 27.4262 295.769 26.5849 294.417C25.5144 292.842 24.9037 291.341 23.8332 288.939C21.7691 284.512 17.3362 275.73 15.8073 269.501C14.4322 264.097 15.5013 258.243 14.1261 253.815C12.9788 250.138 10.6855 246.986 9.08117 244.509C7.85836 242.633 6.17578 241.507 5.48821 239.856C4.80063 238.279 4.80063 237.003 4.57144 234.903C4.11305 231.15 3.73015 224.47 3.80701 219.216C3.80701 213.963 3.50096 208.86 4.80063 203.23C6.25264 196.477 10.8392 189.046 13.1325 181.692C15.4258 174.337 16.4949 166.907 18.7114 159.101C21.0815 150.545 23.5271 140.939 27.1201 132.308C30.7886 123.601 36.904 114.371 40.4201 106.941C43.1718 101.462 44.7775 96.7333 47.0708 92.1557C49.2104 87.9528 51.35 84.0504 53.6433 80.4471C55.7074 77.2198 57.3131 75.119 60.1402 71.3662C65.0329 64.9116 76.7272 48.5513 80.8554 45.6245C82.1551 44.723 82.995 44.5734 83.9131 44.498C84.6775 44.498 85.3651 44.6489 86.0527 45.099C86.8171 45.549 87.8107 46.5247 88.1168 47.5003C88.4997 48.4004 88.4228 49.8274 88.1168 50.6521C87.8876 51.4027 87.4292 52.3783 86.8171 52.4537C85.5174 52.5292 80.2433 46.8251 80.5493 45.549C80.7785 44.7985 82.6134 44.4225 83.6071 44.498C84.6007 44.498 85.9004 45.099 86.5879 45.6245C87.2 46.0746 87.5816 46.7497 87.8107 47.4248C88.1168 48.1012 88.1936 48.8518 88.0399 49.5269C87.8876 50.4271 87.2755 52.3042 86.5111 52.3783C85.2128 52.5292 80.2433 46.9747 80.6262 45.7741C80.7785 45.099 82.6134 44.723 83.6071 44.723C84.6775 44.723 85.9004 45.1731 86.6648 45.8495C87.4292 46.5247 88.0399 47.7253 88.1168 48.7009C88.1936 49.6765 87.6584 51.1022 87.2755 51.7786C87.0463 52.1532 86.9708 52.4537 86.5879 52.6033C85.442 52.9038 80.703 51.8527 79.2497 50.3516C77.9514 49.0014 77.4916 46.3751 77.5685 44.5734C77.5685 43.1478 78.0268 41.4216 78.8681 40.5201C79.4789 39.7695 80.6262 39.3195 81.543 39.244C82.4611 39.0944 83.6071 39.244 84.4483 39.7695C85.442 40.446 86.6648 42.1722 86.8171 43.4469C86.894 44.723 86.0527 46.6001 85.0591 47.3507C83.9886 48.1754 81.9259 48.5513 80.703 48.1754C79.4789 47.8008 78.0268 46.2996 77.6453 45.099C77.2624 43.8983 77.7977 41.8717 78.4852 40.8961C79.0973 40.07 80.091 39.4704 81.0077 39.3195C82.2305 39.0944 84.2946 39.3949 85.2883 40.3705C86.5879 41.6466 88.1168 46.2242 87.2755 47.1256C86.5111 47.9503 80.6262 46.2242 80.6262 45.7741C80.5493 45.4736 83.5302 44.6489 84.753 44.8739C85.7466 45.0235 86.8171 45.8495 87.3524 46.6742C87.9645 47.5003 88.2691 48.7764 88.1168 49.8274C87.9645 50.803 87.3524 52.5292 86.5879 52.6033C85.2883 52.7542 80.2433 46.8251 80.5493 45.549C80.7785 44.7985 82.6134 44.4225 83.6071 44.498C84.6007 44.498 85.9004 44.8739 86.5879 45.6245C87.4292 46.4492 88.1936 48.4004 88.0399 49.5269C87.9645 50.578 87.2755 52.3042 86.5111 52.3783C85.2883 52.4537 80.6262 46.8251 80.8554 45.6245C81.0077 45.0235 82.0782 44.7985 82.7658 44.6489C83.7594 44.498 85.1359 44.5734 86.0527 45.099C86.894 45.549 87.8107 46.5247 88.1168 47.5003C88.4997 48.4004 88.5752 49.601 88.1168 50.6521C87.4292 52.2287 85.442 53.1288 83.5302 55.5301C79.2497 60.7086 69.6195 74.5935 64.7268 82.3242C61.2107 87.8773 58.6882 92.3053 56.1658 97.1833C53.9493 101.613 52.8788 105.139 50.4332 110.242C46.8402 117.823 39.808 128.855 36.1396 137.861C32.9295 145.817 31.3238 153.097 29.1074 161.203C26.6617 169.834 24.9037 180.416 22.2275 188.146C20.1647 194.225 16.6486 198.502 15.4258 203.981C14.1261 209.46 14.5077 215.314 14.5845 221.018C14.6614 226.871 14.3553 235.428 16.0365 238.73C16.9533 240.531 18.559 240.456 19.7064 241.957C21.3876 243.984 23.2225 247.961 24.2161 250.514C24.8268 252.314 25.1329 253.365 25.3621 255.316C25.6681 258.093 24.5208 261.771 25.2852 265.448C26.2033 270.251 30.407 277.155 31.7822 281.358C32.6235 283.911 31.9359 285.561 33.3879 287.739C35.9104 291.416 43.6302 294.417 49.0581 298.921C55.7074 304.549 64.8037 315.957 69.9255 319.334C72.4466 320.911 73.9755 320.61 76.1165 321.737C78.7158 323.087 81.849 325.263 84.1423 326.989C86.0527 328.416 87.2755 330.143 89.1104 331.343C90.8685 332.468 92.7789 332.619 94.7675 333.82C97.3654 335.395 100.346 338.999 102.946 340.5C104.856 341.549 106.156 341.999 108.526 342.6C112.042 343.651 118.387 343.877 122.59 345.153C126.182 346.202 128.4 347.929 132.374 349.205C138.184 351.231 146.133 352.282 154.388 354.984C165.624 358.586 186.109 367.067 192.988 370.219C195.587 371.42 197.498 371.495 198.187 373.071C199.027 375.023 196.887 381.177 195.893 381.777C195.51 382.002 195.129 381.777 194.671 381.552C193.906 381.251 192.454 380.276 191.842 379.451C191.307 378.775 191.154 377.95 191.078 377.199C191.001 376.449 191.078 375.547 191.459 374.872C191.994 373.972 193.065 372.846 193.982 372.32C194.746 371.945 196.275 371.72 196.352 371.87C196.429 372.095 192.454 374.422 192.53 374.422C192.53 374.422 196.352 371.645 196.504 371.87C196.733 372.095 192.3 377.649 191.69 377.499C191.384 377.349 191.536 375.848 191.69 375.097C191.919 374.347 192.3 373.596 192.836 372.996C193.371 372.471 193.982 371.945 194.823 371.645C195.817 371.344 197.345 371.27 198.416 371.72C199.409 372.095 200.555 373.371 201.091 374.046C201.32 374.422 201.626 374.948 201.474 375.173C201.397 375.322 200.632 375.173 200.632 375.322C200.632 375.698 203.078 376.749 205.448 377.574C211.41 379.676 231.436 383.428 238.01 385.454C240.991 386.43 242.673 386.505 244.431 387.931C246.342 389.508 248.864 393.485 248.635 394.987C248.481 395.811 247.565 396.261 246.877 396.637C246.189 397.012 245.271 397.237 244.507 397.237C243.742 397.237 242.826 397.087 242.138 396.713C241.449 396.337 240.762 395.887 240.303 395.136C239.768 394.31 239.31 392.809 239.31 391.759C239.386 390.933 239.997 389.508 240.151 389.508C240.303 389.508 239.616 391.759 240.074 392.735C240.685 394.085 244.584 396.261 244.431 396.486C244.354 396.713 241.909 395.887 241.144 395.136C240.303 394.386 239.616 393.11 239.539 391.984C239.462 390.858 239.92 389.432 240.532 388.606C240.991 387.856 241.68 387.405 242.367 387.031C243.055 386.73 243.742 386.581 244.736 386.581C246.723 386.505 249.629 387.63 253.374 387.856C260.177 388.156 274.088 386.356 282.496 386.356C288.841 386.43 296.713 384.779 299.236 387.331C301.223 389.357 300.459 396.637 299.389 397.463C298.93 397.838 297.707 397.237 297.019 396.862C296.332 396.486 295.644 395.962 295.184 395.212C294.651 394.386 294.191 392.884 294.344 391.759C294.497 390.633 295.184 389.357 296.026 388.606C296.942 387.856 298.777 386.88 299.465 387.331C300.688 388.156 300.535 396.637 299.313 397.463C298.548 397.913 296.713 396.938 295.873 396.187C295.032 395.437 294.344 394.085 294.191 392.96C294.038 391.833 294.42 390.408 295.109 389.508C295.72 388.606 296.79 387.856 298.09 387.481C300 386.955 302.981 387.556 305.657 388.006C308.715 388.606 311.696 390.183 315.517 390.933C320.715 391.909 328.741 391.833 334.091 392.735C338.296 393.41 340.741 393.936 345.174 395.361C352.36 397.688 363.902 404.142 372.463 406.769C379.571 408.946 390.655 407.594 392.719 410.897C394.248 413.298 391.496 420.129 390.119 420.879C389.432 421.329 388.361 420.653 387.597 420.203C386.68 419.603 385.61 418.402 385.228 417.276C384.845 416.151 384.999 414.574 385.38 413.523C385.686 412.698 386.222 412.022 386.909 411.498C387.826 410.897 390.502 410.222 390.579 410.371C390.579 410.447 387.215 412.097 387.292 412.097C387.292 412.248 393.865 410.146 396.541 408.27C399.139 406.469 401.203 400.99 402.961 400.99C404.261 400.99 406.171 404.593 406.248 404.518C406.325 404.442 403.496 401.065 402.197 398.889C400.592 396.337 398.68 392.359 397.534 389.882C396.693 388.156 396.006 387.031 395.547 385.454C395.164 383.953 394.324 382.153 394.935 380.801C395.7 379 399.903 376.148 401.586 376.298C402.732 376.449 403.725 377.874 404.184 378.85C404.719 379.901 404.719 381.476 404.413 382.527C404.261 383.353 403.725 384.029 403.115 384.63C402.579 385.154 401.891 385.679 400.974 385.904C399.98 386.129 397.764 386.43 397.305 385.679C396.464 384.403 399.828 376.298 401.28 375.999C402.121 375.848 403.344 377.649 403.879 378.625C404.261 379.376 404.338 380.202 404.338 381.026C404.261 381.777 404.108 382.677 403.573 383.353C402.961 384.178 401.738 385.229 400.668 385.605C399.599 385.904 397.381 386.129 396.999 385.38C396.235 384.178 400.057 376.298 401.432 375.999C402.121 375.772 402.885 376.823 403.419 377.499C403.879 378.099 404.261 378.926 404.413 379.75C404.567 380.501 404.49 381.402 404.261 382.153C404.031 382.903 403.573 383.728 402.961 384.254C402.426 384.855 401.586 385.305 400.821 385.53C400.057 385.755 399.293 385.83 398.374 385.679C396.847 385.454 393.942 384.779 392.642 383.428C391.419 382.077 390.579 379.3 390.731 377.649C390.808 376.449 391.725 375.248 392.49 374.572C393.177 373.972 393.942 373.672 394.783 373.522C395.547 373.297 396.464 373.371 397.228 373.596C397.993 373.747 398.834 374.197 399.369 374.797C399.98 375.322 400.439 376.073 400.745 376.823C400.974 377.574 401.28 378.475 400.974 379.225C400.515 380.276 397.687 382.378 397.534 382.227C397.381 382.077 400.132 377.499 400.439 377.649C400.668 377.725 400.439 380.202 399.903 381.177C399.369 382.153 398.07 383.128 397.076 383.503C396.235 383.804 395.47 383.879 394.629 383.728C393.56 383.503 392.413 383.203 391.419 381.928C388.59 378.55 384.311 362.189 383.47 356.559C383.087 353.933 382.476 351.607 383.547 350.481C384.616 349.356 390.119 349.73 390.349 350.256C390.502 350.63 389.432 351.607 388.667 352.057C387.751 352.507 386.299 352.957 385.151 352.732C384.081 352.583 382.706 351.757 382.018 351.006C381.406 350.405 381.177 349.955 380.948 348.83C380.412 345.903 382.552 338.322 382.782 332.168C383.012 324.739 381.787 315.131 381.712 307.251C381.635 300.197 381.024 291.191 382.247 287.213C382.782 285.262 383.47 284.211 384.616 283.311C385.763 282.334 387.903 281.585 389.126 281.659C389.967 281.734 390.731 282.184 391.267 282.785C392.031 283.536 392.796 285.037 392.948 286.013C393.1 286.837 392.871 287.739 392.566 288.414C392.26 289.165 391.725 289.915 391.113 290.441C390.502 290.891 389.661 291.341 388.897 291.49C388.132 291.641 386.832 292.016 386.451 291.416C385.61 290.29 387.751 281.884 389.05 281.358C389.661 281.059 390.655 281.959 391.267 282.485C391.802 283.01 392.337 283.761 392.566 284.512C392.871 285.262 393.025 286.087 392.871 286.913C392.642 287.964 391.802 289.39 391.038 290.065C390.425 290.666 389.661 291.04 388.82 291.191C388.057 291.341 386.757 291.641 386.374 291.116C385.534 290.065 387.597 281.959 388.897 281.509C389.738 281.209 391.267 282.785 391.877 283.61C392.413 284.286 392.642 285.111 392.719 285.862C392.796 286.688 392.719 287.512 392.413 288.263C391.954 289.239 390.884 290.441 389.89 290.965C388.897 291.416 387.215 291.942 386.222 291.265C384.616 290.29 383.012 285.037 383.012 282.56C383.012 280.759 384.311 279.783 384.77 277.906C385.38 274.979 385.763 271.453 385.916 266.798C386.145 258.844 384.234 242.932 384.464 234.903C384.541 230.025 385.916 227.323 385.61 223.12C385.151 218.015 382.323 212.538 381.329 206.609C380.26 199.704 380.794 190.848 379.954 184.168C379.266 178.689 378.807 173.36 377.125 169.383C375.826 166.23 373.151 164.054 371.699 161.653C370.552 159.702 368.487 157.599 368.947 155.949C369.558 154.073 375.903 151.146 376.438 151.596C376.744 151.897 375.597 154.147 374.909 154.898C374.374 155.574 373.532 155.949 372.768 156.174C372.004 156.399 371.164 156.55 370.322 156.325C369.252 156.098 367.877 155.349 367.112 154.448C366.425 153.623 365.507 151.67 366.042 150.995C366.883 149.944 375.673 150.77 376.438 152.122C376.896 152.872 375.75 154.598 374.909 155.423C374.145 156.174 372.693 156.849 371.545 156.924C370.399 157 368.947 156.55 368.029 155.873C367.112 155.123 366.425 153.772 366.119 152.797C365.889 151.897 365.66 150.621 366.196 150.245C367.189 149.57 375.367 152.872 375.52 153.997C375.673 154.523 374.451 155.274 373.686 155.574C372.693 156.024 371.087 156.174 370.016 156.024C369.176 155.799 368.412 155.423 367.8 154.824C367.112 154.073 366.348 152.647 366.119 151.596C365.966 150.77 366.271 149.87 366.425 149.195C366.577 148.743 366.577 148.369 367.035 148.144C368.258 147.393 374.909 147.017 376.284 148.218C377.125 148.969 377.049 150.695 376.819 151.821C376.59 152.872 375.75 154.147 374.832 154.824C373.915 155.499 372.31 155.799 371.241 155.799C370.399 155.724 369.558 155.423 368.947 154.973C368.258 154.523 367.112 153.848 367.265 153.171C367.494 151.821 375.061 147.843 376.438 148.518C377.202 148.894 377.202 150.995 376.896 152.122C376.667 153.171 375.826 154.448 374.909 155.123C373.992 155.799 372.539 156.174 371.393 156.024C370.246 155.949 368.718 155.049 368.029 154.448C367.648 154.147 367.265 153.547 367.341 153.472C367.494 153.322 370.476 155.349 370.705 154.973C371.316 154.298 364.513 147.093 361.38 141.99C357.328 135.31 353.048 124.202 348.92 118.198C346.092 114.07 342.576 109.943 340.435 108.591C339.519 107.992 338.754 108.291 338.067 107.916C337.378 107.466 336.767 106.865 336.309 106.19C335.926 105.515 335.62 104.689 335.544 103.938C335.467 103.112 335.62 102.212 336.003 101.537C336.309 100.787 336.767 100.111 337.455 99.586C338.296 98.985 340.283 97.9339 340.894 98.4594C342.041 99.3609 341.354 107.992 340.206 108.742C339.595 109.117 338.525 108.517 337.837 108.066C336.996 107.466 335.926 106.266 335.544 105.29C335.238 104.464 335.238 103.638 335.39 102.887C335.467 102.063 335.849 101.237 336.384 100.636C336.842 100.036 337.531 99.435 338.296 99.1359C338.983 98.8354 340.589 98.5349 340.665 98.6845C340.741 98.9095 336.232 101.462 336.155 101.312C336.079 101.237 337.684 99.2855 338.754 98.8354C339.825 98.3853 341.354 98.3099 342.423 98.6845C343.493 98.985 344.639 100.036 345.251 100.862C345.71 101.613 345.939 102.437 345.939 103.188C346.016 104.014 346.092 105.29 345.48 105.589C344.181 106.266 336.155 102.738 335.773 101.687C335.697 101.312 336.079 101.012 336.461 100.636C337.073 100.036 338.448 98.985 339.595 98.8354C340.665 98.6104 342.193 98.9095 343.187 99.5105C344.105 100.111 345.022 101.312 345.404 102.362C345.71 103.413 345.863 105.515 345.099 105.89C343.876 106.64 336.232 102.813 335.926 101.537C335.773 100.862 336.767 100.111 337.455 99.586C338.371 99.0604 339.825 98.5349 340.971 98.6104C342.117 98.6845 343.493 99.435 344.258 100.111C344.87 100.711 345.251 101.462 345.48 102.212C345.71 102.963 345.71 103.938 345.634 104.614C345.557 105.065 345.328 105.74 345.251 105.74C345.022 105.74 344.87 102.288 344.793 102.288C344.793 102.288 345.251 104.839 344.945 105.89C344.716 106.64 344.181 107.315 343.645 107.916C343.035 108.442 342.27 108.892 341.506 109.117C340.741 109.267 339.825 109.342 339.06 109.192C338.296 109.042 337.761 108.816 336.842 108.141C334.397 106.415 327.365 100.486 325.531 96.9583C324.307 94.557 323.619 91.4052 324.384 89.904C325.071 88.7034 327.212 87.8773 328.587 87.8032C329.735 87.7278 331.034 88.4029 331.874 89.1535C332.716 89.904 333.403 91.1801 333.48 92.3053C333.557 93.4318 333.097 94.8575 332.486 95.6835C332.028 96.4341 331.339 96.8842 330.652 97.2588C329.964 97.5593 328.358 97.9339 328.283 97.7843C328.129 97.4097 332.486 93.9574 332.716 94.1824C332.868 94.332 331.57 96.5082 330.805 97.1092C330.116 97.7089 329.352 97.9339 328.587 98.0848C327.747 98.1603 326.906 98.1603 326.142 97.8598C325.148 97.4838 323.925 96.5082 323.39 95.6081C322.932 94.933 322.703 94.1069 322.703 93.3564C322.703 92.6813 322.703 91.9307 323.313 91.4806C324.537 90.4296 331.264 89.3785 332.639 90.2786C333.326 90.6546 333.251 91.7057 333.251 92.5303C333.251 93.5814 332.639 95.0071 332.028 95.8331C331.57 96.5082 330.881 96.9583 330.116 97.2588C329.123 97.5593 328.129 97.7843 326.525 97.3342C322.167 96.0581 310.625 85.3265 304.358 82.2488C300.383 80.2975 296.867 80.0725 293.809 78.7964C291.364 77.7453 289.452 76.5447 287.541 75.4195C285.783 74.3685 284.025 73.6934 282.878 72.3418C281.732 70.9161 280.203 68.5889 280.662 67.1633C281.274 65.363 286.089 62.8862 287.694 62.8862C288.612 62.9604 289.223 63.7109 289.681 64.3119C290.216 64.9116 290.675 65.588 290.828 66.4882C291.058 67.4638 290.904 69.0404 290.37 70.016C289.835 70.9916 288.687 71.9672 287.618 72.4173C286.548 72.7919 284.484 73.0924 283.948 72.3418C283.184 71.2166 286.319 63.3363 287.771 63.0358C288.612 62.8108 289.91 64.537 290.445 65.4371C290.904 66.1877 291.058 67.0137 291.058 67.8384C291.058 68.5889 290.904 69.415 290.445 70.1655C289.91 71.0657 288.764 72.1168 287.694 72.5668C286.623 72.9428 285.019 73.1678 284.025 72.4927C282.573 71.5912 280.738 66.0381 281.197 65.7376C281.732 65.363 288.229 70.8407 287.923 71.6667C287.618 72.3418 284.178 72.3418 282.038 71.3662C277.987 69.4904 269.349 60.9337 268.049 56.1311C267.132 52.8284 268.814 47.3507 270.113 46.6742C270.725 46.2996 271.719 46.9747 272.407 47.3507C273.094 47.7253 273.706 48.4004 274.088 49.0014C274.547 49.6765 274.852 50.4271 274.852 51.2531C274.852 52.3042 274.318 53.804 273.783 54.63C273.323 55.3051 272.56 55.7552 271.871 56.0557C271.184 56.3562 269.961 56.9572 269.503 56.5057C268.509 55.6056 269.12 47.1998 270.419 46.4492C271.107 46.0746 272.865 47.1256 273.629 47.9503C274.394 48.7009 275.006 50.1266 275.081 51.1022C275.235 51.9282 275.006 52.7542 274.7 53.4293C274.318 54.1045 273.859 54.855 273.171 55.3051C272.33 55.8306 269.884 56.5057 269.807 56.3562C269.655 56.1311 273.859 54.5545 274.318 53.1288C274.777 51.6277 271.796 47.5003 272.025 47.3507C272.254 47.1998 274.012 49.0014 274.318 49.977C274.7 51.0281 274.7 52.4537 274.318 53.5048C273.859 54.4804 272.789 55.5301 271.871 56.0557C271.107 56.5057 270.267 56.5812 269.503 56.5812C268.738 56.5812 267.438 56.5812 267.209 55.9815C266.674 54.7054 270.878 47.1256 272.33 46.9747C273.171 46.8993 274.318 48.6254 274.623 49.601C275.006 50.6521 275.006 52.0778 274.623 53.1288C274.165 54.1045 273.094 55.1555 272.177 55.6811C271.49 56.1311 270.648 56.2066 269.807 56.2066C269.044 56.2066 267.82 56.2066 267.515 55.6056C266.98 54.4049 270.725 47.1998 272.1 47.0502C272.942 46.9747 274.012 48.7009 274.394 49.6765C274.777 50.7276 274.623 52.2287 274.318 53.2043C274.088 53.9549 273.554 54.63 272.942 55.0801C272.33 55.6056 271.642 56.0557 270.802 56.1311C269.807 56.2807 267.591 56.4316 267.286 55.6811C266.674 54.4049 270.725 47.3507 272.177 47.1998C273.019 47.1256 274.088 49.0014 274.471 49.9015C274.777 50.6521 274.852 51.4027 274.7 52.2287C274.471 53.2043 273.859 54.5545 273.019 55.3051C272.177 55.9815 270.648 56.4316 269.655 56.5057C268.814 56.5057 267.591 56.4316 267.286 55.8306C266.751 54.63 270.878 47.1256 272.33 46.9747C273.171 46.8993 274.241 48.6254 274.623 49.6765C275.006 50.6521 274.852 52.2287 274.547 53.1288C274.241 53.9549 273.783 54.5545 273.171 55.0801C272.33 55.6811 271.336 56.3562 269.807 56.2066C265.986 55.9815 256.584 50.4271 250.545 46.5247C244.354 42.4713 235.181 36.6931 233.042 32.1897C231.819 29.488 232.2 25.8106 233.271 24.5345C233.958 23.6343 235.564 23.4093 236.635 23.4834C237.781 23.5589 239.157 24.3094 239.92 24.9845C240.532 25.5855 240.915 26.2606 241.144 27.0112C241.374 28.0623 241.22 29.6375 240.838 30.539C240.532 31.2896 239.997 31.8892 239.386 32.4148C238.622 32.9403 237.016 33.9914 236.481 33.6154C235.411 32.9403 235.87 24.6099 236.864 24.0844C237.551 23.7839 239.157 25.285 239.768 26.1852C240.38 27.0867 240.685 28.5124 240.532 29.6375C240.38 30.6886 239.616 31.9647 238.774 32.6398C237.858 33.3904 236.252 33.7663 235.335 33.8404C234.877 33.8404 234.417 33.9914 234.188 33.6154C233.5 32.6398 235.641 24.234 237.016 23.7839C237.781 23.5589 239.31 25.06 239.845 25.886C240.38 26.5611 240.609 27.3872 240.685 28.1377C240.762 28.887 240.685 29.713 240.303 30.4636C239.845 31.3637 238.851 32.5657 237.858 33.0158C236.864 33.4658 234.8 33.9914 234.265 33.3163C233.423 32.2652 236.023 24.5345 237.245 24.0844C237.933 23.7839 238.774 24.6854 239.386 25.2096C239.92 25.7351 240.455 26.4116 240.685 27.2362C240.991 28.2119 240.991 29.713 240.532 30.7641C240.151 31.7397 239.08 32.7907 238.087 33.3163C237.093 33.7663 235.106 34.2164 234.571 33.6154C233.652 32.4902 236.481 24.234 237.551 23.7084C237.933 23.5589 238.316 23.8594 238.697 24.1599C239.386 24.6854 240.609 25.8106 240.991 26.8616C241.374 27.9114 241.297 29.3384 240.838 30.3881C240.455 31.3637 239.386 32.4148 238.393 32.9403C237.399 33.3904 235.411 33.8404 234.877 33.2408C233.958 32.1897 236.023 24.3094 237.322 23.8594C238.087 23.5589 239.616 24.9845 240.151 25.9601C240.762 26.8616 241.068 28.2873 240.915 29.3384C240.762 30.4636 239.997 31.7397 239.157 32.4148C238.316 33.0899 236.635 33.4658 235.793 33.5413C235.258 33.6154 235.029 33.6909 234.571 33.3904C233.652 32.7153 231.59 27.8372 231.361 27.9114C231.284 27.9868 233.652 31.9647 233.119 32.4902C231.819 33.5413 218.519 24.835 212.633 21.3072C208.046 18.5299 202.314 16.6542 200.555 13.2773C199.18 10.5 199.868 4.34592 201.168 3.44578C201.932 2.92025 203.69 3.67081 204.607 4.27046C205.524 4.87146 206.365 5.99663 206.594 7.12316C206.823 8.39926 206.288 10.5755 205.524 11.5511C204.761 12.4513 203.078 13.5778 202.39 13.2018C201.168 12.5267 200.48 4.34592 201.474 3.37032C201.932 2.92025 203.078 3.44578 203.842 3.67081C204.53 3.97131 205.294 4.42138 205.83 5.02103C206.365 5.54656 206.748 6.37259 206.9 7.12316C207.129 7.79827 207.129 8.69841 206.9 9.44898C206.748 10.1995 206.442 10.9501 205.83 11.5511C205.142 12.2262 203.536 13.1264 202.696 13.1264C202.084 13.2018 201.091 12.8272 201.091 12.4513C200.938 11.7007 205.83 9.5999 205.6 8.6243C205.371 7.42366 197.193 7.57323 196.81 6.44671C196.581 5.69748 198.187 4.27046 199.103 3.82039C200.097 3.29486 201.549 3.06982 202.62 3.37032C203.69 3.59535 204.99 4.34592 205.6 5.24607C206.288 6.37259 206.823 8.54884 206.213 9.82494C205.371 11.3261 202.39 12.5267 200.02 13.1264C197.116 13.8028 192.759 13.3514 189.932 12.9768C187.943 12.7518 186.568 12.0012 184.81 11.8516C182.975 11.7007 180.071 13.1264 179.077 12.1508C177.93 10.9501 179.077 4.57096 179.842 3.74493C180.148 3.44578 180.529 3.59535 180.988 3.67081C181.675 3.74493 183.204 4.19635 183.893 4.87146C184.657 5.54656 185.116 6.82266 185.268 7.72281C185.422 8.39926 185.268 9.14983 184.962 9.74948C184.504 10.5755 183.969 11.4757 182.746 12.0766C179.842 13.4269 171.739 13.1264 166.006 14.0279C159.891 14.928 151.407 17.6298 147.203 17.4802C145.139 17.4047 143.458 17.0301 142.464 16.2796C141.7 15.8281 141.394 15.0035 141.164 14.3284C140.858 13.5778 140.782 12.6763 140.935 11.9257C141.011 11.1752 141.317 10.3505 141.852 9.74948C142.464 8.99891 143.762 8.09877 144.833 7.79827C145.903 7.57323 147.509 7.87373 148.349 8.3238C149.113 8.69841 149.726 9.14983 149.955 9.97451C150.49 11.6252 150.03 16.2796 148.732 18.3049C147.585 20.0311 146.056 20.4825 143.152 21.9082C135.126 25.661 101.569 40.221 95.0722 36.9936C92.1681 35.5666 91.0977 29.4125 91.8621 28.0623C92.3205 27.2362 94.2322 27.0867 95.3013 27.3117C96.601 27.6122 98.3591 28.887 99.048 30.0135C99.5819 30.9891 99.6587 32.4148 99.3527 33.4658C99.048 34.5169 98.1299 36.2431 97.29 36.2431C95.9134 36.1676 91.4806 29.3384 92.0158 28.0623C92.3205 27.3117 94.3077 27.0867 95.4551 27.3117C96.7547 27.6122 98.5128 28.887 99.2004 30.0135C99.7356 30.9891 99.8879 32.4148 99.5064 33.4658C99.1235 34.591 98.053 36.1676 96.8302 36.3926C94.9967 36.6177 89.6457 33.6909 89.1873 32.0402C88.8812 30.9136 90.4101 28.887 91.556 28.1377C92.7034 27.4613 94.9198 27.3872 96.1426 27.8372C97.2131 28.2119 98.2067 29.4125 98.6651 30.2385C99.048 30.9891 99.1235 32.5657 99.1235 32.5657C99.1235 32.5657 98.9712 31.5146 98.8943 31.5146C98.5128 31.5146 98.2067 36.2431 96.7547 39.019C94.4614 43.2973 88.7289 49.2264 84.2192 53.5789C79.9386 57.6323 72.9819 60.2586 70.4594 64.3119C68.4721 67.4638 68.7013 71.5171 68.3198 74.7431C67.9369 77.4462 67.8614 79.8475 68.0138 82.3983C68.0906 85.1001 69.0842 88.7034 68.855 90.4296C68.7782 91.3297 68.549 91.7798 68.1675 92.3808C67.5554 93.0559 66.4094 93.8064 65.5681 94.0315C64.8805 94.2565 64.1161 94.1824 63.504 94.0315C62.8164 93.8819 62.2043 93.5814 61.6691 93.0559C61.0584 92.4562 60.2171 90.4296 60.2171 90.4296Z" fill="white"/>
</mask>
<g mask="url(#mask3_15_48)">
<path d="M0.748779 0.367783H416.889V423.955H0.748779V0.367783Z" fill="#555454"/>
</g>
</g>
</g>
<path d="M343.154 164.089C341.243 164.932 338.857 168.631 338.857 170.786C338.857 173.034 340.145 176.451 341.96 179.168C343.106 180.853 343.63 182.117 343.535 182.961C343.391 184.225 343.345 184.225 340.242 184.085L337.044 183.897L333.082 187.315C330.886 189.142 328.501 191.108 327.784 191.623C326.877 192.279 326.544 192.888 326.686 193.543C326.877 194.292 326.447 194.854 324.968 195.931C322.152 197.945 321.674 199.444 321.15 207.825C320.672 215.785 320.911 219.719 322.009 220.797C322.915 221.686 325.827 221.217 327.116 220C328.023 219.157 328.023 219.111 326.59 216.863C324.538 213.632 324.49 212.93 325.446 207.123C326.161 202.815 326.544 201.597 327.688 200.193C329.121 198.413 329.55 198.226 330.027 198.975C330.171 199.209 330.982 199.115 331.937 198.647C334.705 197.336 334.8 197.758 334.8 208.48C334.8 215.505 334.561 219.157 333.894 222.575L333.082 227.211L335.803 232.502L338.523 237.747L337.473 241.026C336.948 242.851 336.472 244.397 336.472 244.537C336.472 244.677 337.044 244.912 337.712 245.052C338.427 245.239 338.857 245.474 338.762 245.567C338.619 245.708 336.518 245.379 334.037 244.912C331.554 244.397 328.308 243.835 326.829 243.694C325.302 243.506 324.061 243.226 324.061 243.039C324.061 242.851 322.677 241.493 320.959 239.995C318.334 237.747 317.617 237.325 316.616 237.56C314.944 237.982 313.37 239.76 312.701 241.962C312.367 242.944 311.222 245.099 310.124 246.785C306.782 251.842 307.069 257.039 310.696 257.039C311.7 257.039 312.796 256.243 315.327 253.528C317.904 250.858 319.002 250.016 319.956 250.016C320.672 250.016 321.626 249.687 322.009 249.267C323.392 247.909 326.638 248.845 335.278 253.059C339.764 255.261 343.869 257.039 344.442 257.039C346.065 257.039 346.161 257.742 344.824 260.318C344.156 261.582 342.962 265.421 342.199 268.747C340.671 275.536 338.381 280.734 336.614 281.529C335.994 281.764 335.516 282.138 335.468 282.279C335.468 282.42 335.374 283.309 335.278 284.199C335.135 285.088 334.944 286.634 334.8 287.665C334.657 288.694 334.753 289.725 335.087 290.1C335.564 290.661 333.846 290.754 324.013 290.802C307.595 290.895 314.468 291.504 336.996 291.973C349.979 292.206 355.182 292.16 355.85 291.785C356.661 291.316 356.565 291.223 355.086 291.176L353.415 291.129L355.23 290.567C357.091 290.005 358.237 288.788 357.711 287.945C357.568 287.71 356.279 287.148 354.895 286.774C353.511 286.353 351.697 285.557 350.838 284.948C349.979 284.339 348.642 283.544 347.879 283.262C346.972 282.888 346.542 282.42 346.685 282.045C346.829 281.671 346.637 281.389 346.255 281.389C344.776 281.389 344.967 279.189 346.733 275.208C348.309 271.744 350.886 265.421 354.417 256.618L355.611 253.621L354.561 249.173L353.511 244.677L354.752 243.741L355.993 242.757L354.036 238.778C352.604 235.874 352.031 234.001 351.84 231.753C351.458 227.727 351.649 217.8 352.079 216.207C352.365 215.27 354.036 213.912 358.618 210.962C362.007 208.762 364.965 206.936 365.156 206.936C365.395 206.936 365.873 206.327 366.302 205.578C366.828 204.547 366.874 203.892 366.541 202.861C366.063 201.597 363.438 199.444 362.341 199.444C361.529 199.444 360.766 201.13 360.384 203.565C360.05 205.952 358.713 207.076 355.467 207.638C353.988 207.918 353.654 207.825 353.654 207.216C353.654 206.795 354.417 206.187 355.324 205.812C356.709 205.203 356.995 204.921 356.756 204.032C356.613 203.423 356.183 200.988 355.802 198.553C355.037 193.825 354.513 192.701 351.601 189.891C349.979 188.346 349.788 187.924 350.027 186.66C350.408 184.834 350.981 184.459 353.51 184.459C355.324 184.459 355.563 184.318 355.802 183.148C355.993 182.445 356.47 181.041 356.995 179.964C357.615 178.559 357.711 177.857 357.377 177.2C356.995 176.638 357.043 175.656 357.424 174.063C358.522 169.24 357.663 166.805 354.036 164.792C351.458 163.387 345.683 163.012 343.154 164.089Z" fill="#2B2B2B"/>
<path d="M185.166 302.46C188.697 302.648 195.092 302.835 199.293 302.882C208.649 302.929 212.371 303.491 206.166 303.912C203.924 304.053 229.84 304.146 263.681 304.193C297.57 304.193 323.631 304.006 321.674 303.819C317.808 303.397 262.011 302.648 210.462 302.32C192.993 302.226 181.633 302.273 185.166 302.46Z" fill="#2B2B2B"/>
<path d="M143.735 302.788C148.89 302.882 157.481 302.882 162.827 302.788C168.172 302.742 163.925 302.695 153.425 302.695C142.924 302.695 138.581 302.742 143.735 302.788Z" fill="#2B2B2B"/>
<path d="M163.687 305.739C159.582 306.206 200.01 306.675 241.01 306.628C263.92 306.628 281.677 306.394 280.864 306.206C279.337 305.786 167.267 305.364 163.687 305.739Z" fill="#2B2B2B"/>
<path d="M163.575 143.59C160.663 143.918 159.995 144.245 157.56 146.54L155.127 148.835L155.317 152.019C155.412 154.407 155.89 156 157.036 158.34C159.708 163.819 158.993 165.927 153.694 167.753C151.785 168.408 149.017 169.111 147.585 169.251C146.153 169.391 144.005 170 142.812 170.609C137.419 173.277 131.595 176.603 129.925 178.007C128.97 178.851 126.965 180.442 125.485 181.519C122.813 183.486 119.901 186.858 119.901 187.982C119.901 189.105 125.533 196.925 129.829 201.795C132.216 204.512 134.841 207.929 135.652 209.382C136.463 210.833 137.8 212.566 138.611 213.174L140.092 214.345L139.328 218.934C138.468 224.037 138.755 226.519 140.474 229.236L141.381 230.734L138.946 237.43C137.609 241.129 136.559 244.875 136.559 245.765C136.559 246.655 136.034 248.856 135.413 250.635C132.884 257.425 132.358 258.361 129.209 260.796C125.152 263.886 124.15 265.292 121.571 271.66C119.186 277.514 116.417 281.915 114.89 282.336C113.935 282.571 113.267 282.991 109.305 285.848C105.774 288.377 105.774 288.61 109.592 293.902C110.88 295.635 111.835 297.555 112.026 298.772C112.312 300.365 112.98 301.394 115.272 303.736C118.135 306.686 119.138 307.108 120.904 306.217C122.145 305.562 122.049 304.017 120.618 300.973C119.329 298.304 119.186 295.962 119.806 290.203C120.092 287.674 120.521 286.597 121.954 284.584C124.484 280.978 134.125 269.6 138.326 265.244C140.283 263.184 143.242 259.392 144.864 256.816C147.25 253.07 148.11 252.087 149.065 251.993C150.115 251.853 150.735 251.009 153.122 246.514C154.649 243.564 156.129 241.129 156.319 241.129C156.51 241.129 157.799 241.878 159.184 242.768C160.52 243.658 161.857 244.408 162.094 244.408C162.381 244.408 163.146 243.846 163.861 243.19C165.388 241.785 166.057 241.973 169.35 244.97C171.689 247.123 171.88 247.638 170.495 248.856C167.297 251.665 165.149 256.583 163.098 265.713C160.902 275.313 160.137 277.514 158.849 277.841C157.513 278.168 154.553 282.431 153.694 285.24C153.026 287.441 153.838 288.517 156.94 289.548C158.134 289.923 159.756 290.905 160.615 291.749C163.05 294.184 169.875 296.853 173.694 296.853C174.791 296.853 175.412 296.572 175.794 295.87C176.318 294.886 176.414 294.933 178.753 297.228C182.762 301.067 185.817 300.927 183.191 296.993C182.524 296.01 181.95 294.418 181.902 293.34C181.808 292.311 181.569 291.14 181.282 290.718C180.328 289.127 187.87 277.654 189.873 277.654C190.638 277.654 191.019 277.092 191.688 275.079C192.117 273.673 192.69 272.503 192.976 272.503C193.215 272.503 193.406 272.644 193.406 272.878C193.406 273.627 195.363 274.422 195.983 273.955C196.413 273.627 196.89 273.673 197.607 274.189C198.848 275.031 198.942 276.343 197.892 277.232C196.985 277.981 195.65 280.558 194.885 283.038C193.645 287.019 192.834 288.892 192.26 288.892C191.975 288.892 191.306 289.548 190.829 290.343C189.969 291.749 189.969 291.796 191.067 292.966C194.17 296.15 200.566 299.054 200.566 297.274C200.566 296.946 199.801 295.588 198.896 294.231C197.988 292.873 197.224 291.28 197.224 290.672C197.224 290.063 197.033 289.314 196.794 288.939C196.126 287.956 196.89 286.457 200.853 280.603C202.808 277.748 204.384 275.031 204.384 274.61C204.384 274.235 203.812 273.065 203.143 272.035C202.475 271.051 201.997 269.927 202.141 269.6C202.284 269.272 200.995 267.586 199.277 265.901L196.222 262.857L196.842 256.676C197.177 253.257 197.559 250.494 197.75 250.494C197.892 250.494 198.274 251.009 198.561 251.665C199.325 253.304 200.709 253.164 204.097 251.151C207.439 249.183 212.498 245.39 212.498 244.828C212.498 243.799 211.305 242.066 210.588 242.066C209.539 242.066 208.394 243.377 208.011 245.015C207.772 246.046 207.104 246.608 205.195 247.45C201.186 249.23 200.853 249.183 200.518 246.748C199.993 243.097 198.703 240.24 197.224 239.491C196.461 239.116 195.696 238.554 195.554 238.32C195.076 237.57 196.222 236.447 197.463 236.447C198.036 236.447 198.751 236.166 198.99 235.837C199.801 234.808 200.518 231.624 200.136 230.875C199.945 230.453 199.801 228.954 199.849 227.55C199.945 224.459 199.563 223.57 197.654 222.633C196.031 221.79 191.83 221.602 190.065 222.306C187.774 223.195 186.485 225.068 186.485 227.503C186.485 229.704 186.772 230.265 189.873 234.433C190.303 234.995 190.495 235.837 190.351 236.306C189.969 237.336 182.524 240.942 181.998 240.38C181.808 240.145 179.993 238.227 177.99 236.119C175.698 233.731 174.409 232.046 174.6 231.624C174.839 230.968 172.882 229.142 166.009 223.617L163.718 221.79L164.051 218.7C164.816 211.722 167.488 198.658 168.062 199.313C168.252 199.5 168.73 200.437 169.064 201.327C169.397 202.217 170.113 203.575 170.639 204.277C171.832 205.963 173.216 205.776 177.225 203.388C179.755 201.889 194.837 187.887 194.837 187.045C194.837 186.343 192.26 180.957 191.736 180.63C191.497 180.442 190.925 180.395 190.542 180.582C190.16 180.724 189.206 180.911 188.442 180.957C186.485 181.144 186.246 181.613 185.913 185.407C185.626 188.684 185.531 188.871 183.383 190.979C182.141 192.195 179.945 193.788 178.419 194.537C176.127 195.754 175.65 195.848 175.268 195.239C174.648 194.256 174.696 191.633 175.316 191.213C175.937 190.838 175.507 182.503 174.696 178.709C174.124 176.041 172.309 173.794 169.254 172.061C166.964 170.75 166.916 170.422 168.395 167.518C168.967 166.442 169.397 166.254 171.307 166.114L173.598 165.973L173.931 163.21C174.124 161.712 174.648 159.933 175.029 159.324C175.698 158.34 175.698 158.106 175.029 156.842C174.648 156.093 174.314 154.547 174.314 153.377C174.314 152.206 173.979 150.286 173.55 149.069C173.026 147.524 172.93 146.774 173.311 146.54C174.028 146.165 172.691 144.994 170.734 144.292C169.015 143.73 165.579 143.356 163.574 143.59H163.575ZM142.048 185.968C142.431 187.373 142.383 202.639 142.001 204.043C141.762 205.026 141.523 205.119 140.235 204.886C137.705 204.417 134.841 200.156 132.121 192.757L130.449 188.216L132.216 187.467C133.171 187.092 135.032 186.576 136.273 186.296C137.561 186.061 138.946 185.687 139.376 185.407C140.712 184.657 141.714 184.89 142.048 185.968ZM185.768 248.903C185.768 251.571 185.34 251.946 183.717 250.729C182.667 249.98 182.954 247.732 184.194 246.514C185.292 245.39 185.768 246.139 185.768 248.903ZM182.954 253.304C184.337 254.006 184.815 254.522 184.624 255.084C183.239 259.532 183.048 263.933 184.098 265.948C184.719 267.165 184.719 267.634 183.717 271.285C182.906 274.422 182.81 275.5 183.239 276.155C183.669 276.904 183.43 277.607 181.665 280.463C180.519 282.384 179.564 284.069 179.564 284.304C179.564 285.473 177.464 289.829 176.938 289.829C176.557 289.829 176.033 290.25 175.746 290.765C174.983 292.216 174.124 291.889 171.928 289.454C169.064 286.317 167.106 282.851 167.488 281.494C167.632 280.838 167.441 280.089 166.916 279.527C165.579 278.076 166.199 276.67 174.076 263.371C176.223 259.767 178.562 255.833 179.278 254.568C179.993 253.351 180.662 252.368 180.806 252.368C180.949 252.368 181.902 252.789 182.954 253.304Z" fill="#2B2B2B"/>
<path d="M247.436 169.439C246.195 170.001 245.049 171.03 244.381 172.061C243.664 173.325 243.14 173.699 242.472 173.512C240.896 173.138 239.417 174.121 237.317 177.024C235.551 179.413 235.025 179.788 232.925 180.255C229.776 181.004 228.105 182.737 227.961 185.36L227.867 187.373L228.917 186.389C230.205 185.219 233.307 184.985 232.831 186.109C232.401 187.185 237.937 187.045 240.563 185.874C242.424 185.078 243.474 184.141 241.9 184.75C241.326 184.938 241.422 184.47 242.185 182.363C242.759 180.724 243.044 179.178 242.853 178.335C242.711 177.586 242.805 176.978 243.044 176.978C243.331 176.978 243.522 177.398 243.522 177.915C243.522 179.271 245.097 182.128 246.577 183.487C247.579 184.423 247.817 185.032 247.817 187.045C247.817 190.042 247.149 190.932 242.901 193.788C237.937 197.065 223.953 210.599 223.953 212.097C223.953 213.548 226.243 217.294 230.539 222.961C232.353 225.349 234.214 227.925 234.692 228.627C235.36 229.657 235.79 229.891 236.791 229.657L238.032 229.376L238.08 233.028C238.128 235.043 238.224 237.711 238.271 239.022C238.415 240.708 237.747 243.704 235.932 250.027C231.779 264.543 231.494 265.011 226.243 267.634C223.714 268.898 221.709 270.771 214.311 278.638L209.681 283.601L206.865 283.882C203.189 284.257 202.617 284.537 202.091 285.99C201.614 287.347 202.091 298.867 202.665 300.225C203.141 301.254 204.383 301.676 205.146 301.02C205.528 300.74 206.244 299.194 206.722 297.555C207.246 295.963 208.488 293.528 209.49 292.171C210.492 290.812 211.971 288.845 212.736 287.768C214.549 285.381 222.997 278.685 229.68 274.377C232.448 272.597 235.121 270.818 235.694 270.443C236.936 269.6 243.809 258.923 247.197 252.602C248.628 249.886 249.917 247.685 250.061 247.685C250.491 247.685 261.754 256.77 263.902 258.83C266.479 261.358 266.814 262.717 265.764 265.479C263.568 271.098 263.043 273.486 262.375 281.12C261.469 290.953 260.895 294.746 259.941 296.15C259.512 296.806 259.273 298.023 259.368 299.288C259.512 301.302 259.56 301.302 261.898 301.911C263.234 302.238 266.242 302.66 268.581 302.8C273.687 303.08 276.598 302.378 276.837 300.74C277.028 299.569 276.122 299.007 272.637 297.977C270.919 297.461 269.773 296.712 268.342 295.073L266.337 292.873L266.623 289.923C267.005 286.364 270.393 274.751 273.067 267.68C274.165 264.917 275.024 262.295 275.024 261.827C275.024 259.438 268.962 249.698 261.659 240.427C259.654 237.852 257.745 235.323 257.459 234.808C256.695 233.357 257.459 219.402 258.462 217.107C258.891 216.171 259.416 215.376 259.606 215.376C259.797 215.376 260.848 216.874 261.85 218.653C262.996 220.62 264.046 221.931 264.522 221.931C265.383 221.931 269.44 218.84 275.978 213.128C284.474 205.682 283.758 206.572 283.473 204.23C283.328 203.106 283.043 202.03 282.851 201.795C282.613 201.608 281.467 201.561 280.273 201.748L278.126 202.03L277.84 207.836L274.404 210.364C270.49 213.315 266.146 215.563 265.383 215.094C264.237 214.392 262.137 208.82 262.137 206.431C262.137 204.183 261.945 203.763 258.508 199.313C253.831 193.274 253.737 192.992 254.5 190.229C255.311 187.233 255.788 186.718 257.364 187.045C258.938 187.373 259.512 186.718 259.893 184.283C260.084 183.252 260.514 182.128 260.895 181.706C261.563 181.099 261.515 180.864 260.61 179.459C259.797 178.148 259.702 177.446 259.941 175.573C260.514 171.264 258.414 169.391 252.304 168.782C250.061 168.595 249.058 168.689 247.436 169.439ZM242.042 207.18C244.477 213.503 244.572 217.763 242.376 222.586C241.374 224.834 240.992 225.256 240.324 224.928C239.846 224.741 238.654 224.506 237.651 224.366C235.455 224.132 234.262 222.586 231.303 216.03L229.489 211.957L231.112 210.599C233.642 208.491 239.704 204.605 240.419 204.605C240.802 204.605 241.517 205.776 242.042 207.18Z" fill="#2B2B2B"/>
<path d="M243.141 181.661C243.141 182.315 243.236 182.55 243.38 182.222C243.475 181.941 243.475 181.379 243.38 181.051C243.236 180.77 243.141 181.004 243.141 181.661Z" fill="#2B2B2B"/>
<path d="M85.0103 202.872C83.5788 203.341 81.5737 204.979 80.9054 206.15C79.522 208.585 80.4278 212.752 83.0065 215.421C83.8176 216.311 84.1511 217.107 84.0084 217.998C83.8657 219.262 83.7216 219.355 81.2402 219.589C79.8074 219.729 78.28 220.011 77.8984 220.291C76.515 221.135 71.8845 224.881 69.4499 227.174C67.1593 229.235 66.9205 229.704 66.9205 231.437C66.9205 232.513 67.4462 235.463 68.1145 237.992C68.7829 240.52 69.3072 243.283 69.3072 244.126C69.3072 246.139 70.2624 246.936 72.1714 246.514C74.2231 246.092 74.558 244.407 72.9344 242.534C71.6457 240.989 71.4069 240.006 71.0254 234.761C70.8827 232.326 70.9774 231.155 71.455 230.546C72.0753 229.704 72.1714 229.704 72.9344 230.453C73.7469 231.202 73.8416 231.202 75.321 230.313C76.1802 229.797 76.9446 229.564 77.0873 229.751C77.1834 229.938 77.1354 232.888 76.9446 236.212C76.6097 241.27 76.3243 242.862 75.273 245.343C74.2712 247.685 74.1284 248.527 74.51 249.277C74.7968 249.838 75.2264 251.104 75.4652 252.133C75.7986 253.819 75.6559 254.381 73.8896 257.612C72.0273 261.077 71.9806 261.218 72.8397 262.155C73.6028 262.95 73.6028 263.231 73.0305 264.402C72.4568 265.572 72.0753 265.759 69.2125 266.041C67.4462 266.228 64.2485 267.025 62.1006 267.82C58.3773 269.131 57.9958 269.178 55.465 268.663C51.7897 267.961 51.3602 268.194 51.0267 271.191C50.5491 275.032 50.6451 281.306 51.1694 281.635C52.2673 282.289 53.4133 281.26 54.8928 278.356C55.7519 276.67 56.7537 275.172 57.1366 275.032C57.5182 274.844 57.8517 274.375 57.8517 273.908C57.8517 272.69 59.9048 272.128 67.3981 271.286C76.1802 270.302 75.7026 270.443 77.613 267.821C79.0924 265.807 79.474 265.526 80.237 265.947C81.0014 266.323 81.2402 266.181 81.6698 264.87L82.2421 263.372L83.8176 265.245C85.2491 266.885 85.4878 267.025 86.2042 266.463C86.9193 265.854 87.2061 265.947 88.4948 267.212C90.1184 268.803 90.2131 269.553 89.45 273.955C89.0204 276.39 89.0204 278.216 89.5927 282.851C90.165 287.863 90.165 288.798 89.5927 289.641C89.2112 290.203 88.8283 291.795 88.7816 293.153L88.6375 295.682L92.2181 296.946C96.0362 298.305 99.7595 298.632 100.713 297.696C101.669 296.759 101.382 295.168 100.189 294.652C98.3267 293.809 96.0362 291.655 96.0362 290.765C96.0362 290.251 95.7493 289.689 95.3678 289.501C93.8884 288.658 93.6976 287.254 94.1272 281.12C94.414 277.794 94.9383 273.533 95.3678 271.66L96.1789 268.242L94.8902 265.199C93.9364 262.81 93.7456 261.967 94.1272 261.218C94.5567 260.422 94.2219 259.767 91.7405 256.77C88.9244 253.304 88.8283 253.117 89.1151 251.009C89.7355 246.281 90.9775 240.193 91.311 240.193C91.5498 240.193 91.9313 240.615 92.2181 241.129C92.5036 241.644 93.1253 242.066 93.6015 242.066C94.5567 242.066 97.5637 240.053 100.904 237.196C102.098 236.119 103.435 234.995 103.864 234.668C104.818 233.919 104.818 232.279 103.864 230.922C102.957 229.657 102.05 229.611 100.809 230.828C100.141 231.484 99.9503 232.092 100.141 233.122C100.38 234.339 100.237 234.621 98.6136 235.605C95.6547 237.43 95.081 237.523 95.081 236.307C95.081 235.698 95.3198 234.995 95.5586 234.761C96.1789 234.152 94.8902 224.928 94.0311 223.944C93.7456 223.57 92.6477 222.868 91.6925 222.352C90.6906 221.884 89.7835 221.275 89.6408 221.041C89.0204 220.104 89.9743 219.168 91.5978 219.027C93.1253 218.887 93.3161 218.7 94.0791 216.405C94.7955 214.439 94.8902 213.221 94.6048 210.084C94.414 207.976 94.3179 206.056 94.414 205.776C94.6995 205.074 94.0791 204.418 92.0274 203.294C90.165 202.217 87.2061 202.03 85.0103 202.872Z" fill="#2B2B2B"/>
</svg>
