<svg width="417" height="424" viewBox="0 0 417 424" fill="none" xmlns="http://www.w3.org/2000/svg">
<mask id="mask0_114_2" style="mask-type:luminance" maskUnits="userSpaceOnUse" x="93" y="117" width="266" height="185">
<path d="M93.104 117.076H358.714V301.844H93.104V117.076Z" fill="white"/>
</mask>
<g mask="url(#mask0_114_2)">
<path d="M213.805 117.684C207.935 119.136 206.217 121.338 206.217 127.331C206.217 130.796 206.408 131.685 207.648 134.12C209.224 137.257 209.463 140.161 208.221 141.987C207.267 143.44 200.155 146.108 196.098 146.482C194.474 146.67 192.995 146.904 192.899 146.997C192.756 147.138 190.56 149.199 187.983 151.587C185.406 154.022 182.256 156.971 180.919 158.189C179.631 159.406 177.244 161.936 175.668 163.854C173.139 166.851 172.806 167.508 172.852 169.193C172.948 172.143 175.622 177.809 179.917 184.131C182.16 187.455 184.165 191.014 184.643 192.559C185.55 195.369 187.363 197.102 189.416 197.102C190.656 197.102 194.045 194.245 194.045 193.216C194.045 192.747 194.236 191.952 194.523 191.483C195.334 189.984 193.282 187.689 190.466 186.987C187.792 186.285 186.6 185.114 184.833 181.415C183.687 179.073 181.158 170.972 181.158 169.708C181.158 169.333 182.065 168.584 183.21 168.022C184.308 167.46 185.692 166.618 186.265 166.056C187.124 165.307 187.553 165.213 188.413 165.587C189.32 166.009 189.797 165.822 191.134 164.698C191.993 163.949 192.899 163.48 193.091 163.714C195.095 165.775 196.48 190.031 195.143 198.226C193.95 205.203 194.332 207.451 197.768 214.099C199.39 217.284 200.727 220.281 200.727 220.797C200.727 221.264 200.155 223.419 199.487 225.479L198.198 229.318L199.725 230.677L201.299 231.988L200.536 235.032C199.535 238.871 198.389 241.446 197.578 241.775C197.243 241.915 195.095 242.43 192.852 242.944C187.65 244.163 186.6 244.725 182.447 248.471C178.819 251.748 174.141 255.026 173.711 254.605C173.378 254.277 174.715 248.845 175.622 246.645C176.528 244.584 176.576 242.383 175.812 240.978C175.526 240.417 173.759 237.934 171.85 235.499C169.989 233.064 167.507 229.74 166.362 228.102L164.309 225.15L164.357 215.692C164.452 203.939 164.929 195.276 165.503 194.947C165.74 194.807 166.218 194.901 166.553 195.182C166.886 195.463 168.271 195.884 169.654 196.165C170.991 196.4 172.757 197.102 173.521 197.664C175.335 198.975 176.337 198.506 177.244 195.931C177.96 193.778 177.673 192.747 176.098 191.717C175.096 191.061 174.667 191.061 173.282 191.53C171.85 192.045 171.517 191.997 170.658 191.248C169.703 190.406 169.654 190.031 169.941 186.566C170.132 184.412 170.562 182.492 170.943 182.07C171.517 181.461 171.563 180.337 171.23 176.029C170.752 170.13 170.371 169.474 166.934 168.537C164.309 167.882 163.02 166.806 163.02 165.353C163.02 163.621 163.689 162.778 165.455 162.216C166.792 161.748 167.077 161.374 167.555 159.359C167.842 158.095 168.319 156.644 168.605 156.129C169.034 155.426 168.986 154.911 168.414 153.881C168.032 153.132 167.793 152.149 167.936 151.68C168.032 151.259 167.984 149.901 167.793 148.73C167.603 147.513 167.651 146.529 167.89 146.529C168.08 146.529 168.271 146.202 168.271 145.827C168.271 144.422 167.125 142.876 165.359 141.894C161.732 139.879 153.999 140.957 152.568 143.673C152.233 144.235 151.756 144.656 151.422 144.656C150.563 144.656 149.704 146.202 149.369 148.402C149.178 149.666 149.226 150.276 149.608 150.276C149.895 150.276 150.133 150.79 150.133 151.399C150.133 152.758 152.663 157.58 154.238 159.219C155.479 160.483 155.766 162.498 154.811 163.247C154.477 163.527 152.472 164.089 150.372 164.558C143.69 165.962 142.925 166.524 138.058 173.22C136.482 175.422 134.049 178.418 132.664 179.87C131.279 181.368 130.087 183.007 129.991 183.616C129.848 184.552 129.609 184.645 126.03 184.645C121.877 184.693 119.347 185.676 118.344 187.642C118.059 188.204 117.438 189.095 116.913 189.657C115.672 190.968 115.767 194.385 117.104 196.867C118.153 198.881 120.063 200.988 122.116 202.487C122.975 203.096 123.5 203.892 123.547 204.734C123.643 205.952 123.308 206.233 119.586 208.153C117.342 209.324 115.004 210.728 114.335 211.337C113.667 211.946 112.14 213.07 110.947 213.865C109.753 214.661 107.988 216.16 106.985 217.236C105.363 219.017 105.172 219.391 105.457 221.03C105.983 224.167 107.224 227.164 109.897 231.753C112.713 236.529 113.047 236.904 114.717 236.904C116.196 236.904 118.631 232.175 117.724 231.097C117.342 230.677 116.579 230.348 116.006 230.348C115.385 230.348 114.526 230.208 114.097 230.02C112.856 229.599 110.517 224.354 110.517 222.013C110.517 219.906 110.756 219.766 112.569 220.562C113.524 220.983 114.002 220.937 114.956 220.281C117.152 218.876 118.153 219.484 119.729 223.09C120.922 225.9 121.066 226.789 120.827 229.271C120.684 230.864 120.349 232.55 120.111 233.017C118.918 235.172 118.153 238.777 118.153 242.242C118.153 246.738 118.727 249.033 120.301 250.858C121.066 251.748 121.495 252.872 121.59 254.51C121.734 256.571 121.638 256.805 120.779 256.712C120.255 256.618 117.677 256.383 115.004 256.196C109.801 255.776 109.277 255.541 104.598 251.513C102.832 250.015 102.021 249.594 101.258 249.828C99.7303 250.297 98.7751 251.28 97.8679 253.434C96.5326 256.665 96.2457 257.227 95.0051 258.818C93.7164 260.598 93 264.719 93.6684 266.732C94.3848 268.84 96.103 268.7 98.8712 266.265C102.45 263.173 104.359 262.002 105.696 262.097C106.365 262.144 107.414 261.957 107.94 261.675C108.799 261.253 110.136 261.441 114.861 262.612C118.107 263.455 120.97 264.297 121.16 264.485C121.351 264.672 120.301 265.328 118.774 265.843C117.152 266.452 114.717 267.903 112.808 269.449C108.847 272.679 106.603 273.522 102.88 273.101C100.923 272.913 99.825 273.008 99.3007 273.428C98.4416 274.131 98.3455 277.69 99.11 279.189C99.4434 279.703 99.7303 282.279 99.7783 284.901C99.873 291.035 100.923 293.189 104.169 293.844C106.078 294.219 106.555 293.47 106.794 289.443C106.985 286.727 107.414 285.37 108.608 283.122C109.468 281.529 110.517 279.563 110.899 278.72C111.758 276.987 116.293 274.739 123.738 272.399C128.798 270.806 130.564 269.307 130.564 266.685C130.564 265.843 131.233 263.876 131.996 262.377C133.094 260.271 133.523 258.585 133.857 255.354C134.334 250.951 135.575 246.036 136.339 245.567C136.578 245.379 136.769 244.49 136.769 243.459C136.769 242.477 137.056 240.135 137.437 238.262C137.819 236.342 138.296 233.814 138.439 232.55C138.583 231.332 138.821 230.348 138.965 230.348C139.107 230.348 139.728 230.677 140.348 231.097C141.924 232.128 143.785 231.613 144.788 229.88C145.312 228.944 145.98 228.475 146.745 228.475C147.699 228.475 147.843 228.662 147.556 229.74C147.413 230.489 146.936 233.157 146.506 235.734C144.834 246.036 143.212 250.671 139.728 255.259C137.056 258.725 136.482 260.036 133.666 268.371C130.659 277.174 128.846 280.64 127.08 280.827C125.886 280.967 121.495 285.088 121.495 286.072C121.495 286.352 122.449 287.617 123.643 288.834C124.836 290.052 125.791 291.316 125.791 291.644C125.791 291.925 126.078 292.159 126.459 292.159C127.318 292.159 129.275 294.781 128.894 295.437C128.75 295.717 126.221 295.952 123.262 295.999L117.915 296.092L124.121 296.374C127.748 296.514 130.325 296.795 130.325 297.076C130.325 297.357 127.461 297.638 123.166 297.778L116.006 298.059L123.308 298.152C129.609 298.247 130.85 298.387 131.901 299.136C133.045 299.885 134.525 300.025 143.69 300.307C149.465 300.447 162.687 300.822 173.044 301.103C193.521 301.711 294.136 301.805 302.583 301.291C305.399 301.103 307.501 300.775 307.166 300.587C305.925 299.838 316.283 299.464 336.759 299.558C348.452 299.605 358.285 299.464 358.619 299.23C359.239 298.856 344.491 298.247 334.897 298.247C332.176 298.247 330.077 298.107 330.267 297.872C330.458 297.685 333.369 297.31 336.663 297.076L342.725 296.561L335.565 296.234C331.651 296.046 323.919 295.765 318.478 295.624C313.037 295.484 308.645 295.203 308.788 295.063C308.932 294.968 315.423 294.688 323.25 294.501L337.474 294.173L321.532 294.126C307.356 294.126 305.543 294.032 305.161 293.377C304.922 292.955 303.252 291.878 301.485 290.989C299.482 290.052 297.476 288.554 296.331 287.289C295.281 286.072 294.136 285.135 293.849 285.135C293.514 285.135 293.42 284.901 293.562 284.666C293.706 284.386 293.42 284.199 292.894 284.199C290.555 284.199 291.605 279.796 296.427 269.167C299.291 262.986 300.102 260.738 301.677 254.932C303.109 249.687 303.348 249.266 305.161 248.845C307.118 248.423 308.597 247.112 309.217 245.239C310.03 242.992 309.456 236.858 308.121 232.55C307.166 229.506 307.166 229.318 307.929 225.76C308.502 223.23 308.788 219.297 308.884 212.554C309.171 192.138 309.743 184.458 310.936 184.458C311.128 184.458 311.509 185.536 311.748 186.893C311.987 188.204 312.511 189.515 312.941 189.75C314.229 190.546 319.958 188.486 324.157 185.769C327.69 183.429 327.929 183.194 328.072 181.415C328.168 180.432 328.12 178.886 327.929 178.044C327.69 176.733 327.355 176.451 325.733 176.029C322.106 175.047 321.771 175.327 321.485 179.261C321.247 182.585 321.199 182.772 319.91 183.194C317.475 183.943 317.142 183.054 316.855 175.655C316.664 170.832 316.712 168.866 317.142 168.35C317.857 167.555 316.664 160.577 315.518 158.892C315.137 158.33 313.705 157.486 312.32 157.066C309.265 156.082 307.07 155.005 306.593 154.302C306.164 153.694 306.116 150.93 306.497 149.432C306.736 148.683 307.404 148.215 308.98 147.746C310.984 147.184 311.223 146.951 311.557 145.406C311.748 144.469 312.368 142.83 312.893 141.752C313.609 140.254 313.705 139.646 313.276 138.897C312.989 138.335 312.798 136.695 312.846 135.197C313.085 128.033 309.839 125.036 302.298 125.598C298.336 125.831 296.379 127.002 294.708 129.999C293.514 132.107 293.324 132.247 290.985 132.574C289.648 132.809 287.691 133.371 286.689 133.886C283.778 135.291 281.201 135.571 279.626 134.589C278.909 134.12 277.907 133.278 277.43 132.762L276.571 131.779L276.904 132.949C277.334 134.589 278.48 135.759 280.342 136.555C282.06 137.257 282.298 137.632 281.009 137.632C280.533 137.632 278.718 136.79 276.952 135.759C274.614 134.355 273.325 133.886 271.988 133.933L270.175 134.027L272.084 134.307C274.28 134.682 276.141 135.571 276.141 136.228C276.141 136.508 275.854 136.695 275.569 136.742C274.756 136.742 276.809 137.586 279.483 138.335L281.631 138.897L279.72 139.225C276.761 139.739 275.759 140.301 274.995 141.752C274.184 143.298 271.845 143.907 268.409 143.438C266.643 143.251 266.5 143.251 267.311 143.767C267.837 144.094 269.411 144.609 270.795 144.844L273.325 145.358L271.893 147.231C270.079 149.573 269.984 150.556 271.749 148.59C273.038 147.138 275.95 145.124 276.857 145.124C277.096 145.124 276.428 145.967 275.425 146.997C273.993 148.402 273.754 148.87 274.423 148.87C274.995 148.87 275.186 149.105 274.948 149.761C274.756 150.323 275.282 150.088 276.523 148.917C278.337 147.279 285.21 143.86 285.21 144.656C285.21 144.844 284.16 145.686 282.823 146.529C280.198 148.215 279.816 148.59 281.631 147.934C284.16 146.997 285.973 145.873 287.787 144.235L289.648 142.549L289.315 144.187C288.55 147.793 288.456 149.245 288.98 150.088C289.409 150.885 289.506 150.837 289.506 149.573C289.602 147.419 291.176 143.485 291.94 143.485C292.37 143.485 292.751 142.643 293.038 141.003C293.514 138.428 293.992 137.961 294.518 139.505C294.66 140.021 295.662 141.519 296.713 142.83C298.432 144.937 298.622 145.406 298.336 146.951C297.667 150.837 295.854 152.383 289.409 154.443C285.83 155.613 282.727 158.002 280.342 161.467C279.529 162.638 277.668 164.885 276.189 166.431C272.227 170.552 270.031 173.314 269.268 175.187C268.552 176.826 268.6 176.92 269.888 178.652C271.273 180.572 273.993 182.585 280.007 186.331C282.442 187.83 284.303 189.422 285.543 191.061L287.454 193.59L285.782 197.102C282.966 203.096 282.727 204.079 282.775 208.34C282.919 215.363 284.923 220.421 290.603 227.913C291.796 229.411 292.846 231.566 293.372 233.532C294.803 238.496 294.756 238.589 291.367 238.964C289.792 239.105 286.595 239.855 284.351 240.65C279.387 242.335 278.146 242.383 276.713 240.931C276.141 240.275 274.662 239.386 273.421 238.964C271.512 238.215 271.129 238.215 270.031 238.824C267.502 240.229 266.833 241.773 266.785 246.41C266.739 248.798 266.548 251.748 266.356 252.966C265.689 257.367 268.409 262.659 271.368 262.659C272.084 262.659 272.895 262.377 273.182 262.05C273.468 261.769 273.993 259.567 274.423 257.274C274.948 254.23 275.425 252.824 276.093 252.31C276.619 251.888 277.191 250.999 277.382 250.297C278.002 247.862 279.291 247.487 286.547 247.814C290.126 248.002 293.229 248.329 293.468 248.564C293.658 248.751 292.894 250.999 291.749 253.621C289.076 259.38 288.742 260.691 288.074 267.014C287.071 276.941 285.497 282.513 283.54 283.262C282.727 283.543 282.298 284.292 281.868 286.165C281.535 287.523 281.009 289.116 280.627 289.678C279.674 291.222 279.816 292.159 281.248 293.657L282.536 294.968H247.981V293.704C247.981 292.955 247.455 291.878 246.692 291.129C245.594 290.005 245.307 289.209 245.068 286.165C244.783 283.028 244.878 282.326 245.737 280.78C246.883 278.767 247.073 278.72 248.266 280.031C249.555 281.482 251.895 282.326 254.424 282.326C257.67 282.326 257.764 281.436 255.14 277.409C254.615 276.612 254.137 274.834 253.994 273.335C253.804 270.9 253.898 270.478 255.283 268.652C256.094 267.529 258.768 264.719 261.201 262.331C264.495 259.193 265.641 257.742 265.641 256.899C265.641 256.243 264.876 254.277 263.971 252.544L262.252 249.36L263.015 244.63C263.397 242.055 264.256 238.589 264.972 236.951C265.641 235.312 266.452 232.737 266.785 231.239C267.454 228.007 267.741 227.633 268.742 228.662C270.557 230.442 272.704 228.662 273.754 224.496C274.041 223.465 274.614 221.873 274.995 220.983C275.854 218.969 275.33 217.144 273.706 216.254C272.753 215.785 272.514 215.88 271.703 216.816C271.034 217.658 270.89 218.36 271.082 219.719C271.607 222.903 270.795 222.575 269.601 219.064C268.17 214.896 267.072 213.35 265.067 212.508C262.299 211.43 262.06 210.353 264.495 210.119C266.07 209.979 266.309 209.791 267.168 207.638C267.789 206.045 268.17 203.705 268.313 200.379L268.552 195.463L266.881 193.778C264.876 191.717 261.44 190.733 258.338 191.248C257.24 191.436 255.855 191.623 255.283 191.623C254.663 191.67 254.185 191.857 254.185 192.045C254.185 192.232 253.517 192.981 252.658 193.778C251.273 195.041 251.13 195.416 251.13 198.131C251.082 201.41 252.324 204.079 255.092 206.654C255.903 207.451 256.572 208.433 256.572 208.855C256.572 209.979 254.424 211.524 252.324 211.899C251.369 212.039 250.032 212.601 249.317 213.07C248.601 213.585 247.312 214.099 246.501 214.287C244.305 214.709 239.914 217.191 239.054 218.455C238.101 219.906 238.482 221.357 241.537 227.633C244.209 233.157 245.403 233.954 247.551 231.706C248.314 230.91 248.934 230.068 248.934 229.88C248.934 229.646 248.029 228.804 246.977 227.96C244.878 226.321 243.255 223.465 243.207 221.311C243.207 219.953 244.018 219.626 245.068 220.608C245.403 220.937 246.548 221.217 247.646 221.217H249.651L249.794 226.134C249.89 230.068 249.747 231.613 248.982 233.861C245.833 243.272 245.785 246.41 248.792 249.594C249.89 250.764 249.984 251.186 249.984 255.821C249.984 260.458 250.08 260.786 250.939 260.786C251.751 260.786 251.847 261.02 251.608 262.002C251.13 263.735 248.458 268.278 247.885 268.278C247.599 268.278 246.31 269.402 245.02 270.713C243.065 272.82 242.778 273.382 243.017 274.506C243.398 276.192 240.582 280.593 239.293 280.313C238.816 280.171 237.718 280.874 236.525 282.091C234.855 283.777 234.568 284.339 234.807 285.323C234.998 286.025 235.666 287.056 236.334 287.617C237.336 288.412 239.436 291.831 240.725 294.594C240.821 294.828 238.101 294.968 234.664 294.968C231.228 294.968 228.411 294.875 228.411 294.735C228.411 294.641 228.936 294.032 229.604 293.377C230.272 292.721 230.798 291.784 230.798 291.316C230.798 290.24 229.08 287.945 228.267 287.945C227.217 287.945 222.874 285.744 221.585 284.573C220.631 283.684 220.44 283.309 220.87 282.888C221.3 282.466 221.3 282.326 220.726 282.326C220.392 282.326 219.581 281.624 219.008 280.78C218.054 279.422 217.91 278.627 217.91 274.552C217.91 272.024 218.245 267.996 218.626 265.703C219.008 263.361 219.772 258.865 220.25 255.634C221.061 250.577 221.538 249.126 223.59 244.865C224.927 242.148 226.025 239.293 226.025 238.449C226.025 237.607 225.404 235.359 224.592 233.392C222.97 229.318 222.874 228.616 223.924 227.492C224.64 226.743 224.545 226.462 223.113 223.746L221.538 220.842L222.827 214.943C225.022 205.062 225.212 203.423 224.64 197.991C224.353 195.276 224.258 192.326 224.353 191.436C224.497 190.546 224.831 188.018 225.118 185.723C225.404 183.476 225.786 181.65 225.977 181.65C226.168 181.65 226.597 182.165 226.884 182.819C227.36 183.803 227.743 183.99 229.461 183.99C232.563 183.99 234.664 183.241 237.48 181.181C238.864 180.151 240.295 179.308 240.582 179.308C240.917 179.308 241.728 178.886 242.444 178.324C243.446 177.575 243.685 177.013 243.637 175.422C243.637 174.345 243.35 172.612 243.065 171.628C242.491 169.85 242.348 169.755 239.675 169.146C237.862 168.726 236.668 168.679 236.382 168.959C236.096 169.241 235.905 170.926 235.857 172.705C235.857 175.515 235.714 176.031 235.046 176.031C233.9 176.031 233.518 174.625 233.422 169.943C233.279 165.073 230.702 152.898 229.461 151.212C228.936 150.557 227.647 149.761 226.454 149.433C222.635 148.309 220.154 147.231 219.676 146.436C219.343 145.92 219.294 145.078 219.628 143.86C220.011 142.316 220.296 141.987 222.111 141.472C223.924 140.863 224.116 140.676 224.116 139.272C224.116 138.428 224.497 136.462 225.022 134.916C225.595 132.996 225.738 131.872 225.451 131.311C225.166 130.89 225.07 129.859 225.166 129.11C225.308 128.314 225.022 126.441 224.545 124.989C224.068 123.491 223.781 121.571 223.877 120.728C224.21 118.106 223.209 117.31 219.437 117.17C217.671 117.122 215.142 117.31 213.805 117.684ZM278.05 140.255C278.05 140.63 275.998 142.269 275.473 142.316C275.234 142.316 275.521 141.8 276.141 141.145C277.191 140.021 278.05 139.646 278.05 140.255ZM287.978 171.159C290.269 181.181 290.461 184.6 288.694 185.254C286.976 185.911 279.912 180.806 277 176.826L275.95 175.422L280.962 170.832C283.682 168.304 286.117 166.289 286.402 166.384C286.641 166.431 287.358 168.584 287.978 171.159ZM144.549 181.603C144.979 183.522 145.98 194.76 145.79 194.947C145.695 194.994 144.549 194.994 143.308 194.854C141.494 194.714 140.683 194.339 139.489 193.168C137.389 191.108 134.669 185.536 135.193 184.412C135.384 183.943 136.96 182.398 138.678 181.041L141.781 178.511L143.022 179.448C143.738 179.917 144.405 180.899 144.549 181.603ZM139.25 199.397C140.874 201.737 142.066 201.832 144.358 199.911C147.221 197.524 147.508 199.022 145.408 204.781C144.644 206.889 143.69 209.557 143.355 210.728C143.022 211.946 142.544 212.976 142.305 213.023C142.114 213.07 141.255 212.086 140.396 210.868C139.155 208.995 138.439 208.527 135.958 207.638C131.327 205.998 130.325 204.734 132.807 203.563C134.812 202.627 135.241 199.49 134.143 194.527C133.81 193.168 133.857 193.168 135.91 195.276C137.056 196.493 138.535 198.319 139.25 199.397ZM140.778 223.605C140.922 224.027 140.635 224.87 140.109 225.525L139.155 226.743V224.776C139.155 222.81 140.157 222.061 140.778 223.605ZM162.972 240.978C166.838 244.677 167.316 245.848 166.17 249.313C165.74 250.624 165.264 253.341 165.12 255.307C164.929 257.32 164.644 258.913 164.452 258.913C164.261 258.913 163.211 258.585 162.113 258.211C159.584 257.367 157.962 257.882 157.579 259.755C157.388 260.458 157.293 263.595 157.388 266.685C157.484 270.385 157.293 273.053 156.864 274.646C155.908 278.065 156.72 282.044 158.725 283.824C159.536 284.573 160.491 285.135 160.92 285.135C161.732 285.135 162.733 282.981 164.07 278.392C164.548 276.612 165.311 274.552 165.74 273.757C166.648 271.977 167.077 272.586 167.459 276.238C167.745 278.392 167.603 279.189 166.6 281.155C165.933 282.419 164.881 284.199 164.261 285.041C163.259 286.352 163.163 286.821 163.546 287.898C163.831 288.647 164.452 289.631 164.977 290.098C165.455 290.52 165.884 291.176 165.884 291.551C165.884 291.878 166.409 292.159 167.221 292.206C168.51 292.206 171.087 294.641 170.275 295.155C170.084 295.25 163.307 295.437 155.24 295.484C141.064 295.624 140.587 295.624 139.298 294.688C138.535 294.126 137.915 293.377 137.819 292.955C137.676 292.253 138.965 292.159 151.183 292.018L164.69 291.925L150.754 291.784L136.864 291.691L136.291 290.052C136.004 289.162 135.862 287.758 136.052 287.008C136.243 286.212 136.1 284.573 135.767 283.309L135.193 281.062L137.867 275.723C143.164 265.187 148.128 256.478 149.752 254.792C150.658 253.855 151.709 252.31 152.042 251.42C153.283 248.189 158.725 237.84 159.202 237.84C159.441 237.84 161.159 239.246 162.972 240.978ZM212.851 242.897C212.66 243.601 211.896 246.363 211.133 249.078C209.461 255.072 209.27 259.334 210.512 268.278C211.514 275.817 211.324 283.028 210.13 284.854C209.653 285.51 209.318 286.681 209.318 287.476C209.318 288.272 208.889 289.771 208.317 290.847C207.696 292.018 207.457 293.142 207.6 293.844L207.887 294.968H195.476C183.639 294.968 183.067 294.922 183.067 294.079C183.067 293.611 181.969 292.206 180.68 290.942C178.294 288.694 175.144 283.402 175.526 282.279C175.622 281.951 175.048 280.967 174.189 280.078C173.139 278.954 172.567 277.783 172.376 276.332C171.946 273.148 172.041 265.656 172.519 264.344C173.044 263.126 177.148 260.645 181.969 258.678C193.473 254.043 201.157 251.28 203.353 250.999C206.598 250.577 207.552 249.735 209.653 245.567C210.607 243.741 211.562 242.008 211.801 241.728C212.564 240.791 213.185 241.493 212.851 242.897ZM147.986 296.841C149.178 297.123 148.939 297.216 146.697 297.263C145.121 297.263 143.929 297.123 143.929 296.841C143.929 296.326 145.838 296.326 147.986 296.841Z" fill="#E6601F"/>
</g>
<mask id="mask1_114_2" style="mask-type:luminance" maskUnits="userSpaceOnUse" x="0" y="0" width="417" height="424">
<path d="M416.334 0H0V423.962H416.334V0Z" fill="white"/>
</mask>
<g mask="url(#mask1_114_2)">
<mask id="mask2_114_2" style="mask-type:luminance" maskUnits="userSpaceOnUse" x="2" y="2" width="412" height="420">
<path d="M2.81104 2.75964H413.168V421.202H2.81104V2.75964Z" fill="white"/>
</mask>
<g mask="url(#mask2_114_2)">
<mask id="mask3_114_2" style="mask-type:luminance" maskUnits="userSpaceOnUse" x="3" y="2" width="410" height="420">
<path d="M59.5508 90.4296C58.7109 75.4937 58.7864 73.5425 59.2448 70.7666C59.8569 67.2388 60.2384 62.8108 62.5317 59.058C65.6663 54.1045 73.6153 50.1266 78.3542 44.9481C83.0931 39.7696 87.2982 30.089 90.8898 28.1378C92.5724 27.2363 94.3304 27.5368 95.4764 27.8373C96.3177 28.0623 96.9284 28.5878 97.3868 29.2629C97.9989 30.089 98.8401 32.2652 98.4572 32.5657C97.8465 33.0158 91.0435 28.887 91.1958 28.0623C91.2727 27.5368 93.6415 27.1608 94.7888 27.3117C95.8593 27.5368 97.1576 28.2119 97.8465 29.0379C98.5341 29.8639 99.1448 31.2142 98.9925 32.3393C98.9156 33.6154 97.6928 36.2431 96.776 36.2431C95.324 36.3172 90.5851 29.2629 91.1958 28.0623C91.6542 27.2363 94.5596 27.2363 95.7824 27.6122C96.8529 27.9868 97.922 29.0379 98.3818 30.0135C98.8401 30.9891 98.9925 32.4148 98.6864 33.4659C98.3818 34.5169 97.2344 36.3172 96.6237 36.2431C95.5532 36.0181 93.0307 29.1134 93.9475 27.2363C94.5596 25.8861 96.3177 25.9602 98.6864 25.1355C104.725 22.8838 123.911 18.3049 131.631 15.4536C135.912 13.877 139.886 10.1255 141.492 10.9501C142.715 11.5511 142.792 16.3537 142.409 16.5046C142.103 16.6542 140.804 15.1531 140.498 14.3284C140.115 13.5778 140.04 12.7518 140.269 11.9258C140.421 10.9501 141.263 9.59993 142.027 8.84937C142.638 8.32383 143.402 8.02334 144.167 7.7983C144.931 7.64872 145.848 7.72284 146.612 7.87376C147.377 8.0988 148.753 8.92348 148.676 9.0744C148.676 9.22398 144.244 8.24837 144.244 7.87376C144.32 6.67312 174.972 2.92028 180.321 3.67085C181.85 3.89588 182.538 4.19638 183.227 4.87149C183.991 5.54659 184.525 6.74723 184.602 7.72284C184.679 8.69844 184.296 9.89908 183.761 10.7251C183.15 11.4757 181.469 12.6763 181.009 12.3758C180.398 11.9258 180.78 6.14759 182.692 4.49553C185.214 2.31928 193.927 2.92028 197.75 3.51992C200.348 3.89588 204.017 5.39702 203.941 5.92255C203.864 6.44674 196.527 7.12319 196.144 6.44674C195.915 5.92255 197.52 4.27049 198.514 3.82042C199.431 3.29489 200.883 3.06985 201.953 3.37035C203.024 3.59538 204.323 4.34595 204.934 5.32156C205.622 6.37262 206.311 9.14986 205.546 9.82497C204.399 10.7251 196.45 8.62433 196.221 7.34823C195.915 6.29716 199.431 3.82042 200.807 3.37035C201.647 3.14531 202.412 3.44581 203.176 3.67085C203.864 3.97134 204.628 4.34595 205.163 5.02106C205.775 5.77163 206.386 7.27277 206.386 8.24837C206.463 9.0744 206.234 9.89908 205.852 10.5755C205.469 11.2506 204.934 11.8516 204.247 12.3017C203.634 12.7518 202.641 13.5024 202.03 13.1264C200.807 12.4513 199.431 4.34595 200.501 3.44581C201.112 2.92028 203.024 3.59538 203.941 4.27049C204.934 5.09652 206.005 7.04773 206.081 8.32383C206.157 9.44901 205.546 10.7251 204.857 11.5511C204.094 12.3758 202.106 13.5778 201.724 13.2019C201.037 12.6022 202.565 5.2461 204.553 4.57099C207.151 3.67085 212.808 10.1996 217.47 12.9768C222.592 15.9791 230.388 18.6809 234.286 21.9082C236.962 24.009 239.866 28.662 239.943 28.5878C240.018 28.5878 236.427 24.0844 236.656 23.8594C236.808 23.7085 238.185 24.3849 238.72 24.9846C239.408 25.7351 240.172 27.0867 240.324 28.2119C240.401 29.2629 240.018 30.6886 239.331 31.5901C238.643 32.4148 237.344 33.1654 236.35 33.4659C235.509 33.6909 234.286 33.9159 233.904 33.3904C233.14 32.2652 235.586 24.234 236.885 23.7085C237.573 23.4834 238.414 24.3095 239.025 24.9105C239.714 25.5856 240.478 26.9358 240.554 28.0623C240.631 29.1134 240.249 30.5391 239.56 31.4392C238.949 32.2652 237.573 33.0158 236.579 33.3163C235.738 33.5413 234.592 33.7664 234.21 33.2408C233.369 32.1898 235.356 24.5345 236.579 24.0844C237.42 23.7839 238.872 25.2096 239.485 26.1852C240.095 27.0867 240.324 28.5878 240.249 29.5634C240.172 30.3881 239.789 31.1387 239.331 31.7397C238.796 32.4148 238.185 32.9403 237.42 33.3163C236.502 33.6909 234.44 34.2164 233.904 33.6154C232.911 32.4903 235.127 24.3095 236.35 23.7839C236.962 23.5589 237.879 24.459 238.414 24.9846C239.025 25.5101 239.485 26.1852 239.714 26.9358C240.018 27.9114 240.018 29.488 239.637 30.4636C239.178 31.5147 238.185 32.5657 237.191 33.0158C236.198 33.4659 234.134 33.9914 233.598 33.3163C232.682 32.2652 234.975 24.61 236.198 24.0844C236.808 23.8594 237.726 24.7595 238.337 25.2851C238.872 25.8106 239.408 26.4857 239.637 27.2363C239.943 28.2119 239.943 29.7885 239.485 30.7641C239.102 31.8152 238.031 32.8649 237.038 33.3163C236.044 33.7664 234.134 34.2919 233.521 33.6154C232.375 32.5657 235.279 24.9105 234.44 24.0844C234.057 23.7839 232.605 24.5345 232.605 24.5345C232.528 24.459 233.98 23.7085 234.821 23.5589C235.586 23.4093 236.427 23.4834 237.191 23.7085C237.956 24.009 238.72 24.459 239.254 24.9846C239.789 25.5856 240.249 26.2607 240.478 27.0112C240.707 28.0623 240.554 29.6376 240.172 30.5391C239.866 31.2896 238.949 32.4903 238.72 32.4148C238.26 32.1898 238.185 26.2607 239.485 25.8106C241.776 24.9105 250.033 34.8161 255.612 38.5689C261.04 42.0967 270.059 45.099 272.582 47.6499C273.728 48.7764 274.11 49.752 274.186 50.8031C274.34 51.9282 273.957 53.2798 273.269 54.1799C272.657 55.0801 271.434 55.9061 270.288 56.1312C269.218 56.3562 267.154 56.3562 266.772 55.6056C266.16 54.405 270.136 47.3507 271.511 47.1998C272.352 47.1257 273.421 49.0014 273.804 49.9016C274.11 50.6521 274.11 51.4782 274.034 52.2287C273.957 52.9793 273.652 53.804 273.117 54.405C272.505 55.231 271.282 56.1312 270.211 56.3562C269.065 56.5812 267.078 56.5812 266.62 55.8307C266.008 54.63 270.059 47.2753 271.434 47.0502C272.046 46.8993 272.734 48.0258 273.192 48.6255C273.652 49.3019 273.957 50.0525 274.034 50.8772C274.034 51.8528 273.728 53.3539 273.117 54.2554C272.428 55.0801 271.205 55.9061 270.136 56.1312C269.065 56.3562 266.924 56.4317 266.62 55.6811C266.008 54.405 270.517 47.1998 271.663 46.9748C272.046 46.8993 272.352 47.2753 272.657 47.6499C273.192 48.3263 274.186 49.6765 274.263 50.8031C274.34 51.8528 273.957 53.2798 273.346 54.1799C272.657 55.006 271.434 55.8307 270.365 56.0557C269.295 56.3562 267.231 56.3562 266.849 55.6056C266.237 54.405 270.059 47.5757 271.359 47.3507C272.046 47.1998 272.734 48.3263 273.117 48.926C273.575 49.6011 273.881 50.3516 273.957 51.1777C273.957 52.1533 273.652 53.6544 273.04 54.5546C272.352 55.3806 271.13 56.2066 270.059 56.4317C268.989 56.7321 267.383 56.7321 266.543 55.9816C265.472 55.006 264.556 51.7787 265.091 50.2021C265.625 48.6255 268.301 46.6743 269.753 46.4492C270.823 46.2996 272.199 47.2753 272.963 47.9504C273.575 48.4759 274.034 49.151 274.186 49.9016C274.492 50.8772 274.34 52.4538 274.034 53.4294C273.728 54.1799 273.192 54.8551 272.505 55.3051C271.663 55.8307 269.83 56.8063 269.141 56.3562C267.995 55.456 268.301 47.3507 269.447 46.6743C270.136 46.2242 271.894 47.2753 272.657 48.1013C273.498 48.8518 274.034 50.2775 274.186 51.2531C274.263 52.0778 274.034 52.9038 273.728 53.579C273.421 54.2554 272.963 55.006 272.275 55.456C271.434 56.0557 269.371 56.9572 268.836 56.5058C267.995 55.6811 269.447 47.6499 271.282 47.1257C274.11 46.3751 287.946 61.6102 287.181 63.4105C286.875 64.161 282.595 62.9604 282.442 63.5614C282.136 64.3119 289.627 69.5646 290.162 69.1145C290.62 68.7399 286.798 63.2609 287.104 63.0358C287.257 62.8863 289.244 64.4615 289.779 65.4371C290.314 66.4127 290.391 67.9893 290.238 69.0404C290.085 69.8651 289.704 70.5415 289.015 71.1412C288.327 71.8917 286.798 72.6423 285.805 72.7919C284.963 72.9428 283.665 73.0924 283.359 72.4927C282.595 71.2908 285.576 63.2609 287.028 62.8863C287.869 62.7353 289.244 64.4615 289.779 65.2876C290.162 66.0381 290.314 66.8628 290.314 67.6888C290.314 68.4394 290.162 69.3395 289.704 70.016C289.168 70.9161 288.021 71.9672 286.952 72.4173C285.882 72.7919 283.359 72.7178 283.282 72.3418C283.13 71.8917 287.41 68.9649 290.238 68.589C294.06 67.9893 300.175 69.9405 304.302 71.5171C307.972 72.9428 310.341 74.8186 314.01 77.2198C319.131 80.5981 329.908 86.9018 331.973 90.2787C332.737 91.5548 332.737 92.6813 332.431 93.731C332.202 94.7821 331.285 96.0582 330.52 96.6592C329.833 97.1834 329.068 97.4839 328.227 97.5593C327.463 97.6348 326.623 97.6348 325.858 97.3343C324.865 96.9583 322.953 95.6081 323.107 95.0826C323.411 94.1824 331.514 93.2809 332.049 94.1824C332.355 94.708 330.903 96.5082 330.139 97.1092C329.45 97.7089 328.762 98.0094 327.921 98.0848C326.852 98.1603 325.323 97.9339 324.405 97.3343C323.411 96.8087 322.572 95.4572 322.189 94.557C321.959 93.731 321.73 92.9818 322.113 92.1558C322.801 90.7301 326.163 88.0283 327.921 87.8033C329.145 87.6523 330.444 88.4784 331.208 89.1535C331.897 89.679 332.279 90.4296 332.508 91.1047C332.814 91.8553 332.966 92.6813 332.737 93.506C332.585 94.4816 331.897 95.9086 330.979 96.5837C330.139 97.2588 328.075 98.1603 327.616 97.7843C326.928 97.1092 328.304 90.5792 329.985 89.9795C331.973 89.3785 337.324 94.708 339.846 97.0338C341.681 98.8354 343.514 100.636 344.127 102.288C344.662 103.488 344.585 104.839 344.279 105.89C344.05 106.64 343.514 107.315 342.979 107.916C342.368 108.442 341.604 108.892 340.84 109.117C340.075 109.267 339.158 109.342 338.394 109.192C337.63 109.042 336.788 108.591 336.176 108.141C335.565 107.616 334.953 107.016 334.724 106.19C334.343 104.99 334.495 102.813 335.03 101.613C335.642 100.486 336.865 99.5105 337.859 98.985C338.623 98.6104 339.463 98.5349 340.304 98.6104C341.069 98.6845 341.91 98.8354 342.675 99.3609C343.514 99.9606 344.508 101.237 344.814 102.212C345.12 102.963 345.043 103.938 344.968 104.614C344.891 105.065 344.968 105.589 344.585 105.74C343.514 106.266 335.336 103.038 335.107 101.687C334.953 100.862 336.711 99.586 337.705 99.1359C338.776 98.76 340.304 98.6845 341.375 98.985C342.445 99.3609 343.591 100.411 344.203 101.237C344.662 101.912 344.891 102.813 344.891 103.564C344.968 104.314 345.043 105.665 344.433 105.89C343.21 106.491 335.795 102.662 335.489 101.312C335.336 100.636 336.407 99.8865 337.017 99.4351C337.63 98.985 338.469 98.6104 339.311 98.4595C340.075 98.3099 340.992 98.3853 341.756 98.6845C342.521 98.9095 343.285 99.3609 343.821 99.9606C344.356 100.486 344.814 101.237 345.043 101.987C345.273 102.738 345.273 103.789 345.197 104.464C345.12 104.914 345.12 105.139 344.814 105.589C344.05 106.491 340.992 108.591 339.54 108.742C338.623 108.892 337.859 108.517 337.171 108.066C336.33 107.466 335.259 106.34 334.878 105.29C334.495 104.239 334.572 102.738 335.03 101.687C335.489 100.636 336.711 99.586 337.63 99.1359C338.394 98.76 339.463 98.2344 339.998 98.6845C341.069 99.5105 340.992 107.841 339.769 108.591C339.082 109.042 337.247 107.916 336.407 107.166C335.642 106.34 335.03 104.914 334.878 103.938C334.801 103.038 334.953 102.212 335.336 101.537C335.642 100.787 336.101 100.112 336.788 99.586C337.63 98.985 339.005 98.3853 340.228 98.4595C341.681 98.5349 343.21 99.4351 344.814 100.486C347.107 101.987 349.478 104.239 352.076 107.315C356.279 112.42 362.013 122.1 366.14 129.381C369.962 136.21 375.466 145.592 376.23 149.645C376.536 151.296 376.382 152.271 375.848 153.247C375.313 154.223 374.243 155.274 373.172 155.724C372.102 156.098 370.574 156.174 369.504 155.799C368.356 155.423 366.598 154.372 366.675 153.472C366.752 151.971 374.32 147.694 375.618 148.218C376.23 148.444 376.23 149.795 376.307 150.545C376.307 151.371 376.153 152.196 375.772 152.946C375.236 153.848 374.089 154.973 373.02 155.423C372.026 155.873 370.421 155.873 369.35 155.499C368.281 155.123 366.369 153.547 366.598 153.171C366.828 152.572 374.624 153.247 374.853 153.998C375.007 154.372 373.784 155.274 373.02 155.574C372.026 156.024 370.421 156.174 369.35 156.024C368.51 155.799 367.746 155.349 367.134 154.824C366.523 154.298 366.063 153.547 365.758 152.797C365.452 152.046 365.376 151.146 365.452 150.396C365.605 149.645 365.682 148.444 366.369 148.144C367.821 147.543 375.084 150.47 375.772 152.122C376.153 153.097 375.084 154.598 374.243 155.423C373.478 156.174 371.949 156.775 370.879 156.924C370.039 157 369.198 156.849 368.433 156.474C367.517 156.024 366.294 154.824 365.834 153.922C365.376 153.171 364.917 152.046 365.376 151.521C366.294 150.47 375.007 150.396 375.772 151.596C376.23 152.271 374.93 154.147 374.243 154.898C373.707 155.574 372.943 155.949 372.102 156.174C371.108 156.399 369.504 156.399 368.433 155.949C367.363 155.499 366.294 154.372 365.834 153.397C365.376 152.647 364.917 151.746 365.376 150.995C366.14 149.57 372.026 146.718 373.937 147.318C375.466 147.919 375.389 150.621 376.611 152.496C378.446 155.274 382.575 159.326 384.179 161.878C385.249 163.604 385.555 164.355 386.243 166.306C387.466 169.983 388.995 176.812 389.759 182.667C390.6 189.122 389.759 197.902 390.6 203.381C391.136 207.133 392.358 209.31 392.894 212.612C393.581 216.215 393.963 219.067 394.269 224.245C394.956 234.678 396.181 260.345 395.11 271.077C394.575 276.781 394.192 283.16 392.358 283.986C391.211 284.436 387.924 281.434 387.924 281.434C387.924 281.509 390.524 282.71 391.211 283.61C391.746 284.287 391.976 285.111 392.052 285.862C392.129 286.688 392.052 287.512 391.746 288.263C391.288 289.239 390.218 290.441 389.224 290.965C388.23 291.416 386.166 291.942 385.555 291.265C384.637 290.216 387.007 281.81 388.384 281.358C389.224 281.059 390.753 282.634 391.365 283.46C391.9 284.136 392.129 284.962 392.205 285.712C392.282 286.537 392.205 287.363 391.823 288.113C391.365 289.089 390.371 290.29 389.378 290.74C388.307 291.265 386.243 291.791 385.708 291.116C384.791 290.065 387.16 282.184 388.459 281.659C389.072 281.358 390.065 282.184 390.6 282.785C391.365 283.536 392.129 285.037 392.282 286.013C392.434 286.837 392.205 287.739 391.9 288.414C391.594 289.165 391.059 289.915 390.447 290.441C389.836 290.891 388.995 291.341 388.23 291.49C387.466 291.641 385.862 291.641 385.785 291.416C385.708 291.04 390.218 287.663 391.671 288.564C395.339 290.74 392.74 321.136 392.129 332.018C391.823 338.623 391.136 344.552 390.294 347.854C389.913 349.43 389.607 350.481 388.995 351.231C388.459 351.906 387.772 352.356 386.931 352.507C385.937 352.808 384.333 352.882 383.339 352.432C382.269 351.982 381.198 350.857 380.663 349.955C380.281 349.28 380.128 348.38 380.204 347.629C380.204 346.879 380.204 345.903 380.817 345.302C382.116 344.327 387.39 343.726 389.224 344.852C390.83 345.828 390.753 348.155 391.746 350.931C393.81 356.86 400.155 374.122 399.926 378.85C399.772 380.501 399.237 381.402 398.473 382.153C397.708 382.978 396.333 383.654 395.186 383.804C394.04 383.879 392.588 383.503 391.671 382.828C390.753 382.153 389.682 380.951 389.682 379.75C389.607 378.325 392.74 374.872 392.588 374.797C392.511 374.723 390.218 377.799 390.065 377.649C389.913 377.574 390.447 376.073 390.982 375.398C391.671 374.647 393.046 373.747 394.117 373.522C394.956 373.222 395.798 373.371 396.562 373.596C397.327 373.747 398.168 374.197 398.703 374.797C399.314 375.322 399.772 376.073 400.078 376.823C400.307 377.574 400.155 379.225 400.307 379.225C400.384 379.225 400.231 376.148 400.766 375.999C401.301 375.772 402.907 377.649 403.365 378.55C403.747 379.3 403.9 380.126 403.824 380.951C403.671 382.002 402.982 383.503 402.295 384.254C401.759 384.929 400.995 385.38 400.155 385.53C399.162 385.83 396.945 386.055 396.485 385.305C395.721 384.104 399.237 376.373 400.614 375.999C401.224 375.848 402.066 376.899 402.524 377.574C403.059 378.175 403.442 378.926 403.594 379.75C403.671 380.801 403.518 382.378 402.907 383.354C402.295 384.329 401.072 385.229 400.001 385.605C398.932 385.904 396.715 386.129 396.333 385.38C395.569 384.178 399.772 376.674 400.92 376.298C401.301 376.224 401.607 376.598 401.989 376.974C402.601 377.574 403.747 378.926 403.9 380.051C404.13 381.177 403.824 382.677 403.288 383.654C402.678 384.63 401.455 385.53 400.307 385.904C399.237 386.205 396.791 386.129 396.639 385.679C396.485 385.004 401.378 381.177 403.059 381.402C404.436 381.627 405.2 383.579 406.269 385.229C407.875 387.631 410.091 391.684 411.008 394.611C411.773 396.938 412.614 400.914 412.232 401.065C411.773 401.215 408.563 395.962 408.639 395.887C408.792 395.811 412.385 398.963 412.768 400.689C413.149 402.341 412.232 404.367 411.468 406.093C410.779 407.745 409.862 409.171 408.41 410.897C406.423 413.224 402.524 416.826 399.926 418.403C398.091 419.528 396.562 420.053 394.804 420.428C393.123 420.879 390.906 421.029 389.453 420.879C388.459 420.804 387.695 420.579 386.931 420.203C386.243 419.753 385.555 419.227 385.097 418.477C384.562 417.501 384.179 415.926 384.333 414.799C384.562 413.599 385.326 412.248 386.243 411.498C387.16 410.821 389.378 409.846 389.913 410.371C390.676 411.122 388.995 418.403 386.549 419.828C383.415 421.63 374.853 418.102 370.956 417.276C368.662 416.826 367.517 416.676 365.452 415.85C362.624 414.799 358.649 412.022 355.821 411.046C353.834 410.371 352.458 410.596 350.394 409.921C347.337 408.796 343.821 405.943 339.769 404.518C334.878 402.867 327.921 402.116 322.647 401.29C318.291 400.689 314.621 400.689 310.417 400.014C305.831 399.264 298.876 398.439 296.201 396.862C294.901 396.112 294.213 395.212 293.831 394.161C293.449 393.11 293.449 391.608 293.831 390.559C294.213 389.508 295.359 388.457 296.276 387.931C297.041 387.481 298.111 386.955 298.646 387.331C299.792 388.156 299.946 396.637 298.723 397.463C298.034 397.913 296.201 396.787 295.359 396.187C294.672 395.662 294.213 394.911 293.984 394.161C293.678 393.41 293.524 392.584 293.678 391.759C293.907 390.784 294.518 389.357 295.359 388.606C296.276 387.856 298.111 386.88 298.799 387.331C300.021 388.156 300.557 395.662 298.569 397.463C296.047 399.714 288.327 396.637 281.83 396.562C272.582 396.412 255.23 398.513 248.275 397.463C244.988 396.938 241.243 394.836 241.166 394.987C241.089 395.136 243.841 396.337 243.765 396.486C243.765 396.562 243.001 396.486 242.541 396.337C241.776 396.036 240.249 395.136 239.637 394.236C239.102 393.335 238.72 391.833 238.949 390.784C239.102 389.733 239.789 388.381 240.707 387.706C241.547 387.031 243.001 386.28 244.07 386.581C245.446 386.955 247.204 389.733 247.815 391.308C248.275 392.584 248.35 394.085 247.969 394.987C247.663 395.737 246.898 396.261 246.211 396.637C245.523 397.012 244.605 397.237 243.841 397.237C243.076 397.237 242.236 397.163 241.472 396.713C240.554 396.187 239.485 395.061 239.025 394.085C238.643 393.335 238.566 392.51 238.643 391.759C238.72 391.009 239.102 389.508 239.485 389.508C240.249 389.432 244.223 395.586 243.23 396.787C241.318 399.188 219.457 391.984 210.591 389.357C204.399 387.481 198.208 385.98 194.998 383.428C192.857 381.852 191.634 379.525 191.099 377.95C190.717 376.899 190.717 375.999 191.023 375.097C191.328 374.122 192.246 372.846 193.086 372.246C193.775 371.72 194.54 371.495 195.304 371.42C196.144 371.27 196.985 371.42 197.75 371.72C198.437 371.945 199.202 372.471 199.737 373.071C200.195 373.596 200.883 374.273 200.807 375.173C200.654 376.674 197.291 380.501 195.915 381.327C195.227 381.701 194.692 381.777 194.004 381.552C193.086 381.327 191.711 380.351 191.176 379.451C190.564 378.475 190.259 377.048 190.488 375.999C190.641 374.948 191.405 373.672 192.322 372.996C193.163 372.246 195.227 371.42 195.686 371.87C196.45 372.621 194.998 379.225 193.315 380.276C191.863 381.102 189.953 379.75 187.124 378.926C179.94 376.674 160.754 367.442 150.434 364.065C143.173 361.738 137.517 361.138 131.479 359.337C125.822 357.61 120.472 355.06 115.198 353.633C110.305 352.356 105.031 352.583 100.98 350.931C97.6173 349.581 94.8657 347.253 92.3432 345.378C90.3545 343.801 88.9025 341.85 87.069 340.799C85.5401 339.899 84.0868 340.048 82.3287 339.148C79.6539 337.722 76.2915 334.119 73.0046 332.094C69.87 330.217 66.8123 329.918 63.2207 327.365C57.3344 323.238 49.2317 313.03 42.8884 307.776C37.9958 303.649 31.8049 300.422 28.8995 297.795C27.4475 296.519 26.7599 295.769 25.9186 294.417C24.8481 292.842 24.2374 291.341 23.1669 288.94C21.1028 284.512 16.6699 275.73 15.1411 269.502C13.7659 264.097 14.835 258.243 13.4599 253.815C12.3126 250.138 10.0193 246.986 8.41491 244.509C7.1921 242.633 5.50952 241.507 4.82195 239.856C4.13437 238.279 4.13437 237.003 3.90518 234.903C3.4468 231.15 3.06389 224.47 3.14075 219.216C3.14075 213.963 2.8347 208.86 4.13437 203.23C5.58638 196.477 10.173 189.046 12.4663 181.692C14.7596 174.337 15.8287 166.907 18.0451 159.101C20.4153 150.545 22.8609 140.939 26.4538 132.308C30.1223 123.601 36.2377 114.371 39.7539 106.941C42.5055 101.462 44.1113 96.7333 46.4045 92.1558C48.5441 87.9528 50.6837 84.0504 52.977 80.4472C55.0411 77.2198 56.6468 75.1191 59.474 71.3662C64.3666 64.9116 76.0609 48.5514 80.1891 45.6245C81.4888 44.723 82.3287 44.5735 83.2468 44.498C84.0113 44.498 84.6989 44.6489 85.3864 45.099C86.1509 45.5491 87.1445 46.5247 87.4505 47.5003C87.8334 48.4004 87.7566 49.8275 87.4505 50.6521C87.2213 51.4027 86.763 52.3783 86.1509 52.4538C84.8512 52.5292 79.577 46.8252 79.8831 45.5491C80.1123 44.7985 81.9472 44.4226 82.9408 44.498C83.9344 44.498 85.2341 45.099 85.9217 45.6245C86.5338 46.0746 86.9153 46.7497 87.1445 47.4248C87.4505 48.1013 87.5274 48.8518 87.3737 49.527C87.2213 50.4271 86.6092 52.3042 85.8448 52.3783C84.5465 52.5292 79.577 46.9748 79.9599 45.7741C80.1123 45.099 81.9472 44.723 82.9408 44.723C84.0113 44.723 85.2341 45.1731 85.9985 45.8496C86.763 46.5247 87.3737 47.7253 87.4505 48.7009C87.5274 49.6765 86.9921 51.1022 86.6092 51.7787C86.3801 52.1533 86.3046 52.4538 85.9217 52.6033C84.7757 52.9038 80.0368 51.8528 78.5834 50.3516C77.2851 49.0014 76.8253 46.3751 76.9022 44.5735C76.9022 43.1478 77.3606 41.4216 78.2019 40.5201C78.8126 39.7696 79.9599 39.3195 80.8767 39.244C81.7948 39.0945 82.9408 39.244 83.7821 39.7696C84.7757 40.446 85.9985 42.1722 86.1509 43.4469C86.2277 44.723 85.3864 46.6001 84.3928 47.3507C83.3223 48.1754 81.2596 48.5514 80.0368 48.1754C78.8126 47.8008 77.3606 46.2996 76.9791 45.099C76.5962 43.8984 77.1314 41.8717 77.819 40.8961C78.4311 40.0701 79.4247 39.4704 80.3415 39.3195C81.5643 39.0945 83.6284 39.395 84.622 40.3706C85.9217 41.6467 87.4505 46.2242 86.6092 47.1257C85.8448 47.9504 79.9599 46.2242 79.9599 45.7741C79.8831 45.4736 82.8639 44.6489 84.0868 44.874C85.0804 45.0235 86.1509 45.8496 86.6861 46.6743C87.2982 47.5003 87.6029 48.7764 87.4505 49.8275C87.2982 50.8031 86.6861 52.5292 85.9217 52.6033C84.622 52.7543 79.577 46.8252 79.8831 45.5491C80.1123 44.7985 81.9472 44.4226 82.9408 44.498C83.9344 44.498 85.2341 44.874 85.9217 45.6245C86.763 46.4492 87.5274 48.4004 87.3737 49.527C87.2982 50.578 86.6092 52.3042 85.8448 52.3783C84.622 52.4538 79.9599 46.8252 80.1891 45.6245C80.3415 45.0235 81.4119 44.7985 82.0995 44.6489C83.0931 44.498 84.4697 44.5735 85.3864 45.099C86.2277 45.5491 87.1445 46.5247 87.4505 47.5003C87.8334 48.4004 87.9089 49.6011 87.4505 50.6521C86.763 52.2287 84.7757 53.1289 82.8639 55.5302C78.5834 60.7087 68.9532 74.5935 64.0606 82.3243C60.5445 87.8774 58.022 92.3053 55.4995 97.1834C53.2831 101.613 52.2126 105.139 49.7669 110.242C46.174 117.823 39.1418 128.855 35.4733 137.861C32.2633 145.817 30.6575 153.097 28.4411 161.203C25.9955 169.834 24.2374 180.416 21.5612 188.146C19.4985 194.225 15.9824 198.502 14.7596 203.981C13.4599 209.46 13.8414 215.314 13.9183 221.018C13.9951 226.871 13.6891 235.428 15.3703 238.73C16.287 240.531 17.8928 240.456 19.0401 241.957C20.7213 243.984 22.5562 247.961 23.5498 250.514C24.1606 252.314 24.4666 253.365 24.6958 255.316C25.0018 258.093 23.8545 261.771 24.6189 265.448C25.5371 270.251 29.7408 277.155 31.1159 281.358C31.9572 283.911 31.2696 285.561 32.7216 287.739C35.2441 291.416 42.9639 294.417 48.3918 298.921C55.0411 304.549 64.1374 315.957 69.2593 319.334C71.7804 320.911 73.3092 320.61 75.4502 321.737C78.0495 323.087 81.1827 325.263 83.476 326.989C85.3864 328.416 86.6092 330.143 88.4442 331.343C90.2022 332.468 92.1126 332.619 94.1012 333.82C96.6992 335.395 99.6801 338.999 102.279 340.5C104.19 341.549 105.489 341.999 107.86 342.6C111.376 343.652 117.72 343.877 121.924 345.153C125.516 346.202 127.733 347.929 131.708 349.205C137.517 351.231 145.466 352.282 153.721 354.984C164.957 358.586 185.443 367.067 192.322 370.219C194.921 371.42 196.831 371.495 197.52 373.071C198.36 375.023 196.221 381.177 195.227 381.777C194.844 382.002 194.463 381.777 194.004 381.552C193.24 381.251 191.788 380.276 191.176 379.451C190.641 378.775 190.488 377.95 190.411 377.199C190.334 376.449 190.411 375.547 190.793 374.872C191.328 373.972 192.399 372.846 193.315 372.32C194.08 371.945 195.609 371.72 195.686 371.87C195.762 372.095 191.788 374.422 191.863 374.422C191.863 374.422 195.686 371.645 195.838 371.87C196.067 372.095 191.634 377.649 191.023 377.499C190.717 377.349 190.87 375.848 191.023 375.097C191.253 374.347 191.634 373.596 192.169 372.996C192.705 372.471 193.315 371.945 194.157 371.645C195.15 371.344 196.679 371.27 197.75 371.72C198.743 372.095 199.889 373.371 200.424 374.046C200.654 374.422 200.96 374.948 200.807 375.173C200.73 375.322 199.966 375.173 199.966 375.322C199.966 375.698 202.412 376.749 204.782 377.574C210.744 379.676 230.77 383.428 237.344 385.454C240.324 386.43 242.007 386.505 243.765 387.931C245.675 389.508 248.198 393.486 247.969 394.987C247.815 395.811 246.898 396.261 246.211 396.637C245.523 397.012 244.605 397.237 243.841 397.237C243.076 397.237 242.159 397.087 241.472 396.713C240.783 396.337 240.095 395.887 239.637 395.136C239.102 394.31 238.643 392.809 238.643 391.759C238.72 390.933 239.331 389.508 239.485 389.508C239.637 389.508 238.949 391.759 239.408 392.735C240.018 394.085 243.917 396.261 243.765 396.486C243.688 396.713 241.243 395.887 240.478 395.136C239.637 394.386 238.949 393.11 238.872 391.984C238.796 390.858 239.254 389.432 239.866 388.606C240.324 387.856 241.013 387.405 241.701 387.031C242.389 386.73 243.076 386.581 244.07 386.581C246.057 386.505 248.962 387.631 252.708 387.856C259.511 388.156 273.421 386.356 281.83 386.356C288.175 386.43 296.047 384.779 298.569 387.331C300.557 389.357 299.792 396.637 298.723 397.463C298.263 397.838 297.041 397.237 296.353 396.862C295.665 396.486 294.978 395.962 294.518 395.212C293.984 394.386 293.524 392.885 293.678 391.759C293.831 390.633 294.518 389.357 295.359 388.606C296.276 387.856 298.111 386.88 298.799 387.331C300.021 388.156 299.869 396.637 298.646 397.463C297.882 397.913 296.047 396.938 295.207 396.187C294.366 395.437 293.678 394.085 293.524 392.96C293.372 391.833 293.754 390.408 294.443 389.508C295.053 388.606 296.124 387.856 297.424 387.481C299.334 386.955 302.315 387.556 304.991 388.006C308.049 388.606 311.03 390.183 314.85 390.933C320.049 391.909 328.075 391.833 333.425 392.735C337.63 393.41 340.075 393.936 344.508 395.361C351.694 397.688 363.236 404.142 371.797 406.769C378.905 408.946 389.988 407.594 392.052 410.897C393.581 413.298 390.83 420.129 389.453 420.879C388.766 421.329 387.695 420.653 386.931 420.203C386.014 419.603 384.943 418.403 384.562 417.276C384.179 416.151 384.333 414.574 384.714 413.523C385.02 412.698 385.555 412.022 386.243 411.498C387.16 410.897 389.836 410.222 389.913 410.371C389.913 410.447 386.549 412.097 386.626 412.097C386.626 412.248 393.198 410.146 395.875 408.271C398.473 406.469 400.537 400.99 402.295 400.99C403.594 400.99 405.505 404.593 405.582 404.518C405.658 404.442 402.83 401.065 401.53 398.889C399.926 396.337 398.014 392.359 396.868 389.882C396.027 388.156 395.339 387.031 394.881 385.454C394.498 383.953 393.658 382.153 394.269 380.801C395.033 379 399.237 376.148 400.92 376.298C402.066 376.449 403.059 377.874 403.518 378.85C404.053 379.901 404.053 381.476 403.747 382.527C403.594 383.354 403.059 384.029 402.448 384.63C401.913 385.154 401.224 385.679 400.307 385.904C399.314 386.129 397.097 386.43 396.639 385.679C395.798 384.403 399.162 376.298 400.614 375.999C401.455 375.848 402.678 377.649 403.213 378.625C403.594 379.376 403.671 380.202 403.671 381.026C403.594 381.777 403.442 382.677 402.907 383.354C402.295 384.178 401.072 385.229 400.001 385.605C398.932 385.904 396.715 386.129 396.333 385.38C395.569 384.178 399.391 376.298 400.766 375.999C401.455 375.772 402.219 376.823 402.753 377.499C403.213 378.1 403.594 378.926 403.747 379.75C403.9 380.501 403.824 381.402 403.594 382.153C403.365 382.903 402.907 383.728 402.295 384.254C401.759 384.855 400.92 385.305 400.155 385.53C399.391 385.755 398.626 385.83 397.708 385.679C396.181 385.454 393.275 384.779 391.976 383.428C390.753 382.077 389.913 379.3 390.065 377.649C390.142 376.449 391.059 375.248 391.823 374.572C392.511 373.972 393.275 373.672 394.117 373.522C394.881 373.297 395.798 373.371 396.562 373.596C397.327 373.747 398.168 374.197 398.703 374.797C399.314 375.322 399.772 376.073 400.078 376.823C400.307 377.574 400.614 378.475 400.307 379.225C399.849 380.276 397.021 382.378 396.868 382.227C396.715 382.077 399.466 377.499 399.772 377.649C400.001 377.725 399.772 380.202 399.237 381.177C398.703 382.153 397.403 383.128 396.41 383.503C395.569 383.804 394.804 383.879 393.963 383.728C392.894 383.503 391.746 383.203 390.753 381.928C387.924 378.55 383.645 362.189 382.804 356.559C382.421 353.933 381.81 351.607 382.881 350.481C383.95 349.356 389.453 349.73 389.682 350.256C389.836 350.63 388.766 351.607 388.001 352.057C387.084 352.507 385.632 352.957 384.485 352.732C383.415 352.583 382.039 351.757 381.352 351.006C380.74 350.405 380.51 349.955 380.281 348.83C379.746 345.903 381.886 338.322 382.116 332.168C382.345 324.739 381.121 315.131 381.046 307.251C380.969 300.197 380.358 291.191 381.581 287.213C382.116 285.262 382.804 284.211 383.95 283.311C385.097 282.334 387.237 281.585 388.459 281.659C389.301 281.734 390.065 282.184 390.6 282.785C391.365 283.536 392.129 285.037 392.282 286.013C392.434 286.837 392.205 287.739 391.9 288.414C391.594 289.165 391.059 289.915 390.447 290.441C389.836 290.891 388.995 291.341 388.23 291.49C387.466 291.641 386.166 292.016 385.785 291.416C384.943 290.29 387.084 281.884 388.384 281.358C388.995 281.059 389.988 281.959 390.6 282.485C391.136 283.01 391.671 283.761 391.9 284.512C392.205 285.262 392.358 286.087 392.205 286.913C391.976 287.964 391.136 289.39 390.371 290.065C389.759 290.666 388.995 291.04 388.153 291.191C387.39 291.341 386.091 291.641 385.708 291.116C384.868 290.065 386.931 281.959 388.23 281.509C389.072 281.209 390.6 282.785 391.211 283.61C391.746 284.287 391.976 285.111 392.052 285.862C392.129 286.688 392.052 287.512 391.746 288.263C391.288 289.239 390.218 290.441 389.224 290.965C388.23 291.416 386.549 291.942 385.555 291.265C383.95 290.29 382.345 285.037 382.345 282.56C382.345 280.759 383.645 279.783 384.103 277.906C384.714 274.979 385.097 271.453 385.249 266.798C385.479 258.844 383.568 242.932 383.797 234.903C383.874 230.025 385.249 227.323 384.943 223.12C384.485 218.015 381.656 212.538 380.663 206.609C379.594 199.704 380.128 190.848 379.288 184.168C378.6 178.689 378.14 173.36 376.459 169.383C375.159 166.23 372.485 164.054 371.033 161.653C369.885 159.702 367.821 157.599 368.281 155.949C368.892 154.073 375.236 151.146 375.772 151.596C376.078 151.897 374.93 154.147 374.243 154.898C373.707 155.574 372.866 155.949 372.102 156.174C371.337 156.399 370.497 156.55 369.656 156.325C368.586 156.098 367.21 155.349 366.446 154.448C365.758 153.623 364.84 151.67 365.376 150.995C366.217 149.944 375.007 150.77 375.772 152.122C376.23 152.872 375.084 154.598 374.243 155.423C373.478 156.174 372.026 156.849 370.879 156.924C369.733 157 368.281 156.55 367.363 155.873C366.446 155.123 365.758 153.772 365.452 152.797C365.223 151.897 364.994 150.621 365.529 150.245C366.523 149.57 374.701 152.872 374.853 153.998C375.007 154.523 373.784 155.274 373.02 155.574C372.026 156.024 370.421 156.174 369.35 156.024C368.51 155.799 367.746 155.423 367.134 154.824C366.446 154.073 365.682 152.647 365.452 151.596C365.3 150.77 365.605 149.87 365.758 149.195C365.911 148.744 365.911 148.369 366.369 148.144C367.592 147.393 374.243 147.017 375.618 148.218C376.459 148.969 376.382 150.695 376.153 151.821C375.924 152.872 375.084 154.147 374.166 154.824C373.249 155.499 371.643 155.799 370.574 155.799C369.733 155.724 368.892 155.423 368.281 154.973C367.592 154.523 366.446 153.848 366.598 153.171C366.828 151.821 374.395 147.843 375.772 148.518C376.536 148.894 376.536 150.995 376.23 152.122C376.001 153.171 375.159 154.448 374.243 155.123C373.326 155.799 371.873 156.174 370.727 156.024C369.579 155.949 368.052 155.049 367.363 154.448C366.981 154.147 366.598 153.547 366.675 153.472C366.828 153.322 369.81 155.349 370.039 154.973C370.65 154.298 363.847 147.093 360.713 141.99C356.662 135.31 352.382 124.202 348.253 118.198C345.426 114.07 341.91 109.943 339.769 108.591C338.852 107.992 338.088 108.291 337.4 107.916C336.711 107.466 336.101 106.865 335.642 106.19C335.259 105.515 334.953 104.689 334.878 103.938C334.801 103.112 334.953 102.212 335.336 101.537C335.642 100.787 336.101 100.112 336.788 99.586C337.63 98.985 339.617 97.9339 340.228 98.4595C341.375 99.3609 340.687 107.992 339.54 108.742C338.929 109.117 337.859 108.517 337.171 108.066C336.33 107.466 335.259 106.266 334.878 105.29C334.572 104.464 334.572 103.638 334.724 102.887C334.801 102.063 335.183 101.237 335.718 100.636C336.176 100.036 336.865 99.4351 337.63 99.1359C338.317 98.8354 339.923 98.5349 339.998 98.6845C340.075 98.9095 335.565 101.462 335.489 101.312C335.413 101.237 337.017 99.2855 338.088 98.8354C339.158 98.3853 340.687 98.3099 341.756 98.6845C342.827 98.985 343.973 100.036 344.585 100.862C345.043 101.613 345.273 102.437 345.273 103.188C345.349 104.014 345.426 105.29 344.814 105.589C343.514 106.266 335.489 102.738 335.107 101.687C335.03 101.312 335.413 101.012 335.795 100.636C336.407 100.036 337.782 98.985 338.929 98.8354C339.998 98.6104 341.527 98.9095 342.521 99.5105C343.439 100.112 344.356 101.312 344.737 102.362C345.043 103.413 345.197 105.515 344.433 105.89C343.21 106.64 335.565 102.813 335.259 101.537C335.107 100.862 336.101 100.112 336.788 99.586C337.705 99.0605 339.158 98.5349 340.304 98.6104C341.45 98.6845 342.827 99.4351 343.591 100.112C344.203 100.711 344.585 101.462 344.814 102.212C345.043 102.963 345.043 103.938 344.968 104.614C344.891 105.065 344.662 105.74 344.585 105.74C344.356 105.74 344.203 102.288 344.127 102.288C344.127 102.288 344.585 104.839 344.279 105.89C344.05 106.64 343.514 107.315 342.979 107.916C342.368 108.442 341.604 108.892 340.84 109.117C340.075 109.267 339.158 109.342 338.394 109.192C337.63 109.042 337.094 108.816 336.176 108.141C333.731 106.415 326.698 100.486 324.865 96.9583C323.641 94.557 322.953 91.4052 323.717 89.9041C324.405 88.7034 326.546 87.8774 327.921 87.8033C329.068 87.7278 330.368 88.4029 331.208 89.1535C332.049 89.9041 332.737 91.1802 332.814 92.3053C332.891 93.4319 332.431 94.8575 331.82 95.6836C331.362 96.4341 330.673 96.8842 329.985 97.2588C329.298 97.5593 327.692 97.9339 327.616 97.7843C327.463 97.4097 331.82 93.9574 332.049 94.1824C332.202 94.332 330.903 96.5082 330.139 97.1092C329.45 97.7089 328.686 97.9339 327.921 98.0848C327.081 98.1603 326.24 98.1603 325.476 97.8598C324.482 97.4839 323.259 96.5082 322.724 95.6081C322.265 94.933 322.036 94.107 322.036 93.3564C322.036 92.6813 322.036 91.9307 322.647 91.4806C323.871 90.4296 330.597 89.3785 331.973 90.2787C332.66 90.6546 332.585 91.7057 332.585 92.5304C332.585 93.5814 331.973 95.0071 331.362 95.8331C330.903 96.5082 330.214 96.9583 329.45 97.2588C328.456 97.5593 327.463 97.7843 325.858 97.3343C321.501 96.0582 309.959 85.3265 303.691 82.2488C299.717 80.2976 296.201 80.0725 293.143 78.7964C290.697 77.7454 288.786 76.5447 286.875 75.4196C285.117 74.3685 283.359 73.6934 282.212 72.3418C281.066 70.9161 279.537 68.589 279.995 67.1633C280.607 65.363 285.423 62.8863 287.028 62.8863C287.946 62.9604 288.556 63.711 289.015 64.3119C289.55 64.9116 290.008 65.5881 290.162 66.4882C290.391 67.4638 290.238 69.0404 289.704 70.016C289.168 70.9916 288.021 71.9672 286.952 72.4173C285.882 72.7919 283.817 73.0924 283.282 72.3418C282.518 71.2166 285.652 63.3363 287.104 63.0358C287.946 62.8108 289.244 64.537 289.779 65.4371C290.238 66.1877 290.391 67.0137 290.391 67.8384C290.391 68.589 290.238 69.415 289.779 70.1656C289.244 71.0657 288.098 72.1168 287.028 72.5669C285.957 72.9428 284.353 73.1679 283.359 72.4927C281.907 71.5913 280.072 66.0381 280.531 65.7376C281.066 65.363 287.563 70.8407 287.257 71.6667C286.952 72.3418 283.511 72.3418 281.372 71.3662C277.32 69.4905 268.683 60.9337 267.383 56.1312C266.466 52.8284 268.147 47.3507 269.447 46.6743C270.059 46.2996 271.053 46.9748 271.74 47.3507C272.428 47.7253 273.04 48.4004 273.421 49.0014C273.881 49.6765 274.186 50.4271 274.186 51.2531C274.186 52.3042 273.652 53.804 273.117 54.63C272.657 55.3051 271.894 55.7552 271.205 56.0557C270.517 56.3562 269.295 56.9572 268.836 56.5058C267.843 55.6056 268.453 47.1998 269.753 46.4492C270.441 46.0746 272.199 47.1257 272.963 47.9504C273.728 48.7009 274.34 50.1266 274.415 51.1022C274.569 51.9282 274.34 52.7543 274.034 53.4294C273.652 54.1045 273.192 54.8551 272.505 55.3051C271.663 55.8307 269.218 56.5058 269.141 56.3562C268.989 56.1312 273.192 54.5546 273.652 53.1289C274.11 51.6277 271.13 47.5003 271.359 47.3507C271.588 47.1998 273.346 49.0014 273.652 49.977C274.034 51.0281 274.034 52.4538 273.652 53.5048C273.192 54.4804 272.123 55.5302 271.205 56.0557C270.441 56.5058 269.601 56.5812 268.836 56.5812C268.072 56.5812 266.772 56.5812 266.543 55.9816C266.008 54.7055 270.211 47.1257 271.663 46.9748C272.505 46.8993 273.652 48.6255 273.957 49.6011C274.34 50.6521 274.34 52.0778 273.957 53.1289C273.498 54.1045 272.428 55.1555 271.511 55.6811C270.823 56.1312 269.982 56.2066 269.141 56.2066C268.378 56.2066 267.154 56.2066 266.849 55.6056C266.314 54.405 270.059 47.1998 271.434 47.0502C272.275 46.9748 273.346 48.7009 273.728 49.6765C274.11 50.7276 273.957 52.2287 273.652 53.2043C273.421 53.9549 272.888 54.63 272.275 55.0801C271.663 55.6056 270.976 56.0557 270.136 56.1312C269.141 56.2807 266.924 56.4317 266.62 55.6811C266.008 54.405 270.059 47.3507 271.511 47.1998C272.352 47.1257 273.421 49.0014 273.804 49.9016C274.11 50.6521 274.186 51.4027 274.034 52.2287C273.804 53.2043 273.192 54.5546 272.352 55.3051C271.511 55.9816 269.982 56.4317 268.989 56.5058C268.147 56.5058 266.924 56.4317 266.62 55.8307C266.085 54.63 270.211 47.1257 271.663 46.9748C272.505 46.8993 273.575 48.6255 273.957 49.6765C274.34 50.6521 274.186 52.2287 273.881 53.1289C273.575 53.9549 273.117 54.5546 272.505 55.0801C271.663 55.6811 270.67 56.3562 269.141 56.2066C265.32 55.9816 255.918 50.4271 249.879 46.5247C243.688 42.4713 234.515 36.6932 232.375 32.1898C231.153 29.488 231.534 25.8106 232.605 24.5345C233.292 23.6344 234.898 23.4093 235.968 23.4834C237.114 23.5589 238.491 24.3095 239.254 24.9846C239.866 25.5856 240.249 26.2607 240.478 27.0112C240.707 28.0623 240.554 29.6376 240.172 30.5391C239.866 31.2896 239.331 31.8893 238.72 32.4148C237.956 32.9403 236.35 33.9914 235.815 33.6154C234.744 32.9403 235.204 24.61 236.198 24.0844C236.885 23.7839 238.491 25.2851 239.102 26.1852C239.714 27.0867 240.018 28.5124 239.866 29.6376C239.714 30.6886 238.949 31.9647 238.108 32.6398C237.191 33.3904 235.586 33.7664 234.669 33.8405C234.21 33.8405 233.751 33.9914 233.521 33.6154C232.834 32.6398 234.975 24.234 236.35 23.7839C237.114 23.5589 238.643 25.06 239.178 25.8861C239.714 26.5612 239.943 27.3872 240.018 28.1378C240.095 28.887 240.018 29.713 239.637 30.4636C239.178 31.3637 238.185 32.5657 237.191 33.0158C236.198 33.4659 234.134 33.9914 233.598 33.3163C232.757 32.2652 235.356 24.5345 236.579 24.0844C237.267 23.7839 238.108 24.6854 238.72 25.2096C239.254 25.7351 239.789 26.4116 240.018 27.2363C240.324 28.2119 240.324 29.713 239.866 30.7641C239.485 31.7397 238.414 32.7908 237.42 33.3163C236.427 33.7664 234.44 34.2164 233.904 33.6154C232.986 32.4903 235.815 24.234 236.885 23.7085C237.267 23.5589 237.65 23.8594 238.031 24.1599C238.72 24.6854 239.943 25.8106 240.324 26.8617C240.707 27.9114 240.631 29.3384 240.172 30.3881C239.789 31.3637 238.72 32.4148 237.726 32.9403C236.733 33.3904 234.744 33.8405 234.21 33.2408C233.292 32.1898 235.356 24.3095 236.656 23.8594C237.42 23.5589 238.949 24.9846 239.485 25.9602C240.095 26.8617 240.401 28.2873 240.249 29.3384C240.095 30.4636 239.331 31.7397 238.491 32.4148C237.65 33.0899 235.968 33.4659 235.127 33.5413C234.592 33.6154 234.363 33.6909 233.904 33.3904C232.986 32.7153 230.923 27.8373 230.694 27.9114C230.617 27.9868 232.986 31.9647 232.452 32.4903C231.153 33.5413 217.853 24.835 211.966 21.3072C207.38 18.5299 201.647 16.6542 199.889 13.2773C198.514 10.5001 199.202 4.34595 200.501 3.44581C201.266 2.92028 203.024 3.67085 203.941 4.27049C204.857 4.87149 205.699 5.99666 205.928 7.12319C206.157 8.39929 205.622 10.5755 204.857 11.5511C204.094 12.4513 202.412 13.5778 201.724 13.2019C200.501 12.5267 199.814 4.34595 200.807 3.37035C201.266 2.92028 202.412 3.44581 203.176 3.67085C203.864 3.97134 204.628 4.42141 205.163 5.02106C205.699 5.54659 206.081 6.37262 206.234 7.12319C206.463 7.7983 206.463 8.69844 206.234 9.44901C206.081 10.1996 205.775 10.9501 205.163 11.5511C204.476 12.2263 202.87 13.1264 202.03 13.1264C201.418 13.2019 200.424 12.8272 200.424 12.4513C200.272 11.7007 205.163 9.59993 204.934 8.62433C204.705 7.42369 196.527 7.57326 196.144 6.44674C195.915 5.69752 197.52 4.27049 198.437 3.82042C199.431 3.29489 200.883 3.06985 201.953 3.37035C203.024 3.59538 204.323 4.34595 204.934 5.2461C205.622 6.37262 206.157 8.54887 205.546 9.82497C204.705 11.3261 201.724 12.5267 199.354 13.1264C196.45 13.8028 192.093 13.3514 189.265 12.9768C187.277 12.7518 185.902 12.0012 184.144 11.8516C182.309 11.7007 179.405 13.1264 178.411 12.1508C177.264 10.9501 178.411 4.57099 179.175 3.74496C179.481 3.44581 179.863 3.59538 180.321 3.67085C181.009 3.74496 182.538 4.19638 183.227 4.87149C183.991 5.54659 184.45 6.82269 184.602 7.72284C184.756 8.39929 184.602 9.14986 184.296 9.74951C183.838 10.5755 183.302 11.4757 182.079 12.0767C179.175 13.4269 171.073 13.1264 165.34 14.0279C159.225 14.928 150.741 17.6298 146.537 17.4802C144.473 17.4048 142.792 17.0302 141.798 16.2796C141.033 15.8282 140.727 15.0035 140.498 14.3284C140.192 13.5778 140.115 12.6763 140.269 11.9258C140.345 11.1752 140.651 10.3505 141.186 9.74951C141.798 8.99894 143.096 8.0988 144.167 7.7983C145.237 7.57326 146.843 7.87376 147.683 8.32383C148.447 8.69844 149.059 9.14986 149.289 9.97454C149.824 11.6253 149.364 16.2796 148.066 18.3049C146.918 20.0311 145.389 20.4825 142.485 21.9082C134.46 25.661 100.903 40.221 94.4059 36.9937C91.5019 35.5666 90.4314 29.4125 91.1958 28.0623C91.6542 27.2363 93.566 27.0867 94.6351 27.3117C95.9348 27.6122 97.6928 28.887 98.3818 30.0135C98.9156 30.9891 98.9925 32.4148 98.6864 33.4659C98.3818 34.5169 97.4636 36.2431 96.6237 36.2431C95.2472 36.1676 90.8143 29.3384 91.3495 28.0623C91.6542 27.3117 93.6415 27.0867 94.7888 27.3117C96.0885 27.6122 97.8465 28.887 98.5341 30.0135C99.0693 30.9891 99.2217 32.4148 98.8401 33.4659C98.4572 34.591 97.3868 36.1676 96.164 36.3927C94.3304 36.6177 88.9794 33.6909 88.521 32.0402C88.215 30.9137 89.7438 28.887 90.8898 28.1378C92.0371 27.4613 94.2536 27.3872 95.4764 27.8373C96.5469 28.2119 97.5405 29.4125 97.9989 30.2386C98.3818 30.9891 98.4572 32.5657 98.4572 32.5657C98.4572 32.5657 98.3049 31.5147 98.2281 31.5147C97.8465 31.5147 97.5405 36.2431 96.0885 39.019C93.7952 43.2974 88.0626 49.2265 83.5529 53.579C79.2723 57.6323 72.3156 60.2586 69.7931 64.3119C67.8059 67.4638 68.0351 71.5171 67.6535 74.7431C67.2706 77.4462 67.1952 79.8475 67.3475 82.3984C67.4243 85.1001 68.418 88.7034 68.1888 90.4296C68.1119 91.3297 67.8827 91.7798 67.5012 92.3808C66.8891 93.0559 65.7431 93.8065 64.9019 94.0315C64.2143 94.2565 63.4499 94.1824 62.8378 94.0315C62.1502 93.8819 61.5381 93.5814 61.0029 93.0559C60.3921 92.4563 59.5508 90.4296 59.5508 90.4296Z" fill="white"/>
</mask>
<g mask="url(#mask3_114_2)">
<path d="M0.0825195 0.367798H416.223V423.955H0.0825195V0.367798Z" fill="#FC5200"/>
</g>
</g>
</g>
<path d="M342.488 164.089C340.577 164.933 338.191 168.632 338.191 170.786C338.191 173.034 339.479 176.451 341.294 179.168C342.439 180.854 342.964 182.117 342.869 182.961C342.725 184.225 342.678 184.225 339.575 184.085L336.378 183.898L332.415 187.315C330.22 189.142 327.834 191.108 327.118 191.623C326.211 192.279 325.877 192.888 326.02 193.543C326.211 194.292 325.781 194.854 324.302 195.931C321.486 197.945 321.008 199.444 320.484 207.825C320.006 215.785 320.245 219.719 321.343 220.797C322.249 221.686 325.161 221.217 326.45 220C327.357 219.157 327.357 219.111 325.924 216.863C323.872 213.632 323.824 212.93 324.779 207.123C325.494 202.815 325.877 201.597 327.022 200.193C328.455 198.413 328.884 198.226 329.36 198.975C329.505 199.209 330.316 199.115 331.271 198.648C334.039 197.336 334.134 197.758 334.134 208.48C334.134 215.505 333.895 219.157 333.228 222.575L332.415 227.211L335.137 232.503L337.857 237.747L336.807 241.026C336.281 242.852 335.805 244.397 335.805 244.537C335.805 244.677 336.378 244.912 337.046 245.052C337.761 245.239 338.191 245.474 338.096 245.567C337.953 245.708 335.852 245.38 333.371 244.912C330.888 244.397 327.642 243.835 326.163 243.694C324.635 243.506 323.395 243.226 323.395 243.039C323.395 242.852 322.011 241.493 320.293 239.995C317.668 237.747 316.951 237.325 315.949 237.56C314.278 237.982 312.704 239.76 312.035 241.962C311.7 242.945 310.556 245.099 309.458 246.785C306.116 251.842 306.403 257.04 310.03 257.04C311.033 257.04 312.13 256.243 314.661 253.528C317.238 250.859 318.336 250.016 319.29 250.016C320.006 250.016 320.96 249.688 321.343 249.267C322.726 247.909 325.972 248.845 334.611 253.059C339.098 255.261 343.203 257.04 343.776 257.04C345.398 257.04 345.494 257.742 344.158 260.318C343.489 261.582 342.295 265.421 341.532 268.747C340.005 275.536 337.714 280.734 335.948 281.529C335.328 281.764 334.85 282.139 334.802 282.279C334.802 282.42 334.707 283.31 334.611 284.199C334.469 285.088 334.278 286.634 334.134 287.665C333.991 288.694 334.087 289.725 334.421 290.1C334.898 290.662 333.18 290.755 323.347 290.802C306.928 290.895 313.801 291.504 336.33 291.973C349.313 292.206 354.515 292.16 355.184 291.785C355.995 291.316 355.899 291.224 354.419 291.176L352.749 291.129L354.563 290.567C356.424 290.005 357.57 288.789 357.045 287.945C356.902 287.711 355.613 287.149 354.228 286.774C352.845 286.354 351.031 285.557 350.172 284.948C349.313 284.339 347.976 283.544 347.213 283.262C346.306 282.888 345.876 282.42 346.019 282.046C346.163 281.671 345.971 281.389 345.589 281.389C344.11 281.389 344.3 279.189 346.067 275.208C347.642 271.744 350.22 265.421 353.751 256.618L354.945 253.621L353.895 249.173L352.845 244.677L354.086 243.741L355.326 242.757L353.369 238.778C351.938 235.874 351.364 234.001 351.173 231.753C350.792 227.727 350.983 217.8 351.412 216.207C351.699 215.271 353.369 213.912 357.952 210.963C361.34 208.762 364.299 206.936 364.49 206.936C364.729 206.936 365.206 206.327 365.636 205.578C366.162 204.547 366.208 203.892 365.875 202.861C365.397 201.597 362.772 199.444 361.675 199.444C360.863 199.444 360.1 201.13 359.718 203.565C359.383 205.952 358.047 207.076 354.801 207.638C353.321 207.918 352.988 207.825 352.988 207.216C352.988 206.795 353.751 206.187 354.658 205.812C356.043 205.203 356.328 204.922 356.089 204.032C355.947 203.423 355.517 200.988 355.136 198.553C354.371 193.825 353.847 192.701 350.935 189.891C349.313 188.346 349.122 187.924 349.361 186.66C349.742 184.834 350.314 184.459 352.844 184.459C354.658 184.459 354.897 184.318 355.136 183.148C355.326 182.445 355.804 181.041 356.328 179.964C356.949 178.559 357.045 177.857 356.711 177.2C356.328 176.638 356.376 175.656 356.758 174.063C357.856 169.241 356.997 166.806 353.369 164.792C350.792 163.387 345.017 163.012 342.488 164.089Z" fill="#CF4300"/>
<path d="M184.499 302.46C188.031 302.648 194.426 302.835 198.627 302.882C207.983 302.929 211.705 303.491 205.5 303.912C203.258 304.053 229.174 304.146 263.015 304.193C296.904 304.193 322.964 304.006 321.007 303.819C317.141 303.397 261.345 302.648 209.796 302.32C192.326 302.226 180.967 302.273 184.499 302.46Z" fill="#CF4300"/>
<path d="M143.069 302.788C148.224 302.882 156.815 302.882 162.161 302.788C167.506 302.742 163.259 302.695 152.758 302.695C142.258 302.695 137.914 302.742 143.069 302.788Z" fill="#CF4300"/>
<path d="M163.02 305.739C158.915 306.207 199.344 306.675 240.343 306.628C263.254 306.628 281.01 306.394 280.198 306.207C278.67 305.786 166.601 305.364 163.02 305.739Z" fill="#CF4300"/>
<path d="M162.909 143.59C159.997 143.918 159.328 144.245 156.894 146.54L154.46 148.835L154.651 152.019C154.746 154.407 155.224 156 156.369 158.34C159.042 163.819 158.327 165.927 153.028 167.753C151.119 168.408 148.351 169.111 146.919 169.251C145.486 169.391 143.338 170 142.146 170.609C136.752 173.278 130.929 176.603 129.259 178.007C128.304 178.851 126.299 180.442 124.819 181.519C122.147 183.486 119.235 186.858 119.235 187.982C119.235 189.106 124.867 196.925 129.163 201.795C131.549 204.512 134.175 207.929 134.986 209.382C135.797 210.833 137.134 212.566 137.945 213.174L139.426 214.345L138.661 218.934C137.802 224.037 138.089 226.519 139.807 229.236L140.714 230.734L138.28 237.43C136.943 241.129 135.893 244.875 135.893 245.765C135.893 246.655 135.368 248.856 134.747 250.635C132.218 257.425 131.692 258.361 128.543 260.796C124.486 263.886 123.484 265.292 120.905 271.66C118.52 277.514 115.75 281.915 114.224 282.336C113.269 282.571 112.601 282.991 108.639 285.848C105.107 288.377 105.107 288.61 108.925 293.902C110.214 295.635 111.169 297.555 111.36 298.772C111.645 300.365 112.314 301.394 114.606 303.736C117.469 306.686 118.472 307.108 120.238 306.217C121.479 305.562 121.383 304.017 119.951 300.973C118.663 298.305 118.52 295.963 119.14 290.203C119.426 287.674 119.855 286.597 121.288 284.584C123.817 280.978 133.459 269.6 137.659 265.244C139.617 263.184 142.575 259.392 144.198 256.816C146.584 253.07 147.443 252.087 148.399 251.993C149.448 251.853 150.069 251.009 152.455 246.514C153.983 243.564 155.462 241.129 155.653 241.129C155.844 241.129 157.133 241.878 158.517 242.768C159.854 243.659 161.191 244.408 161.428 244.408C161.715 244.408 162.479 243.846 163.194 243.19C164.722 241.785 165.39 241.973 168.684 244.97C171.023 247.123 171.213 247.638 169.829 248.856C166.631 251.666 164.483 256.583 162.431 265.713C160.236 275.313 159.471 277.514 158.182 277.841C156.847 278.169 153.887 282.431 153.028 285.24C152.359 287.441 153.172 288.517 156.273 289.548C157.467 289.923 159.09 290.905 159.949 291.749C162.383 294.184 169.208 296.853 173.028 296.853C174.124 296.853 174.746 296.572 175.128 295.87C175.652 294.886 175.748 294.933 178.086 297.228C182.095 301.067 185.15 300.927 182.525 296.993C181.858 296.01 181.284 294.418 181.236 293.34C181.141 292.311 180.903 291.14 180.616 290.718C179.662 289.127 187.203 277.654 189.207 277.654C189.972 277.654 190.353 277.092 191.021 275.079C191.451 273.673 192.023 272.504 192.31 272.504C192.549 272.504 192.74 272.644 192.74 272.878C192.74 273.627 194.697 274.422 195.317 273.955C195.747 273.627 196.224 273.673 196.941 274.189C198.181 275.032 198.276 276.343 197.226 277.232C196.319 277.981 194.984 280.558 194.219 283.038C192.978 287.019 192.167 288.892 191.594 288.892C191.308 288.892 190.64 289.548 190.162 290.343C189.303 291.749 189.303 291.796 190.401 292.966C193.504 296.15 199.9 299.054 199.9 297.274C199.9 296.946 199.135 295.588 198.229 294.231C197.322 292.873 196.558 291.28 196.558 290.672C196.558 290.063 196.367 289.314 196.128 288.939C195.46 287.956 196.224 286.457 200.186 280.604C202.142 277.748 203.718 275.032 203.718 274.61C203.718 274.235 203.145 273.065 202.477 272.035C201.809 271.051 201.331 269.927 201.475 269.6C201.618 269.272 200.329 267.586 198.611 265.901L195.556 262.857L196.176 256.676C196.511 253.257 196.893 250.495 197.083 250.495C197.226 250.495 197.608 251.009 197.894 251.666C198.659 253.304 200.042 253.164 203.431 251.151C206.773 249.183 211.831 245.39 211.831 244.828C211.831 243.799 210.639 242.066 209.922 242.066C208.872 242.066 207.728 243.377 207.345 245.015C207.106 246.046 206.438 246.608 204.529 247.45C200.52 249.231 200.186 249.183 199.851 246.748C199.327 243.097 198.037 240.24 196.558 239.491C195.795 239.116 195.03 238.554 194.887 238.32C194.41 237.57 195.556 236.447 196.797 236.447C197.37 236.447 198.085 236.166 198.324 235.838C199.135 234.808 199.851 231.624 199.47 230.875C199.279 230.453 199.135 228.954 199.183 227.55C199.279 224.459 198.896 223.57 196.987 222.633C195.365 221.79 191.164 221.602 189.399 222.306C187.107 223.195 185.819 225.068 185.819 227.503C185.819 229.704 186.105 230.266 189.207 234.433C189.637 234.995 189.829 235.838 189.685 236.306C189.303 237.336 181.858 240.942 181.332 240.38C181.141 240.146 179.327 238.227 177.323 236.119C175.031 233.731 173.743 232.046 173.934 231.624C174.172 230.968 172.215 229.142 165.342 223.617L163.052 221.79L163.385 218.7C164.15 211.722 166.822 198.658 167.395 199.313C167.586 199.5 168.064 200.437 168.397 201.328C168.731 202.217 169.447 203.575 169.973 204.277C171.165 205.963 172.55 205.776 176.559 203.388C179.088 201.889 194.171 187.887 194.171 187.045C194.171 186.343 191.594 180.957 191.069 180.63C190.831 180.442 190.258 180.395 189.875 180.582C189.494 180.724 188.54 180.911 187.776 180.957C185.819 181.144 185.58 181.613 185.246 185.407C184.959 188.684 184.865 188.871 182.717 190.979C181.475 192.195 179.279 193.788 177.753 194.537C175.461 195.754 174.983 195.849 174.602 195.239C173.982 194.256 174.03 191.633 174.65 191.213C175.27 190.838 174.841 182.503 174.03 178.709C173.457 176.041 171.643 173.794 168.588 172.061C166.297 170.75 166.249 170.422 167.729 167.518C168.301 166.442 168.731 166.254 170.641 166.114L172.932 165.973L173.265 163.21C173.457 161.712 173.982 159.933 174.363 159.324C175.031 158.34 175.031 158.106 174.363 156.842C173.982 156.093 173.648 154.547 173.648 153.377C173.648 152.206 173.313 150.286 172.884 149.069C172.359 147.524 172.263 146.775 172.645 146.54C173.361 146.165 172.025 144.994 170.067 144.292C168.349 143.73 164.913 143.356 162.908 143.59H162.909ZM141.381 185.969C141.764 187.373 141.716 202.639 141.335 204.043C141.096 205.026 140.857 205.119 139.568 204.886C137.039 204.417 134.175 200.157 131.455 192.757L129.783 188.216L131.549 187.467C132.505 187.092 134.366 186.576 135.606 186.296C136.895 186.061 138.28 185.687 138.709 185.407C140.046 184.657 141.048 184.89 141.381 185.969ZM185.102 248.903C185.102 251.571 184.674 251.946 183.05 250.729C182.001 249.98 182.287 247.732 183.528 246.514C184.626 245.39 185.102 246.139 185.102 248.903ZM182.287 253.304C183.671 254.006 184.148 254.522 183.958 255.084C182.573 259.532 182.382 263.933 183.432 265.948C184.052 267.165 184.052 267.634 183.05 271.285C182.239 274.422 182.143 275.5 182.573 276.155C183.002 276.905 182.764 277.607 180.999 280.463C179.853 282.384 178.898 284.069 178.898 284.304C178.898 285.473 176.798 289.829 176.272 289.829C175.891 289.829 175.366 290.25 175.08 290.765C174.316 292.216 173.457 291.889 171.261 289.454C168.397 286.317 166.44 282.851 166.822 281.494C166.966 280.838 166.775 280.089 166.249 279.527C164.913 278.076 165.533 276.67 173.409 263.371C175.557 259.767 177.896 255.833 178.612 254.568C179.327 253.351 179.995 252.368 180.14 252.368C180.282 252.368 181.236 252.789 182.287 253.304Z" fill="#CF4300"/>
<path d="M246.769 169.439C245.529 170.001 244.383 171.03 243.714 172.061C242.998 173.325 242.474 173.699 241.805 173.512C240.23 173.138 238.75 174.121 236.651 177.024C234.884 179.413 234.359 179.788 232.259 180.255C229.109 181.004 227.439 182.737 227.295 185.36L227.2 187.373L228.25 186.389C229.539 185.219 232.64 184.985 232.164 186.109C231.735 187.185 237.271 187.045 239.896 185.874C241.757 185.078 242.807 184.141 241.233 184.75C240.659 184.938 240.755 184.47 241.519 182.363C242.092 180.724 242.378 179.178 242.187 178.335C242.044 177.586 242.139 176.978 242.378 176.978C242.664 176.978 242.855 177.398 242.855 177.915C242.855 179.271 244.431 182.128 245.91 183.487C246.912 184.423 247.151 185.032 247.151 187.045C247.151 190.042 246.483 190.932 242.235 193.788C237.271 197.065 223.286 210.599 223.286 212.097C223.286 213.548 225.577 217.294 229.872 222.961C231.687 225.349 233.548 227.925 234.025 228.627C234.694 229.657 235.123 229.891 236.125 229.657L237.366 229.376L237.414 233.028C237.462 235.043 237.558 237.711 237.604 239.022C237.748 240.708 237.08 243.704 235.266 250.027C231.113 264.543 230.827 265.011 225.577 267.634C223.047 268.898 221.042 270.771 213.645 278.638L209.014 283.601L206.198 283.882C202.523 284.257 201.951 284.537 201.425 285.99C200.947 287.347 201.425 298.867 201.999 300.225C202.475 301.254 203.717 301.676 204.48 301.02C204.861 300.74 205.578 299.194 206.055 297.555C206.58 295.963 207.822 293.528 208.824 292.171C209.825 290.812 211.305 288.845 212.069 287.768C213.882 285.381 222.331 278.685 229.013 274.377C231.781 272.597 234.455 270.818 235.027 270.443C236.269 269.6 243.142 258.923 246.531 252.602C247.962 249.886 249.251 247.685 249.395 247.685C249.824 247.685 261.088 256.77 263.235 258.83C265.813 261.358 266.148 262.717 265.098 265.479C262.902 271.098 262.376 273.486 261.708 281.12C260.802 290.953 260.229 294.746 259.275 296.15C258.845 296.806 258.606 298.023 258.701 299.288C258.845 301.302 258.893 301.302 261.232 301.911C262.567 302.238 265.575 302.66 267.914 302.8C273.021 303.08 275.932 302.378 276.17 300.74C276.361 299.569 275.455 299.007 271.971 297.977C270.253 297.461 269.107 296.712 267.675 295.073L265.67 292.873L265.957 289.923C266.339 286.364 269.727 274.751 272.4 267.68C273.498 264.917 274.357 262.295 274.357 261.827C274.357 259.438 268.296 249.698 260.993 240.427C258.988 237.852 257.079 235.323 256.792 234.808C256.029 233.357 256.792 219.402 257.795 217.107C258.225 216.171 258.749 215.376 258.94 215.376C259.131 215.376 260.182 216.874 261.184 218.653C262.33 220.62 263.38 221.931 263.856 221.931C264.716 221.931 268.773 218.84 275.311 213.128C283.808 205.682 283.091 206.572 282.806 204.23C282.662 203.106 282.376 202.03 282.184 201.795C281.947 201.608 280.801 201.561 279.607 201.748L277.459 202.03L277.174 207.836L273.737 210.364C269.823 213.315 265.479 215.563 264.716 215.094C263.57 214.392 261.471 208.82 261.471 206.431C261.471 204.183 261.278 203.763 257.842 199.313C253.165 193.274 253.07 192.992 253.833 190.229C254.644 187.233 255.122 186.718 256.697 187.045C258.271 187.373 258.845 186.718 259.227 184.283C259.417 183.252 259.847 182.128 260.229 181.706C260.897 181.099 260.849 180.864 259.943 179.459C259.131 178.148 259.036 177.446 259.275 175.573C259.847 171.264 257.747 169.391 251.637 168.782C249.395 168.595 248.392 168.689 246.769 169.439ZM241.376 207.18C243.81 213.503 243.905 217.763 241.709 222.586C240.707 224.834 240.326 225.256 239.658 224.928C239.18 224.741 237.987 224.506 236.984 224.366C234.788 224.132 233.596 222.586 230.637 216.03L228.822 211.957L230.446 210.599C232.975 208.491 239.037 204.605 239.752 204.605C240.135 204.605 240.85 205.776 241.376 207.18Z" fill="#CF4300"/>
<path d="M242.475 181.661C242.475 182.316 242.57 182.55 242.714 182.223C242.808 181.941 242.808 181.379 242.714 181.052C242.57 180.77 242.475 181.004 242.475 181.661Z" fill="#CF4300"/>
<path d="M84.344 202.872C82.9126 203.341 80.9075 204.98 80.2391 206.151C78.8557 208.586 79.7615 212.752 82.3403 215.422C83.1514 216.311 83.4849 217.107 83.3421 217.998C83.1994 219.262 83.0553 219.355 80.574 219.589C79.1412 219.73 77.6137 220.011 77.2322 220.291C75.8488 221.135 71.2183 224.881 68.7836 227.175C66.4931 229.235 66.2543 229.704 66.2543 231.437C66.2543 232.513 66.7799 235.463 67.4483 237.992C68.1166 240.52 68.6409 243.283 68.6409 244.126C68.6409 246.14 69.5961 246.936 71.5051 246.514C73.5569 246.092 73.8917 244.407 72.2682 242.534C70.9795 240.989 70.7407 240.006 70.3592 234.761C70.2164 232.326 70.3111 231.155 70.7887 230.546C71.409 229.704 71.5051 229.704 72.2682 230.453C73.0806 231.202 73.1753 231.202 74.6548 230.313C75.5139 229.797 76.2783 229.564 76.4211 229.751C76.5171 229.938 76.4691 232.888 76.2783 236.212C75.9435 241.27 75.658 242.862 74.6068 245.343C73.6049 247.685 73.4622 248.527 73.8437 249.277C74.1305 249.839 74.5601 251.104 74.7989 252.133C75.1324 253.819 74.9897 254.381 73.2234 257.612C71.361 261.077 71.3143 261.218 72.1735 262.155C72.9365 262.95 72.9365 263.232 72.3642 264.403C71.7906 265.572 71.409 265.759 68.5462 266.041C66.7799 266.228 63.5822 267.025 61.4344 267.82C57.711 269.131 57.3295 269.178 54.7988 268.663C51.1235 267.961 50.6939 268.194 50.3604 271.191C49.8828 275.032 49.9789 281.306 50.5031 281.635C51.6011 282.29 52.747 281.26 54.2265 278.356C55.0856 276.67 56.0875 275.172 56.4704 275.032C56.8519 274.844 57.1854 274.376 57.1854 273.908C57.1854 272.69 59.2385 272.128 66.7319 271.286C75.5139 270.302 75.0363 270.443 76.9467 267.821C78.4262 265.807 78.8077 265.526 79.5708 265.947C80.3352 266.323 80.574 266.181 81.0035 264.87L81.5758 263.372L83.1514 265.245C84.5828 266.885 84.8216 267.025 85.538 266.463C86.253 265.854 86.5398 265.947 87.8285 267.212C89.4521 268.804 89.5468 269.553 88.7837 273.955C88.3542 276.39 88.3542 278.216 88.9265 282.851C89.4988 287.863 89.4988 288.798 88.9265 289.642C88.5449 290.204 88.162 291.795 88.1154 293.153L87.9713 295.683L91.5519 296.947C95.3699 298.305 99.0933 298.632 100.047 297.696C101.002 296.759 100.715 295.168 99.5228 294.652C97.6605 293.809 95.3699 291.655 95.3699 290.765C95.3699 290.251 95.0831 289.689 94.7016 289.501C93.2221 288.658 93.0313 287.254 93.4609 281.12C93.7477 277.794 94.272 273.533 94.7016 271.66L95.5126 268.242L94.224 265.199C93.2701 262.81 93.0794 261.968 93.4609 261.218C93.8905 260.422 93.5556 259.767 91.0743 256.77C88.2581 253.304 88.162 253.117 88.4489 251.01C89.0692 246.281 90.3112 240.193 90.6447 240.193C90.8835 240.193 91.265 240.615 91.5519 241.13C91.8373 241.644 92.459 242.066 92.9353 242.066C93.8905 242.066 96.8974 240.053 100.238 237.196C101.432 236.119 102.769 234.996 103.198 234.668C104.152 233.919 104.152 232.279 103.198 230.922C102.291 229.657 101.384 229.611 100.143 230.828C99.4748 231.484 99.284 232.092 99.4748 233.123C99.7136 234.339 99.5709 234.621 97.9473 235.605C94.9884 237.431 94.4147 237.524 94.4147 236.307C94.4147 235.698 94.6535 234.996 94.8923 234.761C95.5126 234.152 94.224 224.928 93.3648 223.945C93.0794 223.57 91.9814 222.868 91.0262 222.352C90.0244 221.884 89.1172 221.275 88.9745 221.041C88.3542 220.104 89.308 219.168 90.9315 219.028C92.459 218.887 92.6498 218.7 93.4129 216.405C94.1293 214.439 94.224 213.221 93.9385 210.084C93.7477 207.976 93.6517 206.056 93.7477 205.776C94.0332 205.074 93.4129 204.418 91.3611 203.294C89.4988 202.217 86.5398 202.03 84.344 202.872Z" fill="#CF4300"/>
</svg>
